# Blender 3.6.0
# www.blender.org
o wall|2|0.00|0.00|4.96|0.00
v 0.000000 0.000000 0.000000
v 4.965000 0.000000 0.000000
v 0.000000 3.814400 -0.000000
v 4.965000 3.814400 -0.000000
v 0.000000 0.000000 0.005000
v 4.965000 0.000000 0.005000
v 0.000000 3.814400 0.005000
v 4.965000 3.814400 0.005000
vn -0.0000 -1.0000 -0.0000
vn 1.0000 -0.0000 -0.0000
vn -0.0000 1.0000 -0.0000
vn -1.0000 -0.0000 -0.0000
vn -0.0000 -0.0000 -1.0000
vn -0.0000 -0.0000 1.0000
vt 2.982500 0.497500
vt -1.982500 0.497500
vt -1.982500 0.502500
vt 2.982500 0.502500
vt 0.497500 2.407200
vt 0.497500 -1.407200
vt 0.502500 -1.407200
vt 0.502500 2.407200
vt -1.982500 0.497500
vt 2.982500 0.497500
vt 2.982500 0.502500
vt -1.982500 0.502500
vt -1.982500 2.407200
vt 2.982500 -1.407200
vt -1.982500 -1.407200
vt 2.982500 2.407200
s 0
f 6/1/1 5/2/1 1/3/1
f 2/4/1 6/1/1 1/3/1
f 8/5/2 6/6/2 2/7/2
f 4/8/2 8/5/2 2/7/2
f 7/9/3 8/10/3 4/11/3
f 3/12/3 7/9/3 4/11/3
f 5/6/4 7/5/4 3/8/4
f 1/7/4 5/6/4 3/8/4
f 3/13/5 2/14/5 1/15/5
f 3/13/5 4/16/5 2/14/5
f 5/15/6 6/14/6 7/13/6
f 6/14/6 8/16/6 7/13/6
