# Blender 3.6.0
# www.blender.org
o wall|2|0.00|0.00|0.00|4.96
v 0.000000 0.000000 0.000000
v 0.000000 0.000000 4.965000
v 0.000000 3.814400 -0.000000
v 0.000000 3.814400 4.965000
v 0.005000 0.000000 0.000000
v 0.005000 0.000000 4.965000
v 0.005000 3.814400 -0.000000
v 0.005000 3.814400 4.965000
v 0.000000 1.042800 2.206280
v 0.000000 1.042800 3.420270
v 0.000000 1.954470 2.206280
v 0.000000 1.954470 3.420270
v 0.005000 1.042800 2.206280
v 0.005000 1.042800 3.420270
v 0.005000 1.954470 2.206280
v 0.005000 1.954470 3.420270
vn -1.0000 -0.0000 -0.0000
vn 1.0000 -0.0000 -0.0000
vn -0.0000 -1.0000 -0.0000
vn -0.0000 -0.0000 1.0000
vn -0.0000 1.0000 -0.0000
vn -0.0000 -0.0000 -1.0000
vt 2.982500 -1.407200
vt -1.982500 -1.407200
vt 0.776220 -0.364400
vt -0.437770 -0.364400
vt -1.982500 2.407200
vt -0.437770 0.547270
vt 2.982500 2.407200
vt 0.776220 0.547270
vt 0.497500 2.982500
vt 0.502500 2.982500
vt 0.502500 -1.982500
vt 0.497500 -1.982500
vt 0.497500 -1.407200
vt 0.502500 -1.407200
vt 0.502500 2.407200
vt 0.497500 2.407200
vt 0.497500 -1.982500
vt 0.502500 -1.982500
vt 0.502500 2.982500
vt 0.497500 2.982500
vt 0.497500 2.407200
vt 0.502500 2.407200
vt 0.502500 -1.407200
vt 0.497500 -1.407200
vt 0.502500 -0.437770
vt 0.502500 0.776220
vt 0.497500 0.776220
vt 0.497500 -0.437770
vt 0.502500 0.547270
vt 0.502500 -0.364400
vt 0.497500 -0.364400
vt 0.497500 0.547270
vt 0.502500 0.776220
vt 0.502500 -0.437770
vt 0.497500 -0.437770
vt 0.497500 0.776220
vt 0.502500 -0.364400
vt 0.502500 0.547270
vt 0.497500 0.547270
vt 0.497500 -0.364400
s 0
f 1/1/1 2/2/1 9/3/1
f 2/2/1 10/4/1 9/3/1
f 2/2/1 4/5/1 10/4/1
f 4/5/1 12/6/1 10/4/1
f 4/5/1 3/7/1 12/6/1
f 3/7/1 11/8/1 12/6/1
f 3/7/1 1/1/1 11/8/1
f 1/1/1 9/3/1 11/8/1
f 13/3/2 6/2/2 5/1/2
f 13/3/2 14/4/2 6/2/2
f 14/4/2 8/5/2 6/2/2
f 14/4/2 16/6/2 8/5/2
f 16/6/2 7/7/2 8/5/2
f 16/6/2 15/8/2 7/7/2
f 15/8/2 5/1/2 7/7/2
f 15/8/2 13/3/2 5/1/2
f 1/9/3 5/10/3 6/11/3
f 1/9/3 6/11/3 2/12/3
f 2/13/4 6/14/4 8/15/4
f 2/13/4 8/15/4 4/16/4
f 4/17/5 8/18/5 7/19/5
f 4/17/5 7/19/5 3/20/5
f 3/21/6 7/22/6 5/23/6
f 3/21/6 5/23/6 1/24/6
f 14/25/5 13/26/5 9/27/5
f 10/28/5 14/25/5 9/27/5
f 16/29/6 14/30/6 10/31/6
f 12/32/6 16/29/6 10/31/6
f 15/33/3 16/34/3 12/35/3
f 11/36/3 15/33/3 12/35/3
f 13/37/4 15/38/4 11/39/4
f 9/40/4 13/37/4 11/39/4
