# Blender 3.6.0
# www.blender.org
o wall|2|4.96|0.00|4.96|4.96
v 4.965000 0.000000 0.000000
v 4.965000 0.000000 4.965000
v 4.965000 3.814400 -0.000000
v 4.965000 3.814400 4.965000
v 4.960000 0.000000 0.000000
v 4.960000 0.000000 4.965000
v 4.960000 3.814400 -0.000000
v 4.960000 3.814400 4.965000
v 4.965000 0.000000 0.547922
v 4.965000 0.000000 2.495340
v 4.965000 2.097130 0.547922
v 4.965000 2.097130 2.495340
v 4.960000 0.000000 0.547922
v 4.960000 0.000000 2.495340
v 4.960000 2.097130 0.547922
v 4.960000 2.097130 2.495340
vn -0.0000 -0.0000 1.0000
vn 0.2425 -0.0000 -0.9701
vn -1.0000 -0.0000 -0.0000
vn -0.0000 -0.0000 -1.0000
vn 1.0000 -0.0000 -0.0000
vn -0.0000 1.0000 -0.0000
vn -0.0000 -1.0000 -0.0000
vt 0.502500 2.982500
vt 0.502500 -1.982500
vt 0.502500 2.434578
vt 0.502500 0.487160
vt -1.982500 -1.407200
vt -1.982500 2.407200
vt 0.487160 -1.407200
vt 0.487160 0.689930
vt 2.982500 2.407200
vt 2.434578 0.689930
vt 2.982500 -1.407200
vt 2.434578 -1.407200
vt 0.497500 2.434578
vt 0.497500 -1.982500
vt 0.497500 2.982500
vt 0.497500 0.487160
vt 0.502500 -1.407200
vt 0.497500 -1.407200
vt 0.497500 2.407200
vt 0.502500 2.407200
vt 0.502500 -1.982500
vt 0.497500 -1.982500
vt 0.497500 2.982500
vt 0.502500 2.982500
vt 0.502500 2.407200
vt 0.497500 2.407200
vt 0.497500 -1.407200
vt 0.502500 -1.407200
s 0
f 1/1/1 2/2/1 9/3/1
f 2/2/2 10/4/2 9/3/2
f 2/5/3 4/6/3 10/7/3
f 4/6/3 12/8/3 10/7/3
f 4/6/3 3/9/3 12/8/3
f 3/9/3 11/10/3 12/8/3
f 3/9/3 1/11/3 11/10/3
f 1/11/3 9/12/3 11/10/3
f 13/13/4 6/14/4 5/15/4
f 13/13/1 14/16/1 6/14/1
f 14/7/5 8/6/5 6/5/5
f 14/7/5 16/8/5 8/6/5
f 16/8/5 7/9/5 8/6/5
f 16/8/5 15/10/5 7/9/5
f 15/10/5 5/11/5 7/9/5
f 15/10/5 13/12/5 5/11/5
f 1/1/6 5/15/6 13/13/6
f 1/1/6 13/13/6 9/3/6
f 10/4/6 14/16/6 6/14/6
f 10/4/6 6/14/6 2/2/6
f 2/17/4 6/18/4 8/19/4
f 2/17/4 8/19/4 4/20/4
f 4/21/7 8/22/7 7/23/7
f 4/21/7 7/23/7 3/24/7
f 3/25/1 7/26/1 5/27/1
f 3/25/1 5/27/1 1/28/1
