# Blender 3.6.0
# www.blender.org
o wall|exterior|4.96|0.00|4.96|4.96
v 4.965000 0.000000 0.000000
v 4.965000 0.000000 4.965000
v 4.965000 3.814400 -0.000000
v 4.965000 3.814400 4.965000
v 4.970000 0.000000 0.000000
v 4.970000 0.000000 4.965000
v 4.970000 3.814400 -0.000000
v 4.970000 3.814400 4.965000
v 4.965000 0.000000 0.547922
v 4.965000 0.000000 2.495340
v 4.965000 2.097130 0.547922
v 4.965000 2.097130 2.495340
v 4.970000 0.000000 0.547922
v 4.970000 0.000000 2.495340
v 4.970000 2.097130 0.547922
v 4.970000 2.097130 2.495340
vn -0.0000 -0.0000 -1.0000
vn -0.0000 -0.0000 1.0000
vn 1.0000 -0.0000 -0.0000
vn 0.4472 -0.0000 -0.8944
vn -1.0000 -0.0000 -0.0000
vn -0.0000 1.0000 -0.0000
vn -0.0000 -1.0000 -0.0000
vt 0.497500 2.434578
vt 0.497500 -1.982500
vt 0.497500 2.982500
vt 0.497500 0.487160
vt 0.487160 -1.407200
vt -1.982500 2.407200
vt -1.982500 -1.407200
vt 0.487160 0.689930
vt 2.982500 2.407200
vt 2.434578 0.689930
vt 2.982500 -1.407200
vt 2.434578 -1.407200
vt 0.502500 2.982500
vt 0.502500 -1.982500
vt 0.502500 2.434578
vt 0.502500 0.487160
vt 0.502500 2.407200
vt 0.502500 -1.407200
vt 0.497500 -1.407200
vt 0.497500 2.407200
vt 0.502500 2.982500
vt 0.502500 -1.982500
vt 0.497500 -1.982500
vt 0.497500 2.982500
vt 0.502500 -1.407200
vt 0.502500 2.407200
vt 0.497500 2.407200
vt 0.497500 -1.407200
s 0
f 9/1/1 2/2/1 1/3/1
f 9/1/2 10/4/2 2/2/2
f 10/5/3 4/6/3 2/7/3
f 10/5/3 12/8/3 4/6/3
f 12/8/3 3/9/3 4/6/3
f 12/8/3 11/10/3 3/9/3
f 11/10/3 1/11/3 3/9/3
f 11/10/3 9/12/3 1/11/3
f 5/13/2 6/14/2 13/15/2
f 6/14/4 14/16/4 13/15/4
f 6/7/5 8/6/5 14/5/5
f 8/6/5 16/8/5 14/5/5
f 8/6/5 7/9/5 16/8/5
f 7/9/5 15/10/5 16/8/5
f 7/9/5 5/11/5 15/10/5
f 5/11/5 13/12/5 15/10/5
f 13/15/6 5/13/6 1/3/6
f 9/1/6 13/15/6 1/3/6
f 6/14/6 14/16/6 10/4/6
f 2/2/6 6/14/6 10/4/6
f 8/17/1 6/18/1 2/19/1
f 4/20/1 8/17/1 2/19/1
f 7/21/7 8/22/7 4/23/7
f 3/24/7 7/21/7 4/23/7
f 5/25/2 7/26/2 3/27/2
f 1/28/2 5/25/2 3/27/2
