mtllib material.mtl
usemtl material_0
v 0.57813080 -1.00803700 -0.38797300
v 0.57813080 -1.00803700 -0.38798280
v 0.57814210 -1.00803700 -0.38798280
v 0.57814210 -1.00803700 -0.38797300
v 0.17563110 0.08409508 0.05274719
v 0.18786800 0.09865028 0.05421020
v 0.18786800 0.08409508 0.05421020
v 0.17563110 0.09865028 0.05274719
v 0.16339390 0.08409508 0.05421020
v 0.16339390 0.09865028 0.05421020
v 0.10060730 0.24900060 0.10087100
v 0.10058410 0.30491600 0.10087100
v 0.34062440 0.30483270 0.10086910
v 0.34064820 0.24891730 0.10086910
v 0.17479310 0.23357400 0.10151000
v 0.17479310 0.24500470 0.10151000
v 0.20384310 0.24500470 0.10151000
v 0.20384310 0.23357400 0.10151000
v 0.16443120 0.24538750 0.10151000
v 0.16443120 0.23376860 0.10151000
v 0.13411620 0.23376860 0.10151000
v 0.13411620 0.24538750 0.10151000
v 0.12641810 0.24523770 0.10151000
v 0.12641810 0.23361900 0.10151000
v 0.08843566 0.23361900 0.10151000
v 0.08843566 0.24523770 0.10151000
v 0.10947600 0.25596030 0.10213260
v 0.10947600 0.29774300 0.10213260
v 0.20091430 0.29774300 0.10213260
v 0.20091430 0.25596030 0.10213260
v 0.24223690 0.30026270 0.10213260
v 0.33367520 0.30026270 0.10213260
v 0.33367520 0.25590690 0.10213260
v 0.24223690 0.25590690 0.10213260
v 0.25957520 0.23405550 0.10151000
v 0.25957520 0.24411840 0.10151000
v 0.28964170 0.24411840 0.10151000
v 0.28964170 0.23405550 0.10151000
v 0.22420530 0.23405550 0.10151000
v 0.22420530 0.24411840 0.10151000
v 0.24043090 0.24411840 0.10151000
v 0.24043090 0.23405550 0.10151000
v 0.25675540 0.08409515 0.05257568
v 0.27331790 0.09865028 0.05536499
v 0.27331790 0.08409515 0.05536499
v 0.25675540 0.09865028 0.05257568
v 0.24019290 0.08409515 0.05536499
v 0.24019290 0.09865028 0.05536499
v 0.31904080 0.23382360 0.10151000
v 0.31904080 0.24509850 0.10151000
v 0.33162630 0.24509850 0.10151000
v 0.33162630 0.23382360 0.10151000
vn 0.00000000 1.00000000 0.00000000
vn 0.00000000 1.00000000 0.00000000
vn 0.00000000 1.00000000 0.00000000
vn 0.00000000 1.00000000 0.00000000
vn 0.00000000 0.00000000 1.00000000
vn -0.11871230 0.00000000 0.99292870
vn -0.11871230 0.00000000 0.99292870
vn 0.00000000 0.00000000 1.00000000
vn 0.11870830 0.00000000 0.99292920
vn 0.11870830 0.00000000 0.99292920
vn 0.00000750 0.00000000 1.00000000
vn 0.00000750 0.00000000 1.00000000
vn 0.00000750 0.00000000 1.00000000
vn 0.00000750 0.00000000 1.00000000
vn 0.00000000 0.00000000 1.00000000
vn 0.00000000 0.00000000 1.00000000
vn 0.00000000 0.00000000 1.00000000
vn 0.00000000 0.00000000 1.00000000
vn 0.00000000 0.00000000 1.00000000
vn 0.00000000 0.00000000 1.00000000
vn 0.00000000 0.00000000 1.00000000
vn 0.00000000 0.00000000 1.00000000
vn 0.00000000 0.00000000 1.00000000
vn 0.00000000 0.00000000 1.00000000
vn 0.00000000 0.00000000 1.00000000
vn 0.00000000 0.00000000 1.00000000
vn 0.00000000 0.00000000 1.00000000
vn 0.00000000 0.00000000 1.00000000
vn 0.00000000 0.00000000 1.00000000
vn 0.00000000 0.00000000 1.00000000
vn 0.00000000 0.00000000 1.00000000
vn 0.00000000 0.00000000 1.00000000
vn 0.00000000 0.00000000 1.00000000
vn 0.00000000 0.00000000 1.00000000
vn 0.00000000 0.00000000 1.00000000
vn 0.00000000 0.00000000 1.00000000
vn 0.00000000 0.00000000 1.00000000
vn 0.00000000 0.00000000 1.00000000
vn 0.00000000 0.00000000 1.00000000
vn 0.00000000 0.00000000 1.00000000
vn 0.00000000 0.00000000 1.00000000
vn 0.00000000 0.00000000 1.00000000
vn 0.00000000 0.00000000 1.00000000
vn -0.16607240 0.00000000 0.98611360
vn -0.16607240 0.00000000 0.98611360
vn 0.00000000 0.00000000 1.00000000
vn 0.16607240 0.00000000 0.98611360
vn 0.16607240 0.00000000 0.98611360
vn 0.00000000 0.00000000 1.00000000
vn 0.00000000 0.00000000 1.00000000
vn 0.00000000 0.00000000 1.00000000
vn 0.00000000 0.00000000 1.00000000
vt -5.25307500 -117.71080000
vt -5.25307500 -115.99920000
vt -3.54152000 -115.99920000
vt -3.54152000 -117.71080000
vt 0.06746458 0.20024930
vt 0.14783520 0.29616250
vt 0.14783460 0.20025090
vt 0.06746454 0.29616500
vt -0.01290759 0.20025060
vt -0.01290823 0.29616260
vt 0.90212730 0.90125030
vt 0.90212730 0.99949510
vt 1.00051900 0.99934860
vt 1.00051900 0.90110420
vt 0.00169065 0.89687290
vt 0.00169065 1.00210700
vt 0.26198390 1.00210700
vt 0.26198390 0.89687290
vt 0.63609370 0.89886930
vt 0.63609370 0.79667380
vt 0.36943380 0.79667380
vt 0.36943380 0.89886930
vt 0.33257380 0.89820530
vt 0.33257380 0.79733840
vt 0.00169065 0.79733840
vt 0.00169065 0.89820530
vt 0.77863470 -0.00222676
vt 0.77863470 0.09913757
vt 1.00487300 0.09913757
vt 1.00487300 -0.00222676
vt 0.77863480 0.20630760
vt 1.00487300 0.20630760
vt 1.00487300 0.09913757
vt 0.77863480 0.09913757
vt 0.69289680 0.50366320
vt 0.69289680 0.59946710
vt 0.97571070 0.59946710
vt 0.97571070 0.50366320
vt 0.81407620 0.30603030
vt 0.81407620 0.40672510
vt 0.97644440 0.40672510
vt 0.97644440 0.30603030
vt 0.11908190 0.89715270
vt 0.23936440 1.00226700
vt 0.23936420 0.89715370
vt 0.11908190 1.00226700
vt 0.00169065 0.89715190
vt 0.00169065 1.00226500
vt 0.89664040 0.80740760
vt 0.89664040 0.89517410
vt 0.99461410 0.89517420
vt 0.99461410 0.80740760
f 3/3/3 2/2/2 1/1/1
f 4/4/4 3/3/3 1/1/1
f 7/7/7 6/6/6 5/5/5
f 6/6/6 8/8/8 5/5/5
f 5/5/5 8/8/8 9/9/9
f 8/8/8 10/10/10 9/9/9
f 13/13/13 12/12/12 11/11/11
f 14/14/14 13/13/13 11/11/11
f 17/17/17 16/16/16 15/15/15
f 18/18/18 17/17/17 15/15/15
f 21/21/21 20/20/20 19/19/19
f 22/22/22 21/21/21 19/19/19
f 25/25/25 24/24/24 23/23/23
f 26/26/26 25/25/25 23/23/23
f 29/29/29 28/28/28 27/27/27
f 30/30/30 29/29/29 27/27/27
f 33/33/33 32/32/32 31/31/31
f 34/34/34 33/33/33 31/31/31
f 37/37/37 36/36/36 35/35/35
f 38/38/38 37/37/37 35/35/35
f 41/41/41 40/40/40 39/39/39
f 42/42/42 41/41/41 39/39/39
f 45/45/45 44/44/44 43/43/43
f 44/44/44 46/46/46 43/43/43
f 43/43/43 46/46/46 47/47/47
f 46/46/46 48/48/48 47/47/47
f 51/51/51 50/50/50 49/49/49
f 52/52/52 51/51/51 49/49/49

