mtllib material.mtl
usemtl material_0
v 0.01026934 0.08192871 0.08336978
v 0.47179960 0.08298741 0.08336978
v 0.01026934 -0.09952869 0.08336978
v 0.47179960 -0.10058740 0.08336978
v 0.01026934 0.08192871 0.08300631
v 0.47179960 0.08298741 0.08300631
v 0.01026934 -0.09952869 0.08300631
v 0.47179960 -0.10058740 0.08300631
vn 0.00000000 0.00000000 1.00000000
vn 0.00000000 0.00000000 1.00000000
vn 0.00000000 0.00000000 1.00000000
vn 0.00000000 0.00000000 1.00000000
vn 0.00000000 0.00000000 -1.00000000
vn 0.00000000 0.00000000 -1.00000000
vn 0.00000000 0.00000000 -1.00000000
vn 0.00000000 0.00000000 -1.00000000
vt 8.39057400 3.18865500
vt 8.39057400 -1.31847700
vt 6.60819100 3.18865500
vt 6.60819100 -1.31847700
vt 6.60819100 3.18865600
vt 6.60819100 -1.31847700
vt 8.39057400 3.18865600
vt 8.39057400 -1.31847700
f 4/4/4 2/2/2 1/1/1
f 3/3/3 4/4/4 1/1/1
f 7/7/7 5/5/5 6/6/6
f 8/8/8 7/7/7 6/6/6

