mtllib material.mtl
usemtl material_0
v 0.00410835 0.00739826 0.03915039
v 0.00277477 0.00622854 0.03701075
v 0.00277477 0.00614124 0.03909767
v 0.00339332 0.00945018 0.05672129
v 0.00380268 0.00813120 0.05708239
v 0.00339331 0.00681254 0.05744333
v 0.00222753 0.01056834 0.05641533
v 0.00222752 0.00569438 0.05774940
v 0.00048277 0.01131542 0.05621084
v 0.00048275 0.00494731 0.05795389
v -0.00157530 0.01157757 0.05613909
v -0.00157532 0.00468486 0.05802573
v -0.00363338 0.01131543 0.05621084
v -0.00363340 0.00494732 0.05795389
v -0.00537812 0.01056836 0.05641533
v -0.00537813 0.00569440 0.05774940
v -0.00654392 0.00945020 0.05672141
v -0.00654393 0.00681257 0.05744333
v -0.00695332 0.00813123 0.05708239
v -0.00725906 0.01818412 -0.14720860
v -0.00592546 0.01960076 -0.15096390
v -0.00592546 0.01944144 -0.14715590
v -0.00725906 0.01834405 -0.15101660
v -0.00573204 0.01951837 -0.15190830
v -0.00700635 0.01831751 -0.15195860
v -0.00592546 0.01960076 -0.15096390
v -0.00573204 0.01951837 -0.15190830
v -0.00382493 0.02032098 -0.15187460
v -0.00392961 0.02044091 -0.15092870
v -0.00592546 0.01944144 -0.14715590
v -0.00157535 0.02060295 -0.15186280
v -0.00392961 0.02028128 -0.14712060
v -0.00592542 0.01170829 0.03724048
v -0.00157535 0.02073570 -0.15091630
v 0.00067424 0.02032096 -0.15187460
v -0.00392958 0.01254813 0.03727572
v -0.00592541 0.01162070 0.03932748
v -0.00392955 0.01246054 0.03936278
v -0.00157535 0.02057607 -0.14710830
v 0.00077891 0.02044090 -0.15092870
v 0.00258134 0.01951835 -0.15190830
v 0.00277474 0.01960074 -0.15096390
v -0.00157530 0.01284292 0.03728812
v -0.00157530 0.01275533 0.03937509
v 0.00077891 0.02028127 -0.14712060
v 0.00277474 0.01944111 -0.14715590
v 0.00077895 0.01254812 0.03727572
v 0.00077895 0.01246052 0.03936278
v 0.00277480 0.01170827 0.03724048
v 0.00277480 0.01162067 0.03932748
v 0.00277474 0.01960074 -0.15096390
v 0.00258134 0.01951835 -0.15190830
v 0.00385564 0.01831748 -0.15195860
v 0.00410832 0.01834402 -0.15101660
v 0.00430308 0.01690055 -0.15201810
v 0.00457662 0.01686117 -0.15107880
v 0.00277474 0.01944111 -0.14715590
v 0.00410832 0.01818409 -0.14720860
v 0.00277480 0.01170827 0.03724048
v 0.00410839 0.01045094 0.03718775
v -0.00725901 0.01036368 0.03927476
v -0.00592542 0.01170829 0.03724048
v -0.00592541 0.01162070 0.03932748
v -0.00725901 0.01045097 0.03718775
v -0.00592546 0.01944144 -0.14715590
v -0.00772732 0.00888083 0.03921264
v -0.00725906 0.01818412 -0.14720860
v -0.00772732 0.00896843 0.03712559
v -0.00725902 0.00739829 0.03915039
v -0.00725902 0.00748558 0.03706343
v -0.00772735 0.01670158 -0.14727070
v -0.00725906 0.01834405 -0.15101660
v -0.00725907 0.01521873 -0.14733290
v -0.00772735 0.01686121 -0.15107880
v -0.00700635 0.01831751 -0.15195860
v -0.00745383 0.01690058 -0.15201800
v -0.00725907 0.01537866 -0.15114100
v -0.00592549 0.01396171 -0.14738560
v -0.00700636 0.01548395 -0.15207750
v -0.00592549 0.01412164 -0.15119370
v -0.00573205 0.01428278 -0.15212780
v 0.00277480 0.01162067 0.03932748
v 0.00277480 0.01170827 0.03724048
v 0.00410839 0.01045094 0.03718775
v 0.00410839 0.01036365 0.03927476
v 0.00457668 0.00896840 0.03712559
v 0.00457668 0.00888080 0.03921264
v 0.00457662 0.01670155 -0.14727070
v 0.00410832 0.01818409 -0.14720860
v 0.00457662 0.01686117 -0.15107880
v 0.00410835 0.00748555 0.03706343
v 0.00410835 0.00739826 0.03915039
v 0.00277477 0.00622854 0.03701075
v 0.00277473 0.01396168 -0.14738560
v 0.00410831 0.01521870 -0.14733290
v 0.00277473 0.01412162 -0.15119370
v 0.00410830 0.01537863 -0.15114100
v 0.00258132 0.01428275 -0.15212780
v 0.00385563 0.01548392 -0.15207750
v 0.00430308 0.01690055 -0.15201810
v 0.00277473 0.01412162 -0.15119370
v 0.00258132 0.01428275 -0.15212780
v 0.00067421 0.01348045 -0.15216150
v 0.00077888 0.01328178 -0.15122890
v 0.00277473 0.01396168 -0.14738560
v -0.00157538 0.01319817 -0.15217330
v 0.00077888 0.01312185 -0.14742090
v 0.00277477 0.00622854 0.03701075
v -0.00157538 0.01298668 -0.15124130
v -0.00382498 0.01348046 -0.15216150
v 0.00077893 0.00538870 0.03697548
v 0.00277477 0.00614124 0.03909767
v 0.00077893 0.00530141 0.03906249
v -0.00392964 0.01328179 -0.15122890
v -0.00573205 0.01428278 -0.15212780
v -0.00592549 0.01412164 -0.15119370
v -0.00157537 0.01282705 -0.14743320
v -0.00157533 0.00509390 0.03696307
v -0.00157533 0.00500631 0.03905009
v -0.00392964 0.01312186 -0.14742090
v -0.00592549 0.01396171 -0.14738560
v -0.00392960 0.00538871 0.03697548
v -0.00392960 0.00530142 0.03906249
v -0.00592544 0.00622856 0.03701075
v -0.00592544 0.00614127 0.03909767
v -0.00592544 0.00622856 0.03701075
v -0.00592549 0.01396171 -0.14738560
v -0.00725907 0.01521873 -0.14733290
v -0.00725902 0.00748558 0.03706343
v -0.00592544 0.00614127 0.03909767
v -0.00725902 0.00739829 0.03915039
v 0.00385563 0.01548392 -0.15207750
v 0.00430308 0.01690055 -0.15201810
v 0.00385564 0.01831748 -0.15195860
v 0.00258134 0.01951835 -0.15190830
v 0.00258132 0.01428275 -0.15212780
v 0.00067424 0.02032096 -0.15187460
v 0.00067421 0.01348045 -0.15216150
v -0.00157535 0.02060295 -0.15186280
v -0.00157538 0.01319817 -0.15217330
v -0.00382493 0.02032098 -0.15187460
v -0.00382498 0.01348046 -0.15216150
v -0.00573204 0.01951837 -0.15190830
v -0.00573205 0.01428278 -0.15212780
v -0.00700635 0.01831751 -0.15195860
v -0.00700636 0.01548395 -0.15207750
v -0.00745383 0.01690058 -0.15201800
v 0.00222750 0.00648579 0.03911214
v 0.00277477 0.00614124 0.03909767
v 0.00077893 0.00530141 0.03906249
v 0.00048275 0.00575154 0.03908134
v 0.00339330 0.00758442 0.03915826
v -0.00157533 0.00500631 0.03905009
v 0.00410835 0.00739826 0.03915039
v -0.00157533 0.00549398 0.03907055
v 0.00380265 0.00888080 0.03921264
v -0.00392960 0.00530142 0.03906249
v 0.00457668 0.00888080 0.03921264
v -0.00363340 0.00575155 0.03908134
v 0.00339332 0.01017689 0.03926703
v -0.00592544 0.00614127 0.03909767
v 0.00410839 0.01036365 0.03927476
v -0.00537813 0.00648581 0.03911214
v 0.00222753 0.01127583 0.03931303
v -0.00725902 0.00739829 0.03915039
v 0.00277480 0.01162067 0.03932748
v -0.00654393 0.00758445 0.03915826
v 0.00048276 0.01201008 0.03934381
v -0.00772732 0.00888083 0.03921264
v 0.00077895 0.01246052 0.03936278
v -0.00695332 0.00888083 0.03921264
v -0.00157530 0.01226796 0.03935466
v -0.00725901 0.01036368 0.03927476
v -0.00157530 0.01275533 0.03937509
v -0.00654392 0.01017691 0.03926703
v -0.00363338 0.01201009 0.03934381
v -0.00592541 0.01162070 0.03932748
v -0.00392955 0.01246054 0.03936278
v -0.00537812 0.01127585 0.03931303
vn 0.48249620 -0.31678890 -0.01324939
vn 0.30787100 -0.48798560 -0.02046458
vn 0.30786980 -0.48798500 -0.02049663
vn 0.48678040 0.30336620 0.06593257
vn 0.57620940 -0.02998026 0.02042557
vn -0.00000861 0.15243200 0.55686430
vn 0.29560350 0.47775650 0.13304400
vn -0.00000541 0.15242460 0.55686630
vn 0.13251530 0.53332260 0.17703120
vn -0.00000620 0.15241930 0.55686780
vn -0.00013222 0.54302150 0.19611470
vn -0.00000447 0.15242120 0.55686730
vn -0.13064630 0.52913980 0.19046220
vn 0.00000247 0.15243210 0.55686430
vn -0.28858610 0.47396630 0.15939660
vn -0.00000332 0.15243470 0.55686350
vn -0.47814470 0.30753240 0.10067160
vn 0.00000777 0.15242980 0.55686500
vn -0.57621980 -0.03010797 0.01994029
vn -0.48251020 0.31676610 0.01328440
vn -0.30894740 0.48771890 -0.00388586
vn -0.30790220 0.48796600 0.02046278
vn -0.48292380 0.31603380 -0.01551133
vn -0.05503473 0.11259860 -0.56358340
vn -0.13837200 0.11570340 -0.54845180
vn -0.30894740 0.48771890 -0.00388586
vn -0.05503473 0.11259860 -0.56358340
vn -0.02106088 0.10550500 -0.56723770
vn -0.14660590 0.55842260 0.00205241
vn -0.30790220 0.48796600 0.02046278
vn -0.00017388 0.10548000 -0.56763320
vn -0.14583390 0.55813780 0.02340650
vn -0.30790230 0.48796590 0.02046406
vn -0.00022798 0.57733790 0.00375446
vn 0.02297389 0.11463220 -0.56538930
vn -0.14583300 0.55813810 0.02340708
vn -0.30786630 0.48798610 0.02052188
vn -0.14583650 0.55813530 0.02345143
vn 0.00000157 0.57684310 0.02419166
vn 0.14612130 0.55854980 0.00202058
vn 0.06884142 0.13607630 -0.55684600
vn 0.30841030 0.48805910 -0.00384189
vn 0.00000157 0.57684320 0.02419032
vn 0.00000216 0.57684340 0.02418745
vn 0.14587410 0.55812740 0.02340697
vn 0.30790560 0.48796380 0.02046386
vn 0.14583750 0.55813690 0.02340517
vn 0.14583840 0.55813680 0.02340625
vn 0.30790270 0.48796560 0.02046334
vn 0.30788530 0.48797390 0.02052744
vn 0.30841030 0.48805910 -0.00384189
vn 0.06884142 0.13607630 -0.55684600
vn 0.20957280 0.16427970 -0.51227420
vn 0.48248140 0.31671270 -0.01543397
vn 0.40662740 0.01907041 -0.40941890
vn 0.57649620 0.00179001 -0.03134160
vn 0.30790560 0.48796380 0.02046386
vn 0.48249440 0.31679020 0.01328522
vn 0.30790270 0.48796560 0.02046334
vn 0.48250950 0.31676710 0.01328437
vn -0.48251180 0.31676520 0.01324550
vn -0.30790230 0.48796590 0.02046406
vn -0.30786630 0.48798610 0.02052188
vn -0.48250790 0.31676960 0.01328404
vn -0.30790220 0.48796600 0.02046278
vn -0.57735030 -0.00000424 -0.00000665
vn -0.48251020 0.31676610 0.01328440
vn -0.57735030 0.00000029 0.00000016
vn -0.48250560 -0.31677030 -0.01335006
vn -0.48250860 -0.31676850 -0.01328458
vn -0.57735030 -0.00000214 0.00000043
vn -0.48292380 0.31603380 -0.01551133
vn -0.48251220 -0.31676300 -0.01328507
vn -0.57649620 0.00083155 -0.03138281
vn -0.13837200 0.11570340 -0.54845180
vn -0.40665120 0.01527280 -0.40955460
vn -0.48248090 -0.31430610 -0.04191951
vn -0.30787300 -0.48798430 -0.02046524
vn -0.20952580 -0.12077950 -0.52425630
vn -0.30841270 -0.48602610 -0.04464912
vn -0.06885048 -0.08899226 -0.56628020
vn 0.30788530 0.48797390 0.02052744
vn 0.30790270 0.48796560 0.02046334
vn 0.48250950 0.31676710 0.01328437
vn 0.48249910 0.31678060 0.01334388
vn 0.57735030 -0.00000975 -0.00000080
vn 0.57735030 -0.00000933 -0.00001467
vn 0.57735030 0.00000198 -0.00000020
vn 0.48249440 0.31679020 0.01328522
vn 0.57649620 0.00179001 -0.03134160
vn 0.48250550 -0.31677340 -0.01328351
vn 0.48249620 -0.31678890 -0.01324939
vn 0.30787100 -0.48798560 -0.02046458
vn 0.30787040 -0.48798590 -0.02046576
vn 0.48250910 -0.31676760 -0.01328530
vn 0.30893200 -0.48568870 -0.04473008
vn 0.48293330 -0.31361440 -0.04188948
vn 0.05503896 -0.06501964 -0.57103110
vn 0.13837520 -0.06937401 -0.55621300
vn 0.40662740 0.01907041 -0.40941890
vn 0.30893200 -0.48568870 -0.04473008
vn 0.05503896 -0.06501964 -0.57103110
vn 0.02105549 -0.05762467 -0.57408140
vn 0.14661410 -0.55662360 -0.04480852
vn 0.30787040 -0.48798590 -0.02046576
vn 0.00017258 -0.05760288 -0.57446960
vn 0.14583480 -0.55813770 -0.02340676
vn 0.30787100 -0.48798560 -0.02046458
vn 0.00021743 -0.57562970 -0.04453823
vn -0.02297058 -0.06688651 -0.57300260
vn 0.14583550 -0.55813750 -0.02340694
vn 0.30786980 -0.48798500 -0.02049663
vn 0.14585210 -0.55813490 -0.02336420
vn -0.14611090 -0.55676030 -0.04475467
vn -0.06885048 -0.08899226 -0.56628020
vn -0.30841270 -0.48602610 -0.04464912
vn -0.00000182 -0.57684310 -0.02419220
vn -0.00000137 -0.57684320 -0.02419080
vn 0.00001839 -0.57684850 -0.02406350
vn -0.14583630 -0.55813720 -0.02340840
vn -0.30787300 -0.48798430 -0.02046524
vn -0.14583880 -0.55813670 -0.02340494
vn -0.14587580 -0.55813570 -0.02319617
vn -0.30787230 -0.48798480 -0.02046395
vn -0.30787470 -0.48798390 -0.02045056
vn -0.30787230 -0.48798480 -0.02046395
vn -0.30787300 -0.48798430 -0.02046524
vn -0.48251220 -0.31676300 -0.01328507
vn -0.48250860 -0.31676850 -0.01328458
vn -0.30787470 -0.48798390 -0.02045056
vn -0.48250560 -0.31677030 -0.01335006
vn 0.13837520 -0.06937401 -0.55621300
vn 0.40662740 0.01907041 -0.40941890
vn 0.20957280 0.16427970 -0.51227420
vn 0.06884142 0.13607630 -0.55684600
vn 0.05503896 -0.06501964 -0.57103110
vn 0.02297389 0.11463220 -0.56538930
vn 0.02105549 -0.05762467 -0.57408140
vn -0.00017388 0.10548000 -0.56763320
vn 0.00017258 -0.05760288 -0.57446960
vn -0.02106088 0.10550500 -0.56723770
vn -0.02297058 -0.06688651 -0.57300260
vn -0.05503473 0.11259860 -0.56358340
vn -0.06885048 -0.08899226 -0.56628020
vn -0.13837200 0.11570340 -0.54845180
vn -0.20952580 -0.12077950 -0.52425630
vn -0.40665120 0.01527280 -0.40955460
vn -0.00000611 -0.02420360 0.57684280
vn -0.00000038 -0.02421627 0.57684220
vn -0.00000430 -0.02417903 0.57684380
vn -0.00000670 -0.02417912 0.57684380
vn 0.00006251 -0.02422269 0.57684200
vn 0.00000223 -0.02420857 0.57684260
vn 0.00005887 -0.02421864 0.57684220
vn 0.00000307 -0.02420184 0.57684280
vn 0.00001063 -0.02420721 0.57684270
vn 0.00000529 -0.02415433 0.57684490
vn 0.00001344 -0.02420109 0.57684280
vn 0.00000331 -0.02414110 0.57684540
vn 0.00003983 -0.02412323 0.57684620
vn -0.00000676 -0.02419993 0.57684290
vn 0.00005731 -0.02415018 0.57684500
vn -0.00001464 -0.02420727 0.57684270
vn 0.00001406 -0.02419947 0.57684290
vn -0.00006369 -0.02424062 0.57684120
vn 0.00001636 -0.02421486 0.57684230
vn -0.00005611 -0.02424764 0.57684090
vn -0.00001393 -0.02430367 0.57683850
vn -0.00001389 -0.02418793 0.57684340
vn -0.00001715 -0.02428645 0.57683930
vn -0.00001056 -0.02418317 0.57684360
vn -0.00001206 -0.02417088 0.57684420
vn -0.00006974 -0.02416218 0.57684450
vn -0.00000969 -0.02416906 0.57684420
vn -0.00007316 -0.02416039 0.57684460
vn 0.00002539 -0.02427412 0.57683980
vn 0.00001140 -0.02418506 0.57684360
vn 0.00002150 -0.02427349 0.57683980
vn 0.00002026 -0.02420648 0.57684270
vt 0.07804844 0.46511930
vt 0.07674778 0.46274020
vt 0.07665066 0.46506070
vt 0.17484700 0.94282890
vt 0.17350400 0.94241210
vt 0.17216130 0.94282890
vt 0.17598570 0.94401600
vt 0.17102260 0.94401600
vt 0.17674640 0.94579260
vt 0.17026210 0.94579260
vt 0.17701320 0.94788830
vt 0.16999470 0.94788830
vt 0.17674640 0.94998390
vt 0.17026210 0.94998390
vt 0.17598570 0.95176040
vt 0.17102260 0.95176040
vt 0.17484700 0.95294760
vt 0.17216130 0.95294760
vt 0.17350400 0.95336440
vt 0.02100288 0.25791160
vt 0.01942779 0.25373610
vt 0.01960491 0.25797020
vt 0.02082517 0.25367750
vt 0.01951946 0.25268600
vt 0.02085469 0.25263010
vt 0.13675280 0.26178730
vt 0.13655520 0.26082230
vt 0.13460630 0.26085660
vt 0.13471330 0.26182330
vt 0.13675280 0.26567880
vt 0.13230750 0.26086870
vt 0.13471330 0.26571480
vt 0.13675280 0.45411310
vt 0.13230750 0.26183590
vt 0.13000860 0.26085660
vt 0.13471330 0.45414910
vt 0.13675280 0.45624580
vt 0.13471320 0.45628190
vt 0.13230750 0.26572740
vt 0.12990160 0.26182330
vt 0.12805970 0.26082230
vt 0.12786210 0.26178730
vt 0.13230740 0.45416180
vt 0.13230740 0.45629440
vt 0.12990160 0.26571480
vt 0.12786210 0.26567880
vt 0.12990160 0.45414910
vt 0.12990160 0.45628190
vt 0.12786210 0.45411310
vt 0.12786210 0.45624580
vt 0.09161498 0.25373610
vt 0.09152331 0.25268600
vt 0.09018808 0.25263010
vt 0.09021760 0.25367750
vt 0.08861260 0.25256400
vt 0.08856890 0.25360830
vt 0.09143747 0.25797020
vt 0.09003989 0.25791160
vt 0.08284051 0.46299570
vt 0.08144255 0.46293710
vt 0.02969733 0.46525760
vt 0.02820226 0.46299580
vt 0.02829956 0.46531630
vt 0.02960022 0.46293710
vt 0.01960491 0.25797020
vt 0.03134603 0.46518850
vt 0.02100288 0.25791160
vt 0.03124873 0.46286800
vt 0.03299434 0.46511930
vt 0.03289742 0.46279880
vt 0.02265138 0.25784240
vt 0.02082517 0.25367750
vt 0.02430008 0.25777330
vt 0.02247386 0.25360830
vt 0.02085469 0.25263010
vt 0.02243017 0.25256400
vt 0.02412237 0.25353920
vt 0.02569765 0.25771460
vt 0.02400526 0.25249800
vt 0.02551994 0.25348050
vt 0.02534088 0.25244190
vt 0.08274321 0.46531620
vt 0.08284051 0.46299570
vt 0.08144255 0.46293710
vt 0.08134544 0.46525760
vt 0.07979404 0.46286790
vt 0.07969674 0.46518840
vt 0.08839139 0.25784250
vt 0.09003989 0.25791160
vt 0.08856890 0.25360830
vt 0.07814535 0.46279880
vt 0.07804844 0.46511930
vt 0.07674778 0.46274020
vt 0.08534511 0.25771470
vt 0.08674269 0.25777330
vt 0.08552282 0.25348060
vt 0.08692040 0.25353920
vt 0.08570189 0.25244190
vt 0.08703751 0.25249800
vt 0.08861260 0.25256400
vt 0.17597100 0.26180520
vt 0.17577340 0.26085060
vt 0.17382450 0.26081620
vt 0.17393150 0.26176920
vt 0.17597100 0.26569670
vt 0.17152560 0.26080410
vt 0.17393150 0.26566070
vt 0.17597110 0.45413380
vt 0.17152560 0.26175650
vt 0.16922670 0.26081620
vt 0.17393150 0.45409780
vt 0.17597110 0.45626650
vt 0.17393150 0.45623050
vt 0.16911980 0.26176920
vt 0.16727780 0.26085060
vt 0.16708020 0.26180520
vt 0.17152560 0.26564810
vt 0.17152560 0.45408510
vt 0.17152560 0.45621790
vt 0.16911980 0.26566070
vt 0.16708020 0.26569670
vt 0.16911980 0.45409780
vt 0.16911980 0.45623050
vt 0.16708020 0.45413380
vt 0.16708020 0.45626650
vt 0.03429500 0.46274020
vt 0.02569765 0.25771460
vt 0.02430008 0.25777330
vt 0.03289742 0.46279880
vt 0.03439210 0.46506070
vt 0.03299434 0.46511930
vt 0.14200570 0.94500820
vt 0.14058850 0.94456060
vt 0.13917090 0.94500820
vt 0.13796950 0.94628310
vt 0.14320750 0.94628310
vt 0.13716650 0.94819100
vt 0.14401010 0.94819100
vt 0.13688450 0.95044160
vt 0.14429250 0.95044160
vt 0.13716650 0.95269220
vt 0.14401010 0.95269220
vt 0.13796950 0.95460010
vt 0.14320750 0.95460010
vt 0.13917090 0.95587490
vt 0.14200570 0.95587490
vt 0.14058850 0.95632260
vt 0.10318080 0.94765700
vt 0.10283610 0.94710950
vt 0.10199590 0.94910620
vt 0.10244620 0.94940250
vt 0.10427980 0.94649070
vt 0.10170070 0.95146140
vt 0.10409370 0.94577540
vt 0.10218860 0.95146140
vt 0.10557680 0.94608120
vt 0.10199590 0.95381660
vt 0.10557680 0.94530680
vt 0.10244620 0.95352030
vt 0.10687340 0.94649070
vt 0.10283610 0.95581330
vt 0.10706020 0.94577530
vt 0.10318080 0.95526580
vt 0.10797270 0.94765700
vt 0.10409370 0.95714740
vt 0.10831790 0.94710950
vt 0.10427980 0.95643200
vt 0.10870740 0.94940250
vt 0.10557680 0.95761590
vt 0.10915800 0.94910620
vt 0.10557680 0.95684160
vt 0.10896530 0.95146140
vt 0.10706020 0.95714740
vt 0.10945280 0.95146140
vt 0.10687340 0.95643200
vt 0.10870740 0.95352030
vt 0.10831790 0.95581330
vt 0.10915800 0.95381660
vt 0.10797270 0.95526580
f 3/3/3 2/2/2 1/1/1
f 6/6/6 5/5/5 4/4/4
f 4/4/4 7/7/7 6/6/6
f 7/7/7 8/8/8 6/6/6
f 7/7/7 9/9/9 8/8/8
f 9/9/9 10/10/10 8/8/8
f 9/9/9 11/11/11 10/10/10
f 11/11/11 12/12/12 10/10/10
f 11/11/11 13/13/13 12/12/12
f 13/13/13 14/14/14 12/12/12
f 13/13/13 15/15/15 14/14/14
f 15/15/15 16/16/16 14/14/14
f 15/15/15 17/17/17 16/16/16
f 17/17/17 18/18/18 16/16/16
f 17/17/17 19/19/19 18/18/18
f 22/22/22 21/21/21 20/20/20
f 21/21/21 23/23/23 20/20/20
f 21/21/21 24/24/24 23/23/23
f 24/24/24 25/25/25 23/23/23
f 28/28/28 27/27/27 26/26/26
f 29/29/29 28/28/28 26/26/26
f 29/29/29 26/26/26 30/30/30
f 31/31/31 28/28/28 29/29/29
f 32/32/32 29/29/29 30/30/30
f 32/32/32 30/30/30 33/33/33
f 34/34/34 31/31/31 29/29/29
f 34/34/34 29/29/29 32/32/32
f 35/35/35 31/31/31 34/34/34
f 36/36/36 32/32/32 33/33/33
f 36/36/36 33/33/33 37/37/37
f 38/38/38 36/36/36 37/37/37
f 39/39/39 34/34/34 32/32/32
f 39/39/39 32/32/32 36/36/36
f 40/40/40 35/35/35 34/34/34
f 40/40/40 34/34/34 39/39/39
f 41/41/41 35/35/35 40/40/40
f 42/42/42 41/41/41 40/40/40
f 43/43/43 36/36/36 38/38/38
f 43/43/43 39/39/39 36/36/36
f 44/44/44 43/43/43 38/38/38
f 45/45/45 40/40/40 39/39/39
f 42/42/42 40/40/40 45/45/45
f 45/45/45 39/39/39 43/43/43
f 46/46/46 42/42/42 45/45/45
f 47/47/47 43/43/43 44/44/44
f 47/47/47 45/45/45 43/43/43
f 46/46/46 45/45/45 47/47/47
f 48/48/48 47/47/47 44/44/44
f 49/49/49 46/46/46 47/47/47
f 49/49/49 47/47/47 48/48/48
f 50/50/50 49/49/49 48/48/48
f 53/53/53 52/52/52 51/51/51
f 54/54/54 53/53/53 51/51/51
f 55/55/55 53/53/53 54/54/54
f 56/56/56 55/55/55 54/54/54
f 54/54/54 51/51/51 57/57/57
f 56/56/56 54/54/54 58/58/58
f 58/58/58 54/54/54 57/57/57
f 58/58/58 57/57/57 59/59/59
f 60/60/60 58/58/58 59/59/59
f 63/63/63 62/62/62 61/61/61
f 62/62/62 64/64/64 61/61/61
f 62/62/62 65/65/65 64/64/64
f 61/61/61 64/64/64 66/66/66
f 65/65/65 67/67/67 64/64/64
f 64/64/64 68/68/68 66/66/66
f 64/64/64 67/67/67 68/68/68
f 66/66/66 68/68/68 69/69/69
f 68/68/68 70/70/70 69/69/69
f 67/67/67 71/71/71 68/68/68
f 68/68/68 71/71/71 70/70/70
f 67/67/67 72/72/72 71/71/71
f 71/71/71 73/73/73 70/70/70
f 72/72/72 74/74/74 71/71/71
f 71/71/71 74/74/74 73/73/73
f 72/72/72 75/75/75 74/74/74
f 75/75/75 76/76/76 74/74/74
f 74/74/74 77/77/77 73/73/73
f 74/74/74 76/76/76 77/77/77
f 73/73/73 77/77/77 78/78/78
f 76/76/76 79/79/79 77/77/77
f 77/77/77 80/80/80 78/78/78
f 77/77/77 79/79/79 80/80/80
f 79/79/79 81/81/81 80/80/80
f 84/84/84 83/83/83 82/82/82
f 85/85/85 84/84/84 82/82/82
f 86/86/86 84/84/84 85/85/85
f 87/87/87 86/86/86 85/85/85
f 86/86/86 88/88/88 84/84/84
f 88/88/88 89/89/89 84/84/84
f 88/88/88 90/90/90 89/89/89
f 91/91/91 86/86/86 87/87/87
f 92/92/92 91/91/91 87/87/87
f 93/93/93 91/91/91 92/92/92
f 93/93/93 94/94/94 91/91/91
f 91/91/91 95/95/95 86/86/86
f 94/94/94 95/95/95 91/91/91
f 95/95/95 88/88/88 86/86/86
f 94/94/94 96/96/96 95/95/95
f 95/95/95 97/97/97 88/88/88
f 96/96/96 97/97/97 95/95/95
f 97/97/97 90/90/90 88/88/88
f 96/96/96 98/98/98 97/97/97
f 98/98/98 99/99/99 97/97/97
f 97/97/97 99/99/99 90/90/90
f 99/99/99 100/100/100 90/90/90
f 103/103/103 102/102/102 101/101/101
f 104/104/104 103/103/103 101/101/101
f 104/104/104 101/101/101 105/105/105
f 106/106/106 103/103/103 104/104/104
f 107/107/107 104/104/104 105/105/105
f 107/107/107 105/105/105 108/108/108
f 109/109/109 106/106/106 104/104/104
f 109/109/109 104/104/104 107/107/107
f 110/110/110 106/106/106 109/109/109
f 111/111/111 107/107/107 108/108/108
f 111/111/111 108/108/108 112/112/112
f 113/113/113 111/111/111 112/112/112
f 114/114/114 110/110/110 109/109/109
f 115/115/115 110/110/110 114/114/114
f 116/116/116 115/115/115 114/114/114
f 117/117/117 109/109/109 107/107/107
f 117/117/117 107/107/107 111/111/111
f 114/114/114 109/109/109 117/117/117
f 118/118/118 111/111/111 113/113/113
f 118/118/118 117/117/117 111/111/111
f 119/119/119 118/118/118 113/113/113
f 116/116/116 114/114/114 120/120/120
f 120/120/120 114/114/114 117/117/117
f 120/120/120 117/117/117 118/118/118
f 121/121/121 116/116/116 120/120/120
f 122/122/122 118/118/118 119/119/119
f 122/122/122 120/120/120 118/118/118
f 121/121/121 120/120/120 122/122/122
f 123/123/123 122/122/122 119/119/119
f 124/124/124 121/121/121 122/122/122
f 124/124/124 122/122/122 123/123/123
f 125/125/125 124/124/124 123/123/123
f 128/128/128 127/127/127 126/126/126
f 129/129/129 128/128/128 126/126/126
f 129/129/129 126/126/126 130/130/130
f 131/131/131 129/129/129 130/130/130
f 134/134/134 133/133/133 132/132/132
f 132/132/132 135/135/135 134/134/134
f 132/132/132 136/136/136 135/135/135
f 136/136/136 137/137/137 135/135/135
f 136/136/136 138/138/138 137/137/137
f 138/138/138 139/139/139 137/137/137
f 138/138/138 140/140/140 139/139/139
f 140/140/140 141/141/141 139/139/139
f 140/140/140 142/142/142 141/141/141
f 142/142/142 143/143/143 141/141/141
f 142/142/142 144/144/144 143/143/143
f 144/144/144 145/145/145 143/143/143
f 144/144/144 146/146/146 145/145/145
f 146/146/146 147/147/147 145/145/145
f 150/150/150 149/149/149 148/148/148
f 151/151/151 150/150/150 148/148/148
f 148/148/148 149/149/149 152/152/152
f 153/153/153 150/150/150 151/151/151
f 149/149/149 154/154/154 152/152/152
f 155/155/155 153/153/153 151/151/151
f 152/152/152 154/154/154 156/156/156
f 157/157/157 153/153/153 155/155/155
f 154/154/154 158/158/158 156/156/156
f 159/159/159 157/157/157 155/155/155
f 156/156/156 158/158/158 160/160/160
f 161/161/161 157/157/157 159/159/159
f 158/158/158 162/162/162 160/160/160
f 163/163/163 161/161/161 159/159/159
f 160/160/160 162/162/162 164/164/164
f 165/165/165 161/161/161 163/163/163
f 162/162/162 166/166/166 164/164/164
f 167/167/167 165/165/165 163/163/163
f 164/164/164 166/166/166 168/168/168
f 169/169/169 165/165/165 167/167/167
f 166/166/166 170/170/170 168/168/168
f 171/171/171 169/169/169 167/167/167
f 168/168/168 170/170/170 172/172/172
f 173/173/173 169/169/169 171/171/171
f 170/170/170 174/174/174 172/172/172
f 175/175/175 173/173/173 171/171/171
f 172/172/172 174/174/174 176/176/176
f 177/177/177 173/173/173 175/175/175
f 174/174/174 178/178/178 176/176/176
f 179/179/179 177/177/177 175/175/175
f 176/176/176 178/178/178 179/179/179
f 178/178/178 177/177/177 179/179/179