mtllib material.mtl
usemtl material_0
v -0.00012769 -0.09130369 -0.01894500
v -0.00012769 -0.09130369 -0.01920027
v 0.00012769 -0.09130369 -0.01920027
v -0.00012769 -0.09130369 -0.01894500
v 0.00012769 -0.09130369 -0.01920027
v 0.00012769 -0.09130369 -0.01894500
v -0.06898978 0.04737757 0.14454410
v -0.07309993 -0.04529133 0.14454410
v -0.07309993 0.04730932 0.14454410
v -0.07169061 0.05001014 0.14454410
v -0.06898978 0.05112885 0.14454410
v -0.06628904 0.05001014 0.14454410
v -0.06487940 0.04730932 0.14454410
v -0.06898978 -0.04529133 0.14454410
v -0.07169061 -0.04804713 0.14454410
v -0.06487940 -0.04529133 0.14454410
v -0.06898978 -0.04916196 0.14454410
v -0.06628904 -0.04804713 0.14454410
v 0.06637011 0.04737757 0.14454410
v 0.06225996 -0.04529133 0.14454410
v 0.06225996 0.04730932 0.14454410
v 0.06366928 0.05001014 0.14454410
v 0.06637011 0.05112885 0.14454410
v 0.06907085 0.05001014 0.14454410
v 0.07048049 0.04730932 0.14454410
v 0.06637011 -0.04529133 0.14454410
v 0.06366928 -0.04804713 0.14454410
v 0.07048049 -0.04529133 0.14454410
v 0.06637011 -0.04916196 0.14454410
v 0.06907085 -0.04804713 0.14454410
v 0.00000070 0.04143421 0.18008730
v -0.00349674 0.04143421 0.18008730
v -0.00349674 0.04143421 0.17659010
v 0.00000070 0.04143421 0.18008730
v -0.00349674 0.04143421 0.17659010
v 0.00000070 0.04143421 0.17659010
vn 0.00000000 0.57735030 0.00000000
vn 0.00000000 0.57735030 0.00000000
vn 0.00000000 0.57735030 0.00000000
vn 0.00000000 0.57735030 0.00000000
vn 0.00000000 0.57735030 0.00000000
vn 0.00000000 0.57735030 0.00000000
vn 0.00000000 0.00000000 0.57735030
vn 0.00000000 0.00000000 0.57735030
vn 0.00000000 0.00000000 0.57735030
vn -0.00000021 0.00000000 0.57735030
vn 0.00000000 0.00000000 0.57735030
vn 0.00000021 0.00000000 0.57735030
vn 0.00000000 0.00000000 0.57735030
vn 0.00000000 0.00000000 0.57735030
vn -0.00000021 0.00000000 0.57735030
vn 0.00000000 0.00000000 0.57735030
vn 0.00000000 0.00000000 0.57735030
vn 0.00000021 0.00000000 0.57735030
vn 0.00000000 0.00000000 0.57735030
vn 0.00000000 0.00000000 0.57735030
vn 0.00000000 0.00000000 0.57735030
vn -0.00000021 0.00000000 0.57735030
vn 0.00000000 0.00000000 0.57735030
vn 0.00000021 0.00000000 0.57735030
vn 0.00000000 0.00000000 0.57735030
vn 0.00000000 0.00000000 0.57735030
vn -0.00000021 0.00000000 0.57735030
vn 0.00000000 0.00000000 0.57735030
vn 0.00000000 0.00000000 0.57735030
vn 0.00000021 0.00000000 0.57735030
vn 0.00000000 0.57735030 0.00000000
vn 0.00000000 0.57735030 0.00000000
vn 0.00000000 0.57735030 0.00000000
vn 0.00000000 0.57735030 0.00000000
vn 0.00000000 0.57735030 0.00000000
vn 0.00000000 0.57735030 0.00000000
vt -14.44660000 -18.43400000
vt -14.44660000 -18.21322000
vt -14.22582000 -18.21322000
vt -14.44660000 -18.43400000
vt -14.22582000 -18.21322000
vt -14.22582000 -18.43400000
vt -14.28356000 0.64298840
vt -14.32717000 -0.34034480
vt -14.32717000 0.64226420
vt -14.31222000 0.67092350
vt -14.28356000 0.68279430
vt -14.25490000 0.67092350
vt -14.23994000 0.64226420
vt -14.28356000 -0.34034480
vt -14.31222000 -0.36958730
vt -14.23994000 -0.34034480
vt -14.28356000 -0.38141700
vt -14.25490000 -0.36958730
vt -14.19486000 0.64298990
vt -14.23847000 -0.34034630
vt -14.23847000 0.64226570
vt -14.22352000 0.67092500
vt -14.19486000 0.68279600
vt -14.16620000 0.67092500
vt -14.15124000 0.64226570
vt -14.19486000 -0.34034630
vt -14.22352000 -0.36958890
vt -14.15124000 -0.34034630
vt -14.19486000 -0.38141860
vt -14.16620000 -0.36958890
vt -14.30494000 -18.40213000
vt -14.30494000 -18.33905000
vt -14.24186000 -18.33905000
vt -14.30494000 -18.40213000
vt -14.24186000 -18.33905000
vt -14.24186000 -18.40213000
f 3/3/3 2/2/2 1/1/1
f 6/6/6 5/5/5 4/4/4
f 9/9/9 8/8/8 7/7/7
f 9/9/9 7/7/7 10/10/10
f 7/7/7 11/11/11 10/10/10
f 11/11/11 7/7/7 12/12/12
f 7/7/7 13/13/13 12/12/12
f 8/8/8 14/14/14 7/7/7
f 7/7/7 14/14/14 13/13/13
f 14/14/14 8/8/8 15/15/15
f 14/14/14 16/16/16 13/13/13
f 17/17/17 14/14/14 15/15/15
f 16/16/16 14/14/14 18/18/18
f 14/14/14 17/17/17 18/18/18
f 21/21/21 20/20/20 19/19/19
f 21/21/21 19/19/19 22/22/22
f 19/19/19 23/23/23 22/22/22
f 23/23/23 19/19/19 24/24/24
f 19/19/19 25/25/25 24/24/24
f 20/20/20 26/26/26 19/19/19
f 19/19/19 26/26/26 25/25/25
f 26/26/26 20/20/20 27/27/27
f 26/26/26 28/28/28 25/25/25
f 29/29/29 26/26/26 27/27/27
f 28/28/28 26/26/26 30/30/30
f 26/26/26 29/29/29 30/30/30
f 33/33/33 32/32/32 31/31/31
f 36/36/36 35/35/35 34/34/34