mtllib material.mtl
usemtl material_0
v -0.00012769 -0.09130369 -0.01894500
v -0.00012769 -0.09130369 -0.01920027
v 0.00012769 -0.09130369 -0.01920027
v -0.00012769 -0.09130369 -0.01894500
v 0.00012769 -0.09130369 -0.01920027
v 0.00012769 -0.09130369 -0.01894500
v -0.11422790 0.02153933 0.14850710
v -0.11422790 0.03091376 0.14850710
v -0.10485350 0.03091376 0.14850710
v -0.10485350 0.02153933 0.14850710
v -0.09547897 0.03091376 0.14850710
v -0.09547897 0.02153933 0.14850710
v -0.08610456 0.03091376 0.14850710
v -0.08610456 0.02153933 0.14850710
v -0.11422790 -0.00178503 0.14850710
v -0.11422790 0.00758939 0.14850710
v -0.10485360 0.00758939 0.14850710
v -0.10485360 -0.00178503 0.14850710
v -0.09547903 0.00758939 0.14850710
v -0.09547903 -0.00178503 0.14850710
v -0.08610461 0.00758939 0.14850710
v -0.08610461 -0.00178503 0.14850710
v -0.11422790 -0.02465513 0.14850710
v -0.11422790 -0.01528070 0.14850710
v -0.10485350 -0.01528070 0.14850710
v -0.10485350 -0.02465513 0.14850710
v -0.09547903 -0.01528070 0.14850710
v -0.09547903 -0.02465513 0.14850710
v -0.08610461 -0.01528070 0.14850710
v -0.08610461 -0.02465513 0.14850710
v -0.11422790 -0.04775865 0.14850710
v -0.11422790 -0.03838424 0.14850710
v -0.10485350 -0.03838424 0.14850710
v -0.10485350 -0.04775865 0.14850710
v -0.09547897 -0.03838424 0.14850710
v -0.09547897 -0.04775865 0.14850710
v -0.08610456 -0.03838424 0.14850710
v -0.08610456 -0.04775865 0.14850710
v 0.08409228 0.02153933 0.14850710
v 0.08409228 0.03091376 0.14850710
v 0.09346665 0.03091376 0.14850710
v 0.09346665 0.02153933 0.14850710
v 0.10284110 0.03091376 0.14850710
v 0.10284110 0.02153933 0.14850710
v 0.11221550 0.03091376 0.14850710
v 0.11221550 0.02153933 0.14850710
v 0.08409228 -0.00178503 0.14850710
v 0.08409228 0.00758939 0.14850710
v 0.09346648 0.00758939 0.14850710
v 0.09346648 -0.00178503 0.14850710
v 0.10284110 0.00758939 0.14850710
v 0.10284110 -0.00178503 0.14850710
v 0.11221550 0.00758939 0.14850710
v 0.11221550 -0.00178503 0.14850710
v 0.08409228 -0.02465513 0.14850710
v 0.08409228 -0.01528070 0.14850710
v 0.09346659 -0.01528070 0.14850710
v 0.09346659 -0.02465513 0.14850710
v 0.10284110 -0.01528070 0.14850710
v 0.10284110 -0.02465513 0.14850710
v 0.11221550 -0.01528070 0.14850710
v 0.11221550 -0.02465513 0.14850710
v 0.08409228 -0.04775865 0.14850710
v 0.08409228 -0.03838424 0.14850710
v 0.09346665 -0.03838424 0.14850710
v 0.09346665 -0.04775865 0.14850710
v 0.10284110 -0.03838424 0.14850710
v 0.10284110 -0.04775865 0.14850710
v 0.11221550 -0.03838424 0.14850710
v 0.11221550 -0.04775865 0.14850710
v 0.00000070 0.04143432 0.18008730
v -0.00349674 0.04143432 0.18008730
v -0.00349674 0.04143432 0.17659010
v 0.00000070 0.04143432 0.18008730
v -0.00349674 0.04143432 0.17659010
v 0.00000070 0.04143432 0.17659010
vn 0.00000000 0.57735030 0.00000000
vn 0.00000000 0.57735030 0.00000000
vn 0.00000000 0.57735030 0.00000000
vn 0.00000000 0.57735030 0.00000000
vn 0.00000000 0.57735030 0.00000000
vn 0.00000000 0.57735030 0.00000000
vn 0.00000000 0.00000000 0.57735030
vn 0.00000000 0.00000000 0.57735030
vn 0.00000000 0.00000000 0.57735030
vn 0.00000000 0.00000000 0.57735030
vn 0.00000000 0.00000000 0.57735030
vn 0.00000000 0.00000000 0.57735030
vn 0.00000000 0.00000000 0.57735030
vn 0.00000000 0.00000000 0.57735030
vn 0.00000000 0.00000000 0.57735030
vn 0.00000000 0.00000000 0.57735030
vn 0.00000000 0.00000000 0.57735030
vn 0.00000000 0.00000000 0.57735030
vn 0.00000000 0.00000000 0.57735030
vn 0.00000000 0.00000000 0.57735030
vn 0.00000000 0.00000000 0.57735030
vn 0.00000000 0.00000000 0.57735030
vn 0.00000000 0.00000000 0.57735030
vn 0.00000000 0.00000000 0.57735030
vn 0.00000000 0.00000000 0.57735030
vn 0.00000000 0.00000000 0.57735030
vn 0.00000000 0.00000000 0.57735030
vn 0.00000000 0.00000000 0.57735030
vn 0.00000000 0.00000000 0.57735030
vn 0.00000000 0.00000000 0.57735030
vn 0.00000000 0.00000000 0.57735030
vn 0.00000000 0.00000000 0.57735030
vn 0.00000000 0.00000000 0.57735030
vn 0.00000000 0.00000000 0.57735030
vn 0.00000000 0.00000000 0.57735030
vn 0.00000000 0.00000000 0.57735030
vn 0.00000000 0.00000000 0.57735030
vn 0.00000000 0.00000000 0.57735030
vn 0.00000000 0.00000000 0.57735030
vn 0.00000000 0.00000000 0.57735030
vn 0.00000000 0.00000000 0.57735030
vn 0.00000000 0.00000000 0.57735030
vn 0.00000000 0.00000000 0.57735030
vn 0.00000000 0.00000000 0.57735030
vn 0.00000000 0.00000000 0.57735030
vn 0.00000000 0.00000000 0.57735030
vn 0.00000000 0.00000000 0.57735030
vn 0.00000000 0.00000000 0.57735030
vn 0.00000000 0.00000000 0.57735030
vn 0.00000000 0.00000000 0.57735030
vn 0.00000000 0.00000000 0.57735030
vn 0.00000000 0.00000000 0.57735030
vn 0.00000000 0.00000000 0.57735030
vn 0.00000000 0.00000000 0.57735030
vn 0.00000000 0.00000000 0.57735030
vn 0.00000000 0.00000000 0.57735030
vn 0.00000000 0.00000000 0.57735030
vn 0.00000000 0.00000000 0.57735030
vn 0.00000000 0.00000000 0.57735030
vn 0.00000000 0.00000000 0.57735030
vn 0.00000000 0.00000000 0.57735030
vn 0.00000000 0.00000000 0.57735030
vn 0.00000000 0.00000000 0.57735030
vn 0.00000000 0.00000000 0.57735030
vn 0.00000000 0.00000000 0.57735030
vn 0.00000000 0.00000000 0.57735030
vn 0.00000000 0.00000000 0.57735030
vn 0.00000000 0.00000000 0.57735030
vn 0.00000000 0.00000000 0.57735030
vn 0.00000000 0.00000000 0.57735030
vn 0.00000000 0.57735030 0.00000000
vn 0.00000000 0.57735030 0.00000000
vn 0.00000000 0.57735030 0.00000000
vn 0.00000000 0.57735030 0.00000000
vn 0.00000000 0.57735030 0.00000000
vn 0.00000000 0.57735030 0.00000000
vt 13.44310000 -18.48727000
vt 13.44310000 -18.09333000
vt 13.83704000 -18.09333000
vt 13.44310000 -18.48727000
vt 13.83704000 -18.09333000
vt 13.83704000 -18.48727000
vt 0.00000000 0.70000000
vt 0.00000000 0.80000000
vt 0.10000000 0.80000000
vt 0.10000000 0.70000000
vt 0.20000000 0.80000000
vt 0.20000000 0.70000000
vt 0.30000000 0.80000000
vt 0.30000000 0.70000000
vt 0.60000000 0.70000000
vt 0.60000000 0.80000000
vt 0.70000000 0.80000000
vt 0.70000000 0.70000000
vt 0.80000000 0.80000000
vt 0.80000000 0.70000000
vt 0.90000000 0.80000000
vt 0.90000000 0.70000000
vt 0.30000000 0.70000000
vt 0.30000000 0.80000000
vt 0.40000000 0.80000000
vt 0.40000000 0.70000000
vt 0.50000000 0.80000000
vt 0.50000000 0.70000000
vt 0.60000000 0.80000000
vt 0.60000000 0.70000000
vt 0.00000000 0.60000000
vt 0.00000000 0.70000000
vt 0.10000000 0.70000000
vt 0.10000000 0.60000000
vt 0.20000000 0.70000000
vt 0.20000000 0.60000000
vt 0.30000000 0.70000000
vt 0.30000000 0.60000000
vt 0.00000000 0.70000000
vt 0.00000000 0.80000000
vt 0.10000000 0.80000000
vt 0.10000000 0.70000000
vt 0.20000000 0.80000000
vt 0.20000000 0.70000000
vt 0.30000000 0.80000000
vt 0.30000000 0.70000000
vt 0.60000000 0.70000000
vt 0.60000000 0.80000000
vt 0.70000000 0.80000000
vt 0.70000000 0.70000000
vt 0.80000000 0.80000000
vt 0.80000000 0.70000000
vt 0.90000000 0.80000000
vt 0.90000000 0.70000000
vt 0.30000000 0.70000000
vt 0.30000000 0.80000000
vt 0.40000000 0.80000000
vt 0.40000000 0.70000000
vt 0.50000000 0.80000000
vt 0.50000000 0.70000000
vt 0.60000000 0.80000000
vt 0.60000000 0.70000000
vt 0.00000000 0.60000000
vt 0.00000000 0.70000000
vt 0.10000000 0.70000000
vt 0.10000000 0.60000000
vt 0.20000000 0.70000000
vt 0.20000000 0.60000000
vt 0.30000000 0.70000000
vt 0.30000000 0.60000000
vt 0.48535160 -18.00683000
vt 0.48535160 -17.97753000
vt 0.51464840 -17.97753000
vt 0.48535160 -18.00683000
vt 0.51464840 -17.97753000
vt 0.51464840 -18.00683000
f 3/3/3 2/2/2 1/1/1
f 6/6/6 5/5/5 4/4/4
f 9/9/9 8/8/8 7/7/7
f 10/10/10 9/9/9 7/7/7
f 11/11/11 9/9/9 10/10/10
f 12/12/12 11/11/11 10/10/10
f 13/13/13 11/11/11 12/12/12
f 14/14/14 13/13/13 12/12/12
f 17/17/17 16/16/16 15/15/15
f 18/18/18 17/17/17 15/15/15
f 19/19/19 17/17/17 18/18/18
f 20/20/20 19/19/19 18/18/18
f 21/21/21 19/19/19 20/20/20
f 22/22/22 21/21/21 20/20/20
f 25/25/25 24/24/24 23/23/23
f 26/26/26 25/25/25 23/23/23
f 27/27/27 25/25/25 26/26/26
f 28/28/28 27/27/27 26/26/26
f 29/29/29 27/27/27 28/28/28
f 30/30/30 29/29/29 28/28/28
f 33/33/33 32/32/32 31/31/31
f 34/34/34 33/33/33 31/31/31
f 35/35/35 33/33/33 34/34/34
f 36/36/36 35/35/35 34/34/34
f 37/37/37 35/35/35 36/36/36
f 38/38/38 37/37/37 36/36/36
f 41/41/41 40/40/40 39/39/39
f 42/42/42 41/41/41 39/39/39
f 43/43/43 41/41/41 42/42/42
f 44/44/44 43/43/43 42/42/42
f 45/45/45 43/43/43 44/44/44
f 46/46/46 45/45/45 44/44/44
f 49/49/49 48/48/48 47/47/47
f 50/50/50 49/49/49 47/47/47
f 51/51/51 49/49/49 50/50/50
f 52/52/52 51/51/51 50/50/50
f 53/53/53 51/51/51 52/52/52
f 54/54/54 53/53/53 52/52/52
f 57/57/57 56/56/56 55/55/55
f 58/58/58 57/57/57 55/55/55
f 59/59/59 57/57/57 58/58/58
f 60/60/60 59/59/59 58/58/58
f 61/61/61 59/59/59 60/60/60
f 62/62/62 61/61/61 60/60/60
f 65/65/65 64/64/64 63/63/63
f 66/66/66 65/65/65 63/63/63
f 67/67/67 65/65/65 66/66/66
f 68/68/68 67/67/67 66/66/66
f 69/69/69 67/67/67 68/68/68
f 70/70/70 69/69/69 68/68/68
f 73/73/73 72/72/72 71/71/71
f 76/76/76 75/75/75 74/74/74