mtllib material.mtl
usemtl material_0
v 0.02798431 -0.00830879 -0.00306213
v 0.02798431 -0.00830879 -0.00307190
v 0.02799438 -0.00830879 -0.00307190
v 0.02799438 -0.00830879 -0.00306213
v 0.54440950 0.09821919 0.38557130
v 0.54562160 0.10113120 0.38557130
v 0.54854950 0.09821919 0.38143190
v 0.54854950 0.09794465 0.38557130
v 0.54440950 1.90123800 0.38143190
v 0.54854950 1.89712000 0.38143190
v 0.54440950 1.89712000 0.38557130
v -0.54855040 1.89712000 0.38143190
v -0.54441040 1.90123800 0.38143190
v -0.54441040 1.89712000 0.38557130
v -0.54855040 0.09821919 0.38143190
v -0.54562320 0.10113120 0.38557130
v -0.54441470 0.09816048 0.38569090
v -0.54855040 0.09794465 0.38557130
v -0.05864013 1.90123800 0.38143190
v -0.05864013 1.89712000 0.38557130
v -0.06156799 1.89832600 0.38557130
v 0.54505890 1.11282500 0.38557130
v 0.54493170 1.13122000 0.38557130
v 0.54855010 1.13122000 0.38143190
v -0.54441040 1.90123800 -0.46554260
v -0.54855040 1.89712000 -0.46554260
v -0.54855040 1.53578100 -0.46554260
v -0.05864013 1.90123800 -0.46554260
v -0.05864013 1.53578100 -0.46554260
v -0.02000000 1.90123800 -0.46554260
v -0.05864013 1.13121900 -0.46554260
v -0.54855040 1.13121900 -0.46554260
v -0.02000000 1.53578100 -0.46554260
v 0.54440950 1.90123800 -0.46554260
v 0.54854950 1.89712000 -0.46554260
v 0.54854950 1.53578100 -0.46554260
v 0.54855010 1.13121900 -0.46554260
v -0.02000000 1.13121900 -0.46554260
v 0.54855010 1.11282500 -0.46554260
v -0.02000000 1.11282500 -0.46554260
v 0.54854950 0.09821919 -0.46554260
v -0.02000000 0.09821919 -0.46554260
v -0.05864013 1.11282500 -0.46554260
v -0.54855040 1.11282500 -0.46554260
v -0.05864013 0.09821919 -0.46554260
v -0.54855040 0.09821919 -0.46554260
v -0.02000000 1.90123800 -0.46554260
v 0.54440950 1.90123800 -0.46554260
v 0.54440950 1.90123800 0.38143190
v -0.02000000 1.90123800 0.38143190
v -0.01707275 1.89832600 0.38557130
v 0.54440950 1.89712000 0.38557130
v -0.02000000 1.89712000 0.38557130
v -0.05864013 1.90123800 -0.46554260
v -0.54441040 1.90123800 -0.46554260
v -0.54441040 1.90123800 0.38143190
v -0.54441040 1.89712000 0.38557130
v -0.54855040 1.89712000 -0.46554260
v -0.54441040 1.90123800 -0.46554260
v 0.54440950 1.90123800 -0.46554260
v 0.54854950 1.89712000 -0.46554260
v 0.54855010 1.11282500 0.38143190
v 0.54854950 0.09821919 -0.46554260
v 0.54855010 1.11282500 -0.46554260
v 0.54855010 1.13121900 -0.46554260
v 0.54854950 1.53578100 -0.46554260
v 0.54855010 1.53578200 0.38143190
v 0.54467860 1.53578200 0.38557130
v 0.54854950 1.89712000 -0.46554260
v -0.54468750 1.53578100 0.38557130
v -0.54855040 1.53578100 0.38143190
v -0.54855040 1.89712000 -0.46554260
v -0.54855040 1.53578100 -0.46554260
v -0.54855040 1.13121900 -0.46554260
v -0.54855040 1.13122000 0.38143190
v -0.54492250 1.13122000 0.38557130
v -0.54855040 1.11282500 -0.46554260
v -0.54855040 1.11282500 0.38143190
v -0.54855040 0.09821919 -0.46554260
v -0.54505220 1.11282500 0.38557130
vn 0.00000000 1.00000000 0.00000000
vn 0.00000000 1.00000000 0.00000000
vn 0.00000000 1.00000000 0.00000000
vn 0.00000000 1.00000000 0.00000000
vn 0.59292830 0.54477790 0.59300330
vn 0.66577900 0.00063558 0.74614880
vn 0.99999770 0.00000336 0.00212097
vn 0.59292820 0.54477800 0.59300330
vn 0.00722452 0.99996550 0.00409886
vn 0.99992540 0.01129359 0.00467110
vn 0.28731210 0.44565450 0.84784660
vn -0.99992540 0.01129301 0.00466654
vn -0.00838415 0.99995650 0.00409398
vn -0.31448660 0.41967010 0.85145470
vn -0.99999770 0.00000395 0.00212305
vn -0.66557790 0.00068085 0.74632810
vn -0.59638330 0.54786290 0.58666280
vn -0.59638320 0.54786290 0.58666280
vn -0.00000177 0.99999580 0.00290473
vn 0.02144302 0.01109212 0.99970850
vn -0.00039574 0.64772600 0.76187320
vn 0.62303570 0.00026094 0.78219340
vn 0.59489000 0.00033485 0.80380700
vn 0.99999030 0.00000300 0.00439004
vn 0.00000000 0.00000000 -1.00000000
vn 0.00000000 0.00000000 -1.00000000
vn 0.00000000 0.00000000 -1.00000000
vn 0.00000000 0.00000000 -1.00000000
vn 0.00000000 0.00000000 -1.00000000
vn 0.00000000 0.00000000 -1.00000000
vn 0.00000000 0.00000000 -1.00000000
vn 0.00000000 0.00000000 -1.00000000
vn 0.00000000 0.00000000 -1.00000000
vn 0.00000000 0.00000000 -1.00000000
vn 0.00000000 0.00000000 -1.00000000
vn 0.00000000 0.00000000 -1.00000000
vn 0.00000000 0.00000000 -1.00000000
vn 0.00000000 0.00000000 -1.00000000
vn 0.00000000 0.00000000 -1.00000000
vn 0.00000000 0.00000000 -1.00000000
vn 0.00000000 0.00000000 -1.00000000
vn 0.00000000 0.00000000 -1.00000000
vn 0.00000000 0.00000000 -1.00000000
vn 0.00000000 0.00000000 -1.00000000
vn 0.00000000 0.00000000 -1.00000000
vn 0.00000000 0.00000000 -1.00000000
vn 0.00000000 1.00000000 0.00000000
vn 0.00724261 0.99997380 0.00000000
vn 0.00722452 0.99996550 0.00409886
vn 0.00000154 0.99999580 0.00288542
vn 0.00034081 0.64758720 0.76199130
vn 0.28731210 0.44565450 0.84784660
vn -0.02144435 0.01109194 0.99970850
vn 0.00000000 1.00000000 0.00000000
vn -0.00840510 0.99996470 0.00000000
vn -0.00838415 0.99995650 0.00409398
vn -0.31448660 0.41967010 0.85145470
vn -0.70520900 0.70899950 0.00000000
vn -0.00840510 0.99996470 0.00000000
vn 0.00724261 0.99997380 0.00000000
vn 0.70521390 0.70899460 0.00000000
vn 0.99999300 0.00000101 0.00377243
vn 1.00000000 -0.00000057 0.00000000
vn 1.00000000 -0.00000061 0.00000000
vn 1.00000000 0.00000082 -0.00000039
vn 1.00000000 0.00000083 -0.00000041
vn 0.99998970 0.00000248 0.00454421
vn 0.58829840 0.00025131 0.80864380
vn 1.00000000 0.00000080 -0.00000041
vn -0.58838900 0.00024627 0.80857800
vn -0.99998970 0.00000163 0.00454249
vn -1.00000000 0.00000000 0.00000000
vn -1.00000000 0.00000000 0.00000000
vn -1.00000000 0.00000000 0.00000000
vn -0.99999030 0.00000210 0.00439125
vn -0.59483470 0.00032121 0.80384800
vn -1.00000000 0.00000000 0.00000000
vn -0.99999280 0.00000165 0.00377628
vn -1.00000000 0.00000000 0.00000000
vn -0.62285520 0.00026505 0.78233700
vt -171.02350000 -110.70270000
vt -171.02350000 -110.70270000
vt -171.02350000 -110.70270000
vt -171.02350000 -110.70270000
vt -171.96690000 -2.40149000
vt -171.96690000 -2.39376500
vt -171.95590000 -2.40149000
vt -171.96690000 -2.40221900
vt -171.95590000 2.38153500
vt -171.95590000 2.37061000
vt -171.96690000 2.37061000
vt -169.40690000 2.37063400
vt -169.40690000 2.38155800
vt -169.39590000 2.37063400
vt -169.40690000 -2.40151300
vt -169.39590000 -2.39378900
vt -169.39560000 -2.40167000
vt -169.39590000 -2.40224200
vt -171.19430000 0.66836540
vt -171.20530000 0.66836540
vt -171.20530000 0.67612860
vt -171.96690000 0.29004290
vt -171.96690000 0.33884000
vt -171.95590000 0.33884050
vt -171.60990000 -2.39895100
vt -171.62090000 -2.38804000
vt -171.62090000 -1.43066900
vt -170.32290000 -2.39895100
vt -170.32290000 -1.43066800
vt -170.22060000 -2.39895100
vt -170.32290000 -0.35877720
vt -171.62090000 -0.35877720
vt -170.22060000 -1.43066800
vt -168.72510000 -2.39895100
vt -168.71410000 -2.38804000
vt -168.71410000 -1.43066800
vt -168.71410000 -0.35877720
vt -170.22060000 -0.35877720
vt -168.71410000 -0.31004080
vt -170.22060000 -0.31004080
vt -168.71410000 2.37816900
vt -170.22060000 2.37816900
vt -170.32290000 -0.31004080
vt -171.62090000 -0.31004080
vt -170.32290000 2.37816900
vt -171.62090000 2.37816900
vt -168.94850000 0.56590710
vt -168.94850000 -0.93067820
vt -171.19430000 -0.93067820
vt -171.19430000 0.56590710
vt -171.20530000 0.55814530
vt -171.20530000 -0.93067820
vt -171.20530000 0.56590710
vt -168.94850000 0.66836540
vt -168.94850000 1.95643100
vt -171.19430000 1.95643100
vt -171.20530000 1.95643100
vt -171.65370000 2.37063400
vt -171.65370000 2.38155800
vt -169.70910000 2.38153500
vt -169.70910000 2.37061000
vt -171.95590000 0.29004290
vt -169.70910000 -2.40149000
vt -169.70910000 0.29004290
vt -169.70910000 0.33883950
vt -169.70910000 1.41205500
vt -171.95590000 1.41205700
vt -171.96690000 1.41205700
vt -169.70910000 2.37061000
vt -169.39590000 1.41206900
vt -169.40690000 1.41206900
vt -171.65370000 2.37063400
vt -171.65370000 1.41207000
vt -171.65370000 0.33884300
vt -169.40690000 0.33884390
vt -169.39590000 0.33884390
vt -171.65370000 0.29004590
vt -169.40690000 0.29004590
vt -171.65370000 -2.40151300
vt -169.39590000 0.29004590
f 3/3/3 2/2/2 1/1/1
f 4/4/4 3/3/3 1/1/1
f 7/7/7 6/6/6 5/5/5
f 8/8/8 7/7/7 5/5/5
f 11/11/11 10/10/10 9/9/9
f 14/14/14 13/13/13 12/12/12
f 17/17/17 16/16/16 15/15/15
f 18/18/18 17/17/17 15/15/15
f 21/21/21 20/20/20 19/19/19
f 24/24/24 23/23/23 22/22/22
f 27/27/27 26/26/26 25/25/25
f 27/27/27 25/25/25 28/28/28
f 28/28/28 29/29/29 27/27/27
f 29/29/29 28/28/28 30/30/30
f 29/29/29 31/31/31 27/27/27
f 31/31/31 32/32/32 27/27/27
f 33/33/33 29/29/29 30/30/30
f 33/33/33 30/30/30 34/34/34
f 33/33/33 34/34/34 35/35/35
f 35/35/35 36/36/36 33/33/33
f 36/36/36 37/37/37 33/33/33
f 33/33/33 38/38/38 29/29/29
f 37/37/37 38/38/38 33/33/33
f 38/38/38 31/31/31 29/29/29
f 37/37/37 39/39/39 38/38/38
f 39/39/39 40/40/40 38/38/38
f 38/38/38 40/40/40 31/31/31
f 39/39/39 41/41/41 40/40/40
f 41/41/41 42/42/42 40/40/40
f 31/31/31 43/43/43 32/32/32
f 40/40/40 43/43/43 31/31/31
f 40/40/40 42/42/42 43/43/43
f 43/43/43 44/44/44 32/32/32
f 42/42/42 45/45/45 43/43/43
f 43/43/43 45/45/45 44/44/44
f 45/45/45 46/46/46 44/44/44
f 49/49/49 48/48/48 47/47/47
f 50/50/50 49/49/49 47/47/47
f 49/49/49 50/50/50 51/51/51
f 52/52/52 49/49/49 51/51/51
f 53/53/53 51/51/51 50/50/50
f 53/53/53 50/50/50 20/20/20
f 50/50/50 19/19/19 20/20/20
f 19/19/19 50/50/50 47/47/47
f 54/54/54 19/19/19 47/47/47
f 19/19/19 54/54/54 55/55/55
f 56/56/56 19/19/19 55/55/55
f 19/19/19 56/56/56 57/57/57
f 21/21/21 19/19/19 57/57/57
f 13/13/13 59/59/59 58/58/58
f 12/12/12 13/13/13 58/58/58
f 60/60/60 9/9/9 10/10/10
f 61/61/61 60/60/60 10/10/10
f 22/22/22 6/6/6 7/7/7
f 62/62/62 22/22/22 7/7/7
f 62/62/62 7/7/7 63/63/63
f 64/64/64 62/62/62 63/63/63
f 64/64/64 65/65/65 62/62/62
f 62/62/62 24/24/24 22/22/22
f 65/65/65 24/24/24 62/62/62
f 65/65/65 66/66/66 24/24/24
f 66/66/66 67/67/67 24/24/24
f 24/24/24 67/67/67 23/23/23
f 67/67/67 68/68/68 23/23/23
f 66/66/66 69/69/69 67/67/67
f 69/69/69 10/10/10 67/67/67
f 70/70/70 14/14/14 12/12/12
f 71/71/71 70/70/70 12/12/12
f 71/71/71 12/12/12 72/72/72
f 73/73/73 71/71/71 72/72/72
f 73/73/73 74/74/74 71/71/71
f 71/71/71 75/75/75 70/70/70
f 74/74/74 75/75/75 71/71/71
f 75/75/75 76/76/76 70/70/70
f 74/74/74 77/77/77 75/75/75
f 75/75/75 78/78/78 76/76/76
f 77/77/77 78/78/78 75/75/75
f 77/77/77 79/79/79 78/78/78
f 78/78/78 80/80/80 76/76/76
f 79/79/79 15/15/15 78/78/78
f 78/78/78 15/15/15 80/80/80
f 15/15/15 16/16/16 80/80/80
f 10/10/10 11/11/11 68/68/68
f 67/67/67 10/10/10 68/68/68

