mtllib material.mtl
usemtl material_0
v -0.52905060 -1.00803700 -0.38877810
v -0.52905060 -1.00803700 -0.38878780
v -0.52904140 -1.00803700 -0.38878780
v -0.52904140 -1.00803700 -0.38877810
v -0.54109830 0.89351880 0.09339355
v -0.54109830 0.89601830 0.09339355
v -0.00880432 0.89601830 0.09339355
v -0.00334351 0.89351880 0.09339355
v -0.54109830 0.88748010 0.09339355
v -0.00108093 0.88748010 0.09339355
v -0.54109830 0.53155670 0.09339355
v -0.00108093 0.53155670 0.09339355
v -0.54109830 0.46340120 0.09339355
v -0.00108093 0.46340120 0.09339355
v -0.00108093 -0.01303230 0.09339355
v -0.54109830 -0.01303223 0.09339355
v -0.54109830 -0.08304199 0.09339355
v -0.00108093 -0.08304199 0.09339355
v -0.54109830 -0.51281940 0.09339355
v -0.00108093 -0.51281940 0.09339355
v -0.54109830 -0.58282900 0.09339355
v -0.00108093 -0.58282900 0.09339355
v -0.54109830 -0.88764110 0.09339355
v -0.00108093 -0.88747990 0.09339355
v -0.54109830 -0.89351760 0.09339355
v -0.00334351 -0.89351760 0.09339355
v -0.00880432 -0.89601830 0.09339355
v -0.54109830 -0.89601830 0.09339355
vn 0.00000000 1.00000000 0.00000000
vn 0.00000000 1.00000000 0.00000000
vn 0.00000000 1.00000000 0.00000000
vn 0.00000000 1.00000000 0.00000000
vn 0.00000000 0.00000000 1.00000000
vn 0.00000000 0.00000000 1.00000000
vn 0.00000000 0.00000000 1.00000000
vn 0.00000000 0.00000000 1.00000000
vn 0.00000000 0.00000000 1.00000000
vn 0.00000000 0.00000000 1.00000000
vn 0.00000000 0.00000000 1.00000000
vn 0.00000000 0.00000000 1.00000000
vn 0.00000000 0.00000000 1.00000000
vn 0.00000000 0.00000000 1.00000000
vn 0.00000000 0.00000000 1.00000000
vn 0.00000000 0.00000000 1.00000000
vn 0.00000000 0.00000000 1.00000000
vn 0.00000000 0.00000000 1.00000000
vn 0.00000000 0.00000000 1.00000000
vn 0.00000000 0.00000000 1.00000000
vn 0.00000000 0.00000000 1.00000000
vn 0.00000000 0.00000000 1.00000000
vn 0.00000000 0.00000000 1.00000000
vn 0.00000000 0.00000000 1.00000000
vn 0.00000000 0.00000000 1.00000000
vn 0.00000000 0.00000000 1.00000000
vn 0.00000000 0.00000000 1.00000000
vn 0.00000000 0.00000000 1.00000000
vt -173.08530000 -113.83870000
vt -173.08530000 -113.83860000
vt -173.08530000 -113.83860000
vt -173.08530000 -113.83870000
vt -171.54690000 2.56675800
vt -171.54690000 2.57338000
vt -170.13660000 2.57338000
vt -170.12210000 2.56675800
vt -171.54690000 2.55075800
vt -170.11610000 2.55075800
vt -171.54690000 1.60773400
vt -170.11610000 1.60773400
vt -171.54690000 1.42715500
vt -170.11610000 1.42715500
vt -170.11610000 0.16483810
vt -171.54690000 0.16483810
vt -171.54690000 -0.02065387
vt -170.11610000 -0.02065387
vt -171.54690000 -1.15935500
vt -170.11610000 -1.15935500
vt -171.54690000 -1.34484700
vt -170.11610000 -1.34484700
vt -171.54690000 -2.15245100
vt -170.11610000 -2.15202400
vt -171.54690000 -2.16802000
vt -170.12210000 -2.16802000
vt -170.13660000 -2.17464600
vt -171.54690000 -2.17464600
f 3/3/3 2/2/2 1/1/1
f 4/4/4 3/3/3 1/1/1
f 7/7/7 6/6/6 5/5/5
f 8/8/8 7/7/7 5/5/5
f 8/8/8 5/5/5 9/9/9
f 10/10/10 8/8/8 9/9/9
f 10/10/10 9/9/9 11/11/11
f 12/12/12 10/10/10 11/11/11
f 12/12/12 11/11/11 13/13/13
f 14/14/14 12/12/12 13/13/13
f 14/14/14 13/13/13 15/15/15
f 13/13/13 16/16/16 15/15/15
f 15/15/15 16/16/16 17/17/17
f 18/18/18 15/15/15 17/17/17
f 18/18/18 17/17/17 19/19/19
f 20/20/20 18/18/18 19/19/19
f 20/20/20 19/19/19 21/21/21
f 22/22/22 20/20/20 21/21/21
f 22/22/22 21/21/21 23/23/23
f 24/24/24 22/22/22 23/23/23
f 24/24/24 23/23/23 25/25/25
f 26/26/26 24/24/24 25/25/25
f 26/26/26 25/25/25 27/27/27
f 25/25/25 28/28/28 27/27/27

