mtllib material.mtl
usemtl material_0
v -0.52905060 -1.00803700 -0.38877810
v -0.52905060 -1.00803700 -0.38878780
v -0.52904140 -1.00803700 -0.38878780
v -0.52904140 -1.00803700 -0.38877810
v -0.54924350 0.85813210 0.07510925
v -0.56166380 0.53341000 0.06130920
v -0.54924350 0.54713800 0.07510925
v -0.54924350 0.00069511 0.07510925
v -0.54924350 0.44967300 0.07510925
v -0.56166380 0.46340120 0.06130920
v -0.54924350 -0.09676903 0.07510925
v -0.56166380 -0.51281940 0.06130920
v -0.54924350 -0.49909210 0.07510925
v -0.54270990 -0.51281940 0.06130920
v -0.54270990 -0.49909210 0.07510986
v -0.54924350 -0.49909210 0.07510925
v -0.56166380 -0.51281940 0.06130920
v -0.02293762 -0.51281940 0.06130920
v -0.03535583 -0.49909210 0.07510925
v -0.56166380 -0.58282890 0.06130920
v -0.54924350 -0.59655620 0.07510925
v -0.54270990 -0.59655620 0.07510986
v -0.56166380 0.53341000 0.06130920
v -0.56166200 0.53341000 0.00472961
v -0.54270990 0.53341000 0.00472900
v -0.54270990 0.53341000 0.06130920
v -0.02293762 0.53341000 0.06130920
v -0.02293762 0.53341000 0.00472961
v -0.54270990 0.46340120 0.06130920
v -0.56166200 0.46340120 0.00472961
v -0.56166380 0.46340120 0.06130920
v -0.54270990 0.46340120 0.00472900
v -0.02293762 0.46340120 0.06130920
v -0.02293762 0.46340120 0.00472900
v -0.54270990 -0.51281940 0.00472900
v -0.56166380 -0.51281940 0.00472900
v -0.02293762 -0.51281940 0.00472961
v -0.02293762 -0.08304100 0.00472961
v -0.02293762 -0.08304199 0.06130920
v -0.02293762 -0.51281940 0.06130920
v -0.02293762 -0.51281940 0.00472961
v -0.56166200 -0.08304199 0.00472961
v -0.56166380 -0.08304199 0.06130920
v -0.54270990 -0.08304199 0.06130920
v -0.54270990 -0.08304199 0.00472900
v -0.02293762 -0.08304100 0.00472961
v -0.02293762 -0.08304199 0.06130920
v -0.54270990 -0.01303223 0.00472900
v -0.56166380 -0.01303215 0.06130920
v -0.56166380 -0.01303215 0.00472961
v -0.54270990 -0.01303223 0.06130920
v -0.02293762 -0.01303215 0.00472961
v -0.02293762 -0.01303215 0.06130920
v -0.02293762 0.46340120 0.00472900
v -0.02293762 0.46340120 0.06130920
v -0.02293762 -0.01303215 0.06130920
v -0.02293762 -0.01303215 0.00472961
v -0.54270990 0.87185840 0.06130920
v -0.56166380 0.87205210 0.00472900
v -0.56166380 0.87185840 0.06130920
v -0.54270990 0.87196440 0.00472900
v -0.02293762 0.87185840 0.06130920
v -0.02293762 0.87206770 0.00472961
v -0.56166380 -0.87204690 0.00472900
v -0.54270990 -0.87185830 0.06130920
v -0.56166380 -0.87185830 0.06130920
v -0.54270990 -0.87206760 0.00472900
v -0.02293762 -0.87185830 0.06130920
v -0.02293762 -0.87206760 0.00472961
v -0.03535583 -0.85813090 0.07510925
v -0.54270990 -0.85813090 0.07510986
v -0.54924350 -0.59655620 0.07510925
v -0.54924350 -0.85813090 0.07510925
v -0.54270990 -0.59655620 0.07510986
v -0.03535583 -0.85813090 0.07510925
v -0.03535583 -0.59655620 0.07510925
v -0.54270990 -0.49909210 0.07510986
v -0.54924350 -0.09676903 0.07510925
v -0.54924350 -0.49909210 0.07510925
v -0.54270990 -0.09676903 0.07510986
v -0.03535583 -0.49909210 0.07510925
v -0.03535583 -0.09676903 0.07510925
v -0.02293762 0.87185840 0.06130920
v -0.02293762 0.53341000 0.00472961
v -0.02293762 0.87206770 0.00472961
v -0.02293762 0.53341000 0.06130920
v -0.03535583 0.54713800 0.07510925
v -0.03535583 0.85813210 0.07510925
v -0.02293762 -0.01303215 0.00472961
v -0.02293762 0.46340120 0.00472900
v -0.02293762 0.46340120 0.06130920
v -0.02293762 -0.01303215 0.06130920
v -0.02293762 -0.51281940 0.00472961
v -0.02293762 -0.08304100 0.00472961
v -0.02293762 -0.08304199 0.06130920
v -0.02293762 -0.51281940 0.06130920
v -0.02293762 -0.87206760 0.00472961
v -0.02293762 -0.58282890 0.00472961
v -0.02293762 -0.58282890 0.06130920
v -0.02293762 -0.87185830 0.06130920
v -0.56166380 -0.01303215 0.00472961
v -0.56166200 0.46340120 0.00472961
v -0.56166380 -0.01303215 0.06130920
v -0.56166380 0.87205210 0.00472900
v -0.56166200 0.53341000 0.00472961
v -0.56166380 0.87185840 0.06130920
v -0.56166200 -0.08304199 0.00472961
v -0.56166380 -0.51281940 0.00472900
v -0.56166380 -0.08304199 0.06130920
v -0.56166380 -0.87185830 0.06130920
v -0.56166380 -0.58282890 0.00472900
v -0.56166380 -0.87204690 0.00472900
v -0.56166380 -0.58282890 0.06130920
v -0.54924350 -0.59655620 0.07510925
v -0.54924350 -0.85813090 0.07510925
v -0.54270990 0.54713800 0.07510986
v -0.54924350 0.85813210 0.07510925
v -0.54924350 0.54713800 0.07510925
v -0.54270990 0.85813210 0.07510986
v -0.03535583 0.54713800 0.07510925
v -0.03535583 0.85813210 0.07510925
v -0.54924350 0.00069511 0.07510925
v -0.54270990 0.44967300 0.07510986
v -0.54924350 0.44967300 0.07510925
v -0.54270990 0.00069511 0.07510986
v -0.03535583 0.00069511 0.07510925
v -0.03535583 0.44967300 0.07510925
v -0.56166380 -0.01303215 0.00472961
v -0.56166200 -0.08304199 0.00472961
v -0.54270990 -0.08304199 0.00472900
v -0.54270990 -0.01303223 0.00472900
v -0.02293762 -0.01303215 0.00472961
v -0.02293762 -0.08304100 0.00472961
v -0.56166380 -0.51281940 0.00472900
v -0.56166380 -0.58282890 0.00472900
v -0.54270990 -0.58282890 0.00472900
v -0.54270990 -0.51281940 0.00472900
v -0.02293762 -0.51281940 0.00472961
v -0.02293762 -0.58282890 0.00472961
v -0.56166200 0.53341000 0.00472961
v -0.56166200 0.46340120 0.00472961
v -0.54270990 0.46340120 0.00472900
v -0.54270990 0.53341000 0.00472900
v -0.02293762 0.53341000 0.00472961
v -0.02293762 0.46340120 0.00472900
v -0.54924350 0.44967300 0.07510925
v -0.54270990 0.44967300 0.07510986
v -0.03535583 0.44967300 0.07510925
v -0.54924350 0.54713800 0.07510925
v -0.54270990 0.54713800 0.07510986
v -0.03535583 0.54713800 0.07510925
v -0.54270990 0.85813210 0.07510986
v -0.54924350 0.85813210 0.07510925
v -0.03535583 0.85813210 0.07510925
v -0.02293762 0.46340120 0.06130920
v -0.03535583 0.44967300 0.07510925
v -0.03535583 0.00069511 0.07510925
v -0.02293762 -0.01303215 0.06130920
v -0.54924350 0.00069511 0.07510925
v -0.54270990 0.00069511 0.07510986
v -0.03535583 0.00069511 0.07510925
v -0.03535583 -0.85813090 0.07510925
v -0.03535583 -0.59655620 0.07510925
v -0.03535583 -0.49909210 0.07510925
v -0.02293762 -0.51281940 0.06130920
v -0.02293762 -0.08304199 0.06130920
v -0.03535583 -0.09676903 0.07510925
v -0.54924350 -0.09676903 0.07510925
v -0.54270990 -0.09676903 0.07510986
v -0.03535583 -0.09676903 0.07510925
v -0.54924350 -0.85813090 0.07510925
v -0.54270990 -0.85813090 0.07510986
v -0.03535583 -0.59655620 0.07510925
v -0.02293762 -0.58282890 0.06130920
v -0.54270990 -0.58282890 0.06130920
v -0.02293762 -0.58282890 0.00472961
v -0.56166380 -0.58282890 0.00472900
v -0.54270990 -0.58282890 0.00472900
vn 0.00000000 1.00000000 0.00000000
vn 0.00000000 1.00000000 0.00000000
vn 0.00000000 1.00000000 0.00000000
vn 0.00000000 1.00000000 0.00000000
vn 0.74328480 0.00000000 -0.66897510
vn 0.99401470 0.00000236 -0.10924730
vn 0.74328480 0.00000000 -0.66897500
vn 0.74328570 0.00000000 -0.66897420
vn 0.74328570 0.00000000 -0.66897420
vn 0.99388360 -0.00000167 -0.11043280
vn 0.74328580 0.00000000 -0.66897410
vn 0.99391750 -0.00000185 -0.11012740
vn 0.74328580 0.00000000 -0.66897410
vn 0.00000000 0.98216890 -0.18800080
vn 0.00000000 0.70898030 -0.70522820
vn 0.00001692 0.70897560 -0.70523300
vn 0.00000225 0.99558570 -0.09385701
vn 0.00000000 0.99131700 -0.13149370
vn -0.00000042 0.70898040 -0.70522810
vn 0.00000134 -0.99558570 -0.09385630
vn 0.00001692 -0.70897790 -0.70523060
vn 0.00000000 -0.70898160 -0.70522700
vn 0.00000225 0.99558450 -0.09386923
vn 0.00000000 1.00000000 -0.00000033
vn 0.00000000 1.00000000 0.00000000
vn 0.00000000 0.98216690 -0.18801140
vn 0.00000000 0.99131580 -0.13150240
vn 0.00000000 1.00000000 0.00000000
vn 0.00000000 -0.98216680 -0.18801190
vn 0.00000000 -1.00000000 0.00000000
vn 0.00000225 -0.99558440 -0.09387054
vn 0.00000000 -1.00000000 0.00000000
vn 0.00000000 -0.99131570 -0.13150300
vn 0.00000000 -1.00000000 0.00000000
vn 0.00000000 1.00000000 0.00000000
vn 0.00000000 1.00000000 0.00000000
vn 0.00000000 1.00000000 0.00000000
vn -1.00000000 0.00000000 0.00000000
vn -1.00000000 0.00000000 0.00000000
vn -1.00000000 0.00000000 0.00000000
vn -1.00000000 0.00000000 0.00000000
vn 0.00000000 -1.00000000 0.00000000
vn 0.00000225 -0.99558520 -0.09386151
vn 0.00000073 -0.98216830 -0.18800370
vn 0.00000092 -1.00000000 -0.00000801
vn 0.00000095 -1.00000000 -0.00000830
vn 0.00000074 -0.99131640 -0.13149770
vn 0.00000000 1.00000000 0.00000000
vn 0.00000629 0.99558560 -0.09385785
vn 0.00000403 1.00000000 0.00000000
vn 0.00000000 0.98216870 -0.18800110
vn -0.00000015 1.00000000 0.00000000
vn -0.00000022 0.99131700 -0.13149380
vn -1.00000000 -0.00000011 0.00000000
vn -1.00000000 -0.00000011 0.00000000
vn -1.00000000 -0.00000011 0.00000000
vn -1.00000000 -0.00000011 0.00000000
vn 0.00001145 -0.98176160 -0.19011630
vn -0.00166783 -0.99359120 -0.11302070
vn -0.00208319 -0.99535860 -0.09621239
vn 0.00003117 -0.99653970 -0.08311880
vn 0.00008527 -0.99100350 -0.13383580
vn 0.00009883 -0.99448110 -0.10491560
vn 0.00502708 0.99410170 -0.10833560
vn 0.00001515 0.98162430 -0.19082390
vn 0.00049161 0.99528460 -0.09699697
vn 0.00015179 0.99654230 -0.08308702
vn 0.00000000 0.99089810 -0.13461470
vn 0.00000000 0.99450760 -0.10466420
vn -0.00000042 0.70897930 -0.70522920
vn 0.00000000 0.00000000 -1.00000000
vn 0.00009286 0.00000000 -1.00000000
vn 0.00009286 0.00000000 -1.00000000
vn 0.00000000 0.00000000 -1.00000000
vn -0.00000120 0.00000000 -1.00000000
vn -0.00000120 0.00000000 -1.00000000
vn 0.00000000 0.00000000 -1.00000000
vn 0.00009288 0.00000000 -1.00000000
vn 0.00009288 0.00000000 -1.00000000
vn 0.00000000 0.00000000 -1.00000000
vn -0.00000120 0.00000000 -1.00000000
vn -0.00000120 0.00000000 -1.00000000
vn -0.99403940 0.00000000 -0.10902100
vn -1.00000000 0.00000000 0.00000000
vn -1.00000000 0.00000000 0.00000000
vn -0.99401570 0.00000000 -0.10923720
vn -0.74334220 0.00000000 -0.66891140
vn -0.74334220 0.00000000 -0.66891140
vn -1.00000000 0.00000000 0.00000000
vn -1.00000000 0.00000000 0.00000000
vn -1.00000000 0.00000000 0.00000000
vn -1.00000000 0.00000000 0.00000000
vn -1.00000000 0.00000000 0.00000000
vn -1.00000000 0.00000000 0.00000000
vn -1.00000000 0.00000000 0.00000000
vn -1.00000000 0.00000000 0.00000000
vn -0.99522330 0.00000000 -0.09762453
vn -0.99586250 0.00000000 -0.09087301
vn -0.99409110 0.00000000 -0.10854930
vn -0.99411520 0.00000000 -0.10832760
vn 0.99687280 0.00004113 -0.07902325
vn 0.99686400 0.00004108 -0.07913543
vn 0.99388330 -0.00000167 -0.11043610
vn 0.99574890 0.00004311 -0.09210959
vn 0.99648570 0.00003923 -0.08376358
vn 0.99403660 0.00000236 -0.10904750
vn 0.99684520 0.00002349 -0.07937092
vn 0.99685060 0.00002333 -0.07930361
vn 0.99391740 -0.00000185 -0.11012840
vn 0.99411020 0.00000000 -0.10837380
vn 0.99647160 0.00003758 -0.08393078
vn 0.99616070 0.00003965 -0.08754215
vn 0.99408840 0.00000000 -0.10857390
vn 0.74328600 0.00000000 -0.66897380
vn 0.74328600 0.00000000 -0.66897380
vn 0.00000000 0.00000000 -1.00000000
vn 0.00009612 0.00000000 -1.00000000
vn 0.00009612 0.00000000 -1.00000000
vn 0.00000000 0.00000000 -1.00000000
vn -0.00000124 0.00000000 -1.00000000
vn -0.00000124 0.00000000 -1.00000000
vn 0.00009155 0.00000000 -1.00000000
vn 0.00000000 0.00000000 -1.00000000
vn 0.00009155 0.00000000 -1.00000000
vn 0.00000000 0.00000000 -1.00000000
vn -0.00000118 0.00000000 -1.00000000
vn -0.00000118 0.00000000 -1.00000000
vn -0.00003220 0.00000000 -1.00000000
vn -0.00003220 0.00000000 -1.00000000
vn 0.00000000 0.00000000 -1.00000000
vn 0.00000000 0.00000000 -1.00000000
vn 0.00000117 0.00000000 -1.00000000
vn 0.00000117 0.00000000 -1.00000000
vn 0.00000000 0.00000000 -1.00000000
vn 0.00000000 0.00000000 -1.00000000
vn 0.00000112 0.00000000 -1.00000000
vn 0.00000112 0.00000000 -1.00000000
vn 0.00000116 0.00000000 -1.00000000
vn 0.00000116 0.00000000 -1.00000000
vn -0.00003220 0.00000000 -1.00000000
vn -0.00003220 0.00000000 -1.00000000
vn -0.00000057 0.00000421 -1.00000000
vn -0.00000057 0.00000421 -1.00000000
vn 0.00000059 0.00000436 -1.00000000
vn 0.00000059 0.00000436 -1.00000000
vn 0.00001692 -0.70895340 -0.70525540
vn 0.00000000 -0.70895770 -0.70525090
vn -0.00000042 -0.70895790 -0.70525070
vn 0.00001692 0.70895790 -0.70525070
vn 0.00000000 0.70895990 -0.70524880
vn -0.00000042 0.70896000 -0.70524880
vn 0.00000000 -0.70900660 -0.70520190
vn 0.00001692 -0.70900870 -0.70519970
vn -0.00000042 -0.70900650 -0.70520190
vn -0.74334270 0.00000000 -0.66891080
vn -0.74334280 0.00000000 -0.66891080
vn -0.74334280 0.00000000 -0.66891070
vn -0.74334280 0.00000000 -0.66891070
vn 0.00001999 0.70897480 -0.70523390
vn 0.00000000 0.70897940 -0.70522910
vn -0.00000050 0.70897950 -0.70522900
vn -0.74334340 0.00000000 -0.66891000
vn -0.74334340 0.00000000 -0.66891010
vn -0.74334280 0.00000000 -0.66891060
vn -0.74334290 0.00000000 -0.66891060
vn -0.74334280 0.00000000 -0.66891060
vn -0.74334290 0.00000000 -0.66891060
vn 0.00001692 -0.70898100 -0.70522760
vn 0.00000000 -0.70898710 -0.70522150
vn -0.00000042 -0.70898720 -0.70522140
vn 0.00001692 0.70897560 -0.70523300
vn 0.00000000 0.70897920 -0.70522930
vn -0.00000042 -0.70898180 -0.70522680
vn 0.00000000 -0.99131700 -0.13149310
vn 0.00000000 -0.98216900 -0.18800000
vn 0.00000000 -1.00000000 0.00000000
vn -0.00000101 -1.00000000 0.00000000
vn 0.00000000 -1.00000000 0.00000000
vt -87.68532000 -111.60680000
vt -87.68532000 -111.60680000
vt -87.68530000 -111.60680000
vt -87.68530000 -111.60680000
vt -91.07809000 2.15180900
vt -91.04285000 1.32245800
vt -91.07809000 1.35752000
vt -91.16126000 0.89882190
vt -91.16126000 2.04585200
vt -91.12601000 2.08092500
vt -91.18901000 2.29997100
vt -91.15376000 1.23712500
vt -91.18901000 1.27219200
vt -91.14301000 1.76489100
vt -91.17847000 1.76489100
vt -91.17847000 1.78168200
vt -91.14301000 1.81360300
vt -91.14301000 0.42905710
vt -91.17847000 0.46097370
vt -90.70038000 1.81361400
vt -90.66491000 1.78169300
vt -90.66491000 1.76489900
vt -91.19863000 1.81362000
vt -91.05322000 1.81361600
vt -91.05322000 1.76490700
vt -91.19863000 1.76490700
vt -91.19863000 0.42903990
vt -91.05322000 0.42903990
vt -90.75582000 1.76491000
vt -90.90124000 1.81361900
vt -90.75582000 1.81362600
vt -90.90124000 1.76491000
vt -90.75582000 0.42903380
vt -90.90124000 0.42903380
vt -90.99759000 1.76489100
vt -90.99759000 1.81360300
vt -90.99759000 0.42905710
vt -91.19061000 1.98805500
vt -91.05061000 1.98805200
vt -91.05061000 0.92470510
vt -91.19061000 0.92470510
vt -90.79034000 1.81361700
vt -90.64493000 1.81362300
vt -90.64493000 1.76490800
vt -90.79034000 1.76490800
vt -90.79034000 0.42903630
vt -90.64493000 0.42903630
vt -90.94214000 1.76490600
vt -91.08755000 1.81361900
vt -90.94214000 1.81361900
vt -91.08755000 1.76490600
vt -90.94214000 0.42904120
vt -91.08755000 0.42904120
vt -91.04759000 2.06174900
vt -90.90760000 2.06174900
vt -90.90760000 0.88292680
vt -91.04759000 0.88292680
vt -90.58949000 1.76492200
vt -90.73490000 1.81363800
vt -90.58949000 1.81363800
vt -90.73490000 1.76492200
vt -90.58949000 0.42902090
vt -90.73490000 0.42902090
vt -90.88670000 1.81362400
vt -91.03211000 1.76491000
vt -91.03211000 1.81362400
vt -90.88670000 1.76491000
vt -91.03211000 0.42903610
vt -90.88670000 0.42903610
vt -91.06758000 0.46095380
vt -90.32080000 2.10471900
vt -90.96799000 2.12088400
vt -90.32080000 2.12088400
vt -90.96799000 2.10471900
vt -90.32080000 0.84941200
vt -90.96799000 0.84941200
vt -89.90993000 1.75583800
vt -90.91135000 1.77210100
vt -89.90993000 1.77210100
vt -90.91135000 1.75583800
vt -89.90993000 0.49297210
vt -90.91135000 0.49297210
vt -90.98904000 2.18684800
vt -91.13354000 1.32244700
vt -91.13354000 2.18738200
vt -90.98904000 1.32244700
vt -90.95380000 1.35750900
vt -90.95380000 2.15179100
vt -91.09212000 0.88294050
vt -91.09212000 2.06173600
vt -90.95213000 2.06173600
vt -90.95213000 0.88294050
vt -91.21838000 1.22249400
vt -91.21838000 2.28583800
vt -91.07838000 2.28583600
vt -91.07838000 1.22249400
vt -91.02264000 1.39436700
vt -91.02264000 2.13289800
vt -90.87817000 2.13289800
vt -90.87817000 1.39490200
vt -90.98146000 0.86375170
vt -90.98146000 2.08092500
vt -91.12601000 0.86375170
vt -90.89836000 2.18736100
vt -90.89836000 1.32245800
vt -91.04285000 2.18686600
vt -91.00922000 2.33503700
vt -91.00922000 1.23712500
vt -91.15376000 2.33503700
vt -90.93195000 1.39484600
vt -90.78748000 2.13288800
vt -90.78748000 1.39436400
vt -90.93195000 2.13288800
vt -90.96719000 2.09783600
vt -90.96719000 1.42989900
vt -90.46132000 2.10472100
vt -91.23079000 2.12088800
vt -90.46132000 2.12088800
vt -91.23079000 2.10472100
vt -90.46132000 0.84941020
vt -91.23079000 0.84941020
vt -89.82738000 2.13590100
vt -90.94492000 2.11963800
vt -90.94492000 2.13590100
vt -89.82738000 2.11963800
vt -89.82738000 0.85680740
vt -90.94492000 0.85680740
vt -91.00843000 1.78778200
vt -90.83521000 1.78777700
vt -90.83521000 1.74088700
vt -91.00843000 1.74088700
vt -91.00843000 0.45487740
vt -90.83521000 0.45487740
vt -90.95298000 1.78779800
vt -90.77976000 1.78779800
vt -90.77976000 1.74090100
vt -90.95298000 1.74090100
vt -90.95298000 0.45486160
vt -90.77976000 0.45486160
vt -90.67574000 1.78778100
vt -90.50253000 1.78778100
vt -90.50253000 1.74089100
vt -90.67574000 1.74089100
vt -90.67574000 0.45487640
vt -90.50253000 0.45487640
vt -90.72036000 1.78170400
vt -90.72035000 1.76491000
vt -90.72036000 0.46094940
vt -91.23410000 1.78169800
vt -91.23411000 1.76490700
vt -91.23410000 0.46095730
vt -90.55402000 1.76492200
vt -90.55402000 1.78171600
vt -90.55402000 0.46093710
vt -90.97909000 0.82589760
vt -90.94492000 0.85680740
vt -89.82738000 0.85680740
vt -89.79322000 0.82589760
vt -91.12302000 1.78169800
vt -91.12302000 1.76490600
vt -91.12302000 0.46095840
vt -90.84293000 1.42995300
vt -90.84293000 2.09784800
vt -89.90993000 0.49297210
vt -89.87575000 0.46206150
vt -90.94553000 0.46206150
vt -90.91135000 0.49297210
vt -90.60947000 1.78170100
vt -90.60946000 1.76490800
vt -90.60947000 0.46095160
vt -91.06758000 1.78170200
vt -91.06758000 1.76491000
vt -90.66491000 0.46096040
vt -90.70038000 0.42904540
vt -90.70038000 1.76489900
vt -90.84579000 0.42904540
vt -90.84579000 1.81361400
vt -90.84579000 1.76489900
f 3/3/3 2/2/2 1/1/1
f 4/4/4 3/3/3 1/1/1
f 7/7/7 6/6/6 5/5/5
f 10/10/10 9/9/9 8/8/8
f 13/13/13 12/12/12 11/11/11
f 16/16/16 15/15/15 14/14/14
f 17/17/17 16/16/16 14/14/14
f 14/14/14 15/15/15 18/18/18
f 15/15/15 19/19/19 18/18/18
f 22/22/22 21/21/21 20/20/20
f 25/25/25 24/24/24 23/23/23
f 26/26/26 25/25/25 23/23/23
f 26/26/26 27/27/27 25/25/25
f 27/27/27 28/28/28 25/25/25
f 31/31/31 30/30/30 29/29/29
f 30/30/30 32/32/32 29/29/29
f 29/29/29 32/32/32 33/33/33
f 32/32/32 34/34/34 33/33/33
f 36/36/36 17/17/17 35/35/35
f 17/17/17 14/14/14 35/35/35
f 35/35/35 14/14/14 37/37/37
f 14/14/14 18/18/18 37/37/37
f 40/40/40 39/39/39 38/38/38
f 41/41/41 40/40/40 38/38/38
f 44/44/44 43/43/43 42/42/42
f 45/45/45 44/44/44 42/42/42
f 45/45/45 46/46/46 44/44/44
f 46/46/46 47/47/47 44/44/44
f 50/50/50 49/49/49 48/48/48
f 49/49/49 51/51/51 48/48/48
f 48/48/48 51/51/51 52/52/52
f 51/51/51 53/53/53 52/52/52
f 56/56/56 55/55/55 54/54/54
f 57/57/57 56/56/56 54/54/54
f 60/60/60 59/59/59 58/58/58
f 59/59/59 61/61/61 58/58/58
f 58/58/58 61/61/61 62/62/62
f 61/61/61 63/63/63 62/62/62
f 66/66/66 65/65/65 64/64/64
f 65/65/65 67/67/67 64/64/64
f 65/65/65 68/68/68 67/67/67
f 68/68/68 69/69/69 67/67/67
f 70/70/70 68/68/68 65/65/65
f 73/73/73 72/72/72 71/71/71
f 72/72/72 74/74/74 71/71/71
f 71/71/71 74/74/74 75/75/75
f 74/74/74 76/76/76 75/75/75
f 79/79/79 78/78/78 77/77/77
f 78/78/78 80/80/80 77/77/77
f 77/77/77 80/80/80 81/81/81
f 80/80/80 82/82/82 81/81/81
f 85/85/85 84/84/84 83/83/83
f 84/84/84 86/86/86 83/83/83
f 83/83/83 86/86/86 87/87/87
f 88/88/88 83/83/83 87/87/87
f 91/91/91 90/90/90 89/89/89
f 92/92/92 91/91/91 89/89/89
f 95/95/95 94/94/94 93/93/93
f 96/96/96 95/95/95 93/93/93
f 99/99/99 98/98/98 97/97/97
f 100/100/100 99/99/99 97/97/97
f 102/102/102 10/10/10 101/101/101
f 10/10/10 103/103/103 101/101/101
f 103/103/103 10/10/10 8/8/8
f 6/6/6 105/105/105 104/104/104
f 106/106/106 6/6/6 104/104/104
f 6/6/6 106/106/106 5/5/5
f 108/108/108 107/107/107 12/12/12
f 107/107/107 109/109/109 12/12/12
f 12/12/12 109/109/109 11/11/11
f 112/112/112 111/111/111 110/110/110
f 111/111/111 113/113/113 110/110/110
f 110/110/110 113/113/113 114/114/114
f 115/115/115 110/110/110 114/114/114
f 118/118/118 117/117/117 116/116/116
f 117/117/117 119/119/119 116/116/116
f 116/116/116 119/119/119 120/120/120
f 119/119/119 121/121/121 120/120/120
f 124/124/124 123/123/123 122/122/122
f 123/123/123 125/125/125 122/122/122
f 126/126/126 125/125/125 123/123/123
f 127/127/127 126/126/126 123/123/123
f 130/130/130 129/129/129 128/128/128
f 131/131/131 130/130/130 128/128/128
f 131/131/131 132/132/132 130/130/130
f 132/132/132 133/133/133 130/130/130
f 136/136/136 135/135/135 134/134/134
f 137/137/137 136/136/136 134/134/134
f 137/137/137 138/138/138 136/136/136
f 138/138/138 139/139/139 136/136/136
f 142/142/142 141/141/141 140/140/140
f 143/143/143 142/142/142 140/140/140
f 143/143/143 144/144/144 142/142/142
f 144/144/144 145/145/145 142/142/142
f 147/147/147 146/146/146 31/31/31
f 29/29/29 147/147/147 31/31/31
f 29/29/29 33/33/33 147/147/147
f 33/33/33 148/148/148 147/147/147
f 23/23/23 149/149/149 26/26/26
f 149/149/149 150/150/150 26/26/26
f 26/26/26 150/150/150 27/27/27
f 150/150/150 151/151/151 27/27/27
f 153/153/153 60/60/60 152/152/152
f 60/60/60 58/58/58 152/152/152
f 152/152/152 58/58/58 154/154/154
f 58/58/58 62/62/62 154/154/154
f 157/157/157 156/156/156 155/155/155
f 158/158/158 157/157/157 155/155/155
f 49/49/49 159/159/159 51/51/51
f 159/159/159 160/160/160 51/51/51
f 51/51/51 160/160/160 53/53/53
f 160/160/160 161/161/161 53/53/53
f 99/99/99 100/100/100 162/162/162
f 163/163/163 99/99/99 162/162/162
f 166/166/166 165/165/165 164/164/164
f 167/167/167 166/166/166 164/164/164
f 169/169/169 168/168/168 43/43/43
f 44/44/44 169/169/169 43/43/43
f 44/44/44 47/47/47 169/169/169
f 47/47/47 170/170/170 169/169/169
f 65/65/65 66/66/66 171/171/171
f 172/172/172 65/65/65 171/171/171
f 172/172/172 70/70/70 65/65/65
f 174/174/174 173/173/173 22/22/22
f 175/175/175 174/174/174 22/22/22
f 175/175/175 22/22/22 20/20/20
f 176/176/176 174/174/174 175/175/175
f 175/175/175 20/20/20 177/177/177
f 178/178/178 176/176/176 175/175/175
f 178/178/178 175/175/175 177/177/177

