mtllib material.mtl
usemtl material_0
v -0.52905060 -1.00803700 -0.38877810
v -0.52905060 -1.00803700 -0.38878780
v -0.52904140 -1.00803700 -0.38878780
v -0.52904140 -1.00803700 -0.38877810
v -0.20740480 0.54730410 0.09543274
v -0.23093750 0.67064130 0.09543274
v -0.10754520 0.69418500 0.09543274
v -0.08401184 0.57084770 0.09543274
v -0.15824220 0.72169420 0.09650207
v -0.13227780 0.66999660 0.09650207
v -0.18423770 0.64390000 0.09650207
v -0.16446780 0.71856770 0.09650207
v -0.21020260 0.69559760 0.09650207
v -0.28570370 0.46516570 0.09650207
v -0.27497070 0.38123990 0.09650207
v -0.35691040 0.37076090 0.09650207
v -0.29333860 0.46418930 0.09650207
v -0.32683960 0.45990490 0.09650207
v -0.35429140 0.45639420 0.09650207
v -0.36764400 0.45468670 0.09650207
v -0.45012020 0.31422090 0.09543274
v -0.44151550 0.43948790 0.09543274
v -0.31619140 0.43087970 0.09543274
v -0.32479610 0.30561260 0.09543274
vn 0.00000000 1.00000000 0.00000000
vn 0.00000000 1.00000000 0.00000000
vn 0.00000000 1.00000000 0.00000000
vn 0.00000000 1.00000000 0.00000000
vn 0.00000000 0.00000000 1.00000000
vn 0.00000000 0.00000000 1.00000000
vn 0.00000000 0.00000000 1.00000000
vn 0.00000000 0.00000000 1.00000000
vn -0.00000023 0.00000000 1.00000000
vn -0.00000023 0.00000000 1.00000000
vn -0.00000023 0.00000000 1.00000000
vn -0.00000023 0.00000000 1.00000000
vn -0.00000023 0.00000000 1.00000000
vn 0.00000000 0.00000000 1.00000000
vn 0.00000000 0.00000000 1.00000000
vn 0.00000000 0.00000000 1.00000000
vn 0.00000000 0.00000000 1.00000000
vn 0.00000000 0.00000000 1.00000000
vn 0.00000000 0.00000000 1.00000000
vn 0.00000000 0.00000000 1.00000000
vn 0.00000000 0.00000000 1.00000000
vn 0.00000000 0.00000000 1.00000000
vn 0.00000000 0.00000000 1.00000000
vn 0.00000000 0.00000000 1.00000000
vt 5.64693300 -121.22410000
vt 5.64693300 -119.51250000
vt 7.35848600 -119.51250000
vt 7.35848600 -121.22410000
vt 0.80015090 0.20006030
vt 0.80015090 0.39966830
vt 0.99984910 0.39966830
vt 0.99984910 0.20006040
vt 0.40267220 0.79791720
vt 0.40267220 0.59946710
vt 0.19996830 0.59946710
vt 0.37583620 0.79791720
vt 0.19996830 0.79791720
vt 1.00219400 0.80403050
vt 1.00219400 0.59946710
vt 0.79780600 0.59946710
vt 0.98315010 0.80403040
vt 0.89958570 0.80403050
vt 0.83111100 0.80403040
vt 0.79780600 0.80403050
vt 0.20115160 0.20106060
vt 0.20115160 0.39866800
vt 0.39884840 0.39866800
vt 0.39884840 0.20106060
f 3/3/3 2/2/2 1/1/1
f 4/4/4 3/3/3 1/1/1
f 7/7/7 6/6/6 5/5/5
f 8/8/8 7/7/7 5/5/5
f 11/11/11 10/10/10 9/9/9
f 9/9/9 12/12/12 11/11/11
f 12/12/12 13/13/13 11/11/11
f 16/16/16 15/15/15 14/14/14
f 14/14/14 17/17/17 16/16/16
f 17/17/17 18/18/18 16/16/16
f 18/18/18 19/19/19 16/16/16
f 19/19/19 20/20/20 16/16/16
f 23/23/23 22/22/22 21/21/21
f 24/24/24 23/23/23 21/21/21

