mtllib material.mtl
usemtl material_0
v -0.93609130 0.38862600 0.91549270
v -0.93609130 0.38862600 -0.32266590
v -0.93504880 -0.43740380 -0.32266590
v -0.93609130 -0.43740380 0.91549270
v -0.93609130 0.38862600 -0.32266590
v 1.52231100 0.38862600 -0.32370780
v 1.52231100 -0.43740380 -0.32370810
v -0.93504880 -0.43740380 -0.32266590
v 1.52231100 -0.43740380 -0.32370810
v 1.52231100 0.38862600 -0.32370780
v 1.52231100 0.38862600 -0.91330740
v 1.52231000 -0.43727350 -0.34370740
v 1.52231200 -0.51740400 -0.91330740
v 1.52231000 -0.51727350 -0.34370740
v -1.52568700 0.38862600 0.91549420
v -0.93609130 0.38862600 0.91549270
v -0.93609130 -0.43740380 0.91549270
v -0.95609370 -0.43727330 0.91548960
v -1.52568700 -0.51740400 0.91549480
v -0.95609370 -0.51727340 0.91548960
v -0.95609370 -0.43727330 0.91548960
v -0.95505240 -0.43714290 -0.34267110
v -0.95609490 -0.51714300 -0.34371330
v -0.95609370 -0.51727340 0.91548960
v -1.52568700 0.38862600 -0.91330740
v -1.52568700 0.38862600 0.91549420
v -1.52568700 -0.51740400 0.91549480
v -1.52568700 -0.51740400 -0.91330740
v 1.52231100 0.38862600 -0.91330740
v -1.52568700 0.38862600 -0.91330740
v -1.52568700 -0.51740400 -0.91330740
v 1.52231200 -0.51740400 -0.91330740
v -0.95505240 -0.43714290 -0.34267110
v 1.52231000 -0.43727350 -0.34370740
v 1.52231000 -0.51727350 -0.34370740
v -0.95609490 -0.51714300 -0.34371330
v -0.93609130 -0.43740380 0.91549270
v -0.95505240 -0.43714290 -0.34267110
v -0.95609370 -0.43727330 0.91548960
v -0.93504880 -0.43740380 -0.32266590
v 1.52231000 -0.43727350 -0.34370740
v 1.52231100 -0.43740380 -0.32370810
v -0.95609370 -0.51727340 0.91548960
v -1.52568700 -0.51740400 -0.91330740
v -1.52568700 -0.51740400 0.91549480
v -0.95609490 -0.51714300 -0.34371330
v 1.52231200 -0.51740400 -0.91330740
v 1.52231000 -0.51727350 -0.34370740
vn 0.57735010 0.00036428 0.00024305
vn 0.57735010 0.00036428 0.00024305
vn 0.57735010 0.00036428 0.00024305
vn 0.57735010 0.00036428 0.00024305
vn 0.00024482 0.00000000 0.57735020
vn 0.00024482 0.00000000 0.57735020
vn 0.00024482 0.00000000 0.57735020
vn 0.00024482 0.00000000 0.57735020
vn 0.57735030 -0.00000196 -0.00000116
vn 0.57735030 -0.00000183 -0.00000108
vn 0.57735030 -0.00000047 0.00000027
vn 0.57735030 0.00000000 0.00000084
vn 0.57735030 0.00000161 0.00000237
vn 0.57735030 0.00000161 0.00000237
vn 0.00000132 -0.00000010 0.57735030
vn -0.00000120 -0.00000099 0.57735030
vn -0.00000134 -0.00000210 0.57735030
vn 0.00000236 -0.00000071 0.57735030
vn 0.00000522 0.00000036 0.57735030
vn 0.00000522 0.00000036 0.57735030
vn 0.57733800 -0.00375368 0.00023814
vn 0.57733800 -0.00375368 0.00023814
vn 0.57733800 -0.00375368 0.00023814
vn 0.57733800 -0.00375368 0.00023814
vn -0.57735030 0.00000000 0.00000000
vn -0.57735030 0.00000000 0.00000000
vn -0.57735030 0.00000000 0.00000000
vn -0.57735030 0.00000000 0.00000000
vn 0.00000000 0.00000000 -0.57735030
vn 0.00000000 0.00000000 -0.57735030
vn 0.00000000 0.00000000 -0.57735030
vn 0.00000000 0.00000000 -0.57735030
vn 0.00011989 -0.00376132 0.57733800
vn 0.00011989 -0.00376132 0.57733800
vn 0.00011989 -0.00376132 0.57733800
vn 0.00011989 -0.00376132 0.57733800
vn -0.00563158 -0.57732280 -0.00003486
vn -0.00190444 -0.57733490 -0.00375447
vn -0.00563158 -0.57732280 -0.00003486
vn -0.00190373 -0.57733490 -0.00375518
vn -0.00001766 -0.57732270 -0.00563726
vn -0.00001766 -0.57732270 -0.00563726
vn 0.00021060 -0.57735030 -0.00002437
vn 0.00006674 -0.57735030 0.00012287
vn 0.00021060 -0.57735030 -0.00002437
vn 0.00006675 -0.57735030 0.00012287
vn -0.00001364 -0.57735030 0.00020514
vn -0.00001364 -0.57735030 0.00020514
vt -20.22929000 0.73929980
vt -19.26197000 0.73929980
vt -19.26197000 0.09396553
vt -20.22929000 0.09396553
vt -20.71409000 1.12048300
vt -18.79346000 1.12048300
vt -18.79346000 0.47515110
vt -20.71328000 0.47515110
vt -19.42083000 0.03840446
vt -20.06617000 0.03840446
vt -20.06617000 0.49902920
vt -19.42093000 0.05402756
vt -19.35833000 0.49902920
vt -19.35843000 0.05402756
vt -20.06617000 -0.08575058
vt -20.06617000 0.37487410
vt -19.42084000 0.37487410
vt -19.42094000 0.35924720
vt -19.35833000 -0.08575058
vt -19.35844000 0.35924720
vt -20.23963000 0.54454800
vt -19.25668000 0.54464530
vt -19.25587000 0.48214530
vt -20.23963000 0.48204420
vt -20.40487000 0.97201540
vt -18.97613000 0.97201540
vt -18.97612000 0.26417920
vt -20.40487000 0.26417920
vt -18.12056000 -0.29735560
vt -20.50181000 -0.29735580
vt -20.50181000 0.41048040
vt -18.12056000 0.41048050
vt -20.22126000 0.56743430
vt -18.28579000 0.56733320
vt -18.28579000 0.50483320
vt -20.22208000 0.50493430
vt -20.20646000 1.16980900
vt -20.22127000 0.18684200
vt -20.22208000 1.16980600
vt -20.20564000 0.20247270
vt -18.28578000 0.18603330
vt -18.28578000 0.20166020
vt -20.05681000 1.05191800
vt -20.50181000 -0.37682740
vt -20.50181000 1.05192400
vt -20.05681000 0.06816673
vt -18.12056000 -0.37682720
vt -18.12056000 0.06817251
f 3/3/3 2/2/2 1/1/1
f 4/4/4 3/3/3 1/1/1
f 7/7/7 6/6/6 5/5/5
f 8/8/8 7/7/7 5/5/5
f 11/11/11 10/10/10 9/9/9
f 12/12/12 11/11/11 9/9/9
f 13/13/13 11/11/11 12/12/12
f 14/14/14 13/13/13 12/12/12
f 17/17/17 16/16/16 15/15/15
f 18/18/18 17/17/17 15/15/15
f 18/18/18 15/15/15 19/19/19
f 20/20/20 18/18/18 19/19/19
f 23/23/23 22/22/22 21/21/21
f 24/24/24 23/23/23 21/21/21
f 27/27/27 26/26/26 25/25/25
f 28/28/28 27/27/27 25/25/25
f 31/31/31 30/30/30 29/29/29
f 32/32/32 31/31/31 29/29/29
f 35/35/35 34/34/34 33/33/33
f 36/36/36 35/35/35 33/33/33
f 39/39/39 38/38/38 37/37/37
f 38/38/38 40/40/40 37/37/37
f 38/38/38 41/41/41 40/40/40
f 41/41/41 42/42/42 40/40/40
f 45/45/45 44/44/44 43/43/43
f 44/44/44 46/46/46 43/43/43
f 44/44/44 47/47/47 46/46/46
f 47/47/47 48/48/48 46/46/46