mtllib material.mtl
usemtl material_0
v -1.52568700 0.38862600 0.91549420
v -1.52568700 0.41862590 0.91549270
v -0.93609130 0.41862590 0.91549270
v -0.93609130 0.38862600 0.91549270
v -0.91608760 0.41862590 0.91549270
v -0.91608760 0.38862600 0.91549270
v 1.52231100 0.41862590 -0.91330740
v 1.52231100 0.38862600 -0.91330740
v 1.52231100 0.38862600 -0.32370780
v 1.52231100 0.41862590 -0.32370780
v 1.52231100 0.38862600 -0.30370810
v 1.52231100 0.41862590 -0.30370810
v -1.52568700 0.38862600 -0.91330740
v -1.52568700 0.41862590 -0.91330740
v -1.52568700 0.41862590 0.91549270
v -1.52568700 0.38862600 0.91549420
v -1.52568700 0.41862590 -0.91330740
v -0.93609130 0.41862590 0.91549270
v -1.52568700 0.41862590 0.91549270
v -0.93609130 0.41862590 -0.32370810
v 1.52231100 0.41862590 -0.32370780
v 1.52231100 0.41862590 -0.91330740
v -0.91608760 0.41862590 -0.30370810
v -0.91608760 0.41862590 0.91549270
v 1.52231100 0.41862590 -0.30370810
v -0.91608760 0.41862590 -0.30370810
v -0.91608760 0.38862600 -0.30370810
v -0.91608760 0.38862600 0.91549270
v -0.91608760 0.41862590 0.91549270
v -1.52568700 0.41862590 -0.91330740
v -1.52568700 0.38862600 -0.91330740
v 1.52231100 0.38862600 -0.91330740
v 1.52231100 0.41862590 -0.91330740
v -0.91608760 0.38862600 -0.30370810
v -0.91608760 0.41862590 -0.30370810
v 1.52231100 0.41862590 -0.30370810
v 1.52231100 0.38862600 -0.30370810
v -0.91608760 0.38862600 0.91549270
v -0.93609130 0.38862600 -0.32266590
v -0.93609130 0.38862600 0.91549270
v -0.91608760 0.38862600 -0.30370810
v 1.52231100 0.38862600 -0.32370780
v 1.52231100 0.38862600 -0.30370810
vn 0.00000132 -0.00000010 0.57735030
vn 0.00000080 0.00001468 0.57735030
vn 0.00000077 0.00001420 0.57735030
vn -0.00000120 -0.00000099 0.57735030
vn 0.00000000 0.00000000 0.57735030
vn 0.00000000 0.00000000 0.57735030
vn 0.57735030 0.00000000 0.00000000
vn 0.57735030 -0.00000047 0.00000027
vn 0.57735030 -0.00000183 -0.00000108
vn 0.57735030 0.00000000 0.00000000
vn 0.57735030 0.00000000 0.00000000
vn 0.57735030 0.00000000 0.00000000
vn -0.57735030 0.00000000 0.00000000
vn -0.57735030 0.00000000 0.00000000
vn -0.57735030 0.00000000 0.00000000
vn -0.57735030 0.00000000 0.00000000
vn 0.00000000 0.57735030 0.00000000
vn 0.00000000 0.57735030 0.00000000
vn 0.00000000 0.57735030 0.00000000
vn 0.00000000 0.57735030 0.00000000
vn 0.00000000 0.57735030 0.00000000
vn 0.00000000 0.57735030 0.00000000
vn 0.00000000 0.57735030 0.00000000
vn 0.00000000 0.57735030 0.00000000
vn 0.00000000 0.57735030 0.00000000
vn 0.57735030 0.00000000 0.00000000
vn 0.57735030 0.00000000 0.00000000
vn 0.57735030 0.00000000 0.00000000
vn 0.57735030 0.00000000 0.00000000
vn 0.00000000 0.00000000 -0.57735030
vn 0.00000000 0.00000000 -0.57735030
vn 0.00000000 0.00000000 -0.57735030
vn 0.00000000 0.00000000 -0.57735030
vn 0.00000000 0.00000000 0.57735030
vn 0.00000000 0.00000000 0.57735030
vn 0.00000000 0.00000000 0.57735030
vn 0.00000000 0.00000000 0.57735030
vn 0.00000000 -0.57735030 0.00000000
vn 0.00000000 -0.57735030 0.00000000
vn 0.00000000 -0.57735030 0.00000000
vn 0.00000000 -0.57735030 0.00000000
vn 0.00000000 -0.57735030 0.00000000
vn 0.00000000 -0.57735030 0.00000000
vt -10.55273000 1.17862000
vt -10.55273000 1.22549400
vt -9.63145400 1.22549400
vt -9.63145400 1.17862000
vt -9.60019600 1.22549400
vt -9.60019600 1.17862000
vt -9.60627700 1.21025200
vt -9.60627700 1.16338000
vt -10.52754000 1.16338000
vt -10.52754000 1.21025200
vt -10.55879000 1.16338000
vt -10.55879000 1.21025200
vt -10.94606000 1.18357400
vt -10.94606000 1.23044900
vt -8.08854700 1.23044900
vt -8.08854500 1.18357400
vt -12.08361000 1.93217300
vt -11.16236000 -0.92532810
vt -12.08361000 -0.92532810
vt -11.16236000 1.01092600
vt -7.32111100 1.01092100
vt -7.32111200 1.93217300
vt -11.13111000 0.97967440
vt -11.13111000 -0.92532810
vt -7.32111200 0.97967420
vt -9.03140100 1.24073700
vt -9.03140100 1.19386300
vt -10.93647000 1.19386300
vt -10.93647000 1.24073700
vt -12.08368000 0.76844800
vt -12.08368000 0.81532200
vt -7.32104100 0.81532080
vt -7.32104100 0.76844680
vt -11.51488000 1.16798300
vt -11.51488000 1.21485700
vt -7.70477700 1.21485700
vt -7.70477700 1.16798300
vt -11.50222000 1.95913100
vt -11.53348000 0.02452379
vt -11.53348000 1.95913100
vt -11.50222000 0.05414498
vt -7.69225200 0.02289673
vt -7.69225200 0.05414483
f 3/3/3 2/2/2 1/1/1
f 4/4/4 3/3/3 1/1/1
f 5/5/5 3/3/3 4/4/4
f 6/6/6 5/5/5 4/4/4
f 9/9/9 8/8/8 7/7/7
f 10/10/10 9/9/9 7/7/7
f 11/11/11 9/9/9 10/10/10
f 12/12/12 11/11/11 10/10/10
f 15/15/15 14/14/14 13/13/13
f 16/16/16 15/15/15 13/13/13
f 19/19/19 18/18/18 17/17/17
f 18/18/18 20/20/20 17/17/17
f 17/17/17 20/20/20 21/21/21
f 22/22/22 17/17/17 21/21/21
f 23/23/23 20/20/20 18/18/18
f 21/21/21 20/20/20 23/23/23
f 24/24/24 23/23/23 18/18/18
f 25/25/25 21/21/21 23/23/23
f 28/28/28 27/27/27 26/26/26
f 29/29/29 28/28/28 26/26/26
f 32/32/32 31/31/31 30/30/30
f 33/33/33 32/32/32 30/30/30
f 36/36/36 35/35/35 34/34/34
f 37/37/37 36/36/36 34/34/34
f 40/40/40 39/39/39 38/38/38
f 39/39/39 41/41/41 38/38/38
f 39/39/39 42/42/42 41/41/41
f 42/42/42 43/43/43 41/41/41