####
#
# OBJ File Generated by Meshlab
#
####
# Object hand.obj
#
# Vertices: 102
# Faces: 200
#
####
vn 4.1136651 0.5931796 3.4931316
v 0.0167349 0.0901289 0.0644319
vn 5.1622581 -0.5465723 2.7187586
v 0.0171343 -0.0892712 0.0636144
vn 6.1641512 -0.0588445 0.6133723
v 0.0315898 -0.0005585 0.0062142
vn -5.0399380 -2.9321702 -0.4558206
v -0.0170537 -0.0955248 0.0221212
vn -5.3345900 -2.4729681 0.3300449
v -0.0175104 -0.0979076 0.0516662
vn -5.4817238 -0.3264681 -1.8407562
v -0.0315975 -0.0019865 0.0011529
vn -5.6217289 0.7890867 -1.7274908
v -0.0259810 0.0757697 -0.0050822
vn -6.1625333 -0.0678346 0.5721525
v -0.0316359 -0.0005787 0.0059731
vn 4.9314060 -3.0349536 -0.3901335
v 0.0170332 -0.0968023 0.0303220
vn 5.4777040 -0.3081034 -1.8115174
v 0.0316158 -0.0018609 0.0011797
vn 5.6314540 -2.1508336 0.4006792
v 0.0175851 -0.0974071 0.0519846
vn 5.5512514 1.5695287 1.7128298
v 0.0185559 0.0946019 0.0566173
vn -5.3268638 -2.5706925 -0.9069977
v -0.0168042 -0.0919061 0.0062955
vn -5.4472561 -1.9309075 -1.7430460
v -0.0168122 -0.0875329 -0.0012065
vn 3.3482361 -4.6350870 0.1779080
v 0.0162301 -0.0995375 0.0515841
vn -0.0022183 -5.9824247 -0.0491585
v -0.0000411 -0.1039897 0.0056909
vn -0.0073290 -5.4733620 -1.2597524
v -0.0000173 -0.1037427 -0.0091993
vn -3.1497672 -3.9156160 -2.5652170
v -0.0036168 -0.1011578 -0.0126103
vn -3.0680618 -4.9690161 -1.1090515
v -0.0034296 -0.1025978 -0.0089643
vn -6.2009935 0.7989501 0.2625920
v -0.0252704 0.0820651 0.0051970
vn -4.7264066 0.2670230 -3.0237041
v -0.0280109 0.0417843 -0.0063964
vn 0.0284479 1.9265695 5.5908403
v -0.0001126 0.0928085 0.0659622
vn -1.0978297 3.1949027 4.6691461
v -0.0125667 0.0937125 0.0651685
vn -1.8192916 1.1639681 5.3243904
v -0.0144220 0.0912765 0.0656897
vn -5.0812364 -1.1990994 2.3776603
v -0.0172547 -0.0907003 0.0630820
vn -3.0909219 -0.8562286 4.7327743
v -0.0154717 -0.0907063 0.0651901
vn -4.4281526 0.7150872 3.4276650
v -0.0167672 0.0902522 0.0643322
vn 5.2718163 -2.5388947 -0.9602896
v 0.0169555 -0.0916029 0.0055628
vn 5.5627508 -1.7704785 1.4638352
v 0.0176072 -0.0938476 0.0584485
vn 1.3157573 -5.2139573 2.0096991
v 0.0125057 -0.1001875 0.0568941
vn 1.8912499 5.0289979 1.4089172
v 0.0155509 0.1001998 0.0546726
vn 4.5463085 3.4506319 0.3426360
v 0.0192688 0.0984936 0.0449417
vn 1.5452526 5.7865958 -0.1332106
v 0.0162184 0.1002852 0.0458698
vn 1.9266583 0.2601409 -5.6684914
v 0.0019174 -0.0455199 -0.0256594
vn 4.7679334 0.2532641 -3.0022898
v 0.0280151 0.0420423 -0.0063496
vn 4.0975924 -0.5851142 -4.4037657
v 0.0038103 -0.0829662 -0.0244493
vn 6.1203699 0.9869339 0.7017508
v 0.0206709 0.0936918 0.0433083
vn 6.2156305 0.7369228 0.2475093
v 0.0254479 0.0811805 0.0035006
vn -3.6443961 -0.7761633 -4.5856547
v -0.0036368 -0.0835859 -0.0246063
vn -5.4471784 -1.2039236 -2.6531920
v -0.0165327 -0.0822363 -0.0051181
vn -1.9447815 -5.0202885 1.6580781
v -0.0140171 -0.1000911 0.0560269
vn -3.2770436 -4.9285841 -0.0724357
v -0.0160131 -0.0996286 0.0493014
vn -3.4855452 -1.9481726 -4.1862884
v -0.0032151 -0.0877660 -0.0238844
vn -0.9069714 -2.0589275 5.1702204
v -0.0129879 -0.0924958 0.0657119
vn -0.0347236 -1.9415110 5.5810509
v -0.0005056 -0.0929453 0.0659531
vn 1.2189152 2.0794981 4.8600178
v 0.0135396 0.0926721 0.0656879
vn 1.1166070 -1.3371814 5.6325798
v 0.0134248 -0.0919270 0.0657313
vn -5.4346619 2.1907077 0.9043491
v -0.0192292 0.0972606 0.0505884
vn 5.4040108 -1.5657728 -2.1958172
v 0.0165582 -0.0851322 -0.0038727
vn 3.0468929 -5.0503798 -0.9049957
v 0.0034948 -0.1027156 -0.0080293
vn 4.9952126 2.7282836 -0.8914127
v 0.0238692 0.0904014 0.0043682
vn 5.1641364 2.7801585 -0.0635483
v 0.0227078 0.0937356 0.0143400
vn 5.6611681 0.7554458 -1.7116401
v 0.0260343 0.0752976 -0.0050308
vn 3.6095665 0.6912140 -4.5488358
v 0.0248167 0.0743775 -0.0071557
vn -1.4721415 0.2367079 -5.6591325
v -0.0015001 -0.0458698 -0.0259248
vn -0.0237003 1.8619952 -5.9070473
v -0.0008338 0.0802600 -0.0073217
vn 1.6938384 1.4205134 -5.5016260
v 0.0229591 0.0779014 -0.0073990
vn -1.8150376 1.8934897 -5.0841856
v -0.0227611 0.0801744 -0.0069095
vn -0.0043688 -3.5601268 -3.6385884
v 0.0000318 -0.0994514 -0.0171612
vn -4.4090858 -3.5116627 1.4052278
v -0.0166321 -0.0985540 0.0547339
vn 3.1154642 -3.9468176 -2.5094013
v 0.0036021 -0.1011947 -0.0126276
vn -0.0597611 4.5179467 4.2359219
v -0.0016167 0.0974711 0.0623073
vn 3.3219099 -1.6999640 3.8554907
v 0.0157184 -0.0917796 0.0649125
vn -5.8339448 1.0566682 1.6235621
v -0.0184487 0.0920155 0.0583932
vn -0.5346783 -2.1916840 -5.1939321
v -0.0006270 -0.0879747 -0.0249616
vn 3.1254959 -2.0466919 -4.2323947
v 0.0030760 -0.0879729 -0.0239787
vn 2.2578409 5.2623186 -0.6579902
v 0.0198020 0.0970111 0.0209140
vn 0.7271991 5.2495217 2.3077497
v 0.0099415 0.1000347 0.0583408
vn 4.3526545 3.6613135 1.5803397
v 0.0171295 0.0990672 0.0543052
vn -0.0014976 5.8650274 -2.0484128
v -0.0003141 0.0946153 0.0075747
vn -0.0181119 6.2070436 -0.8764892
v -0.0000159 0.0984961 0.0270818
vn -0.0190122 3.6967304 -4.9449167
v -0.0003373 0.0865616 -0.0041633
vn 2.1507771 3.7991738 -3.5300348
v 0.0223143 0.0882500 -0.0019332
vn 1.5763645 2.7757576 -4.9632339
v 0.0223770 0.0833552 -0.0055261
vn -1.7198716 4.5310993 -3.0718646
v -0.0213250 0.0909269 0.0009798
vn -2.1056974 3.0767899 -4.2688055
v -0.0227328 0.0854345 -0.0041203
vn -4.7320709 2.3144557 -1.9632001
v -0.0244953 0.0858923 -0.0018327
vn 1.7936095 -0.7442597 -5.6761556
v 0.0018428 -0.0840023 -0.0255249
vn -3.3293424 1.0298896 -4.4533701
v -0.0246502 0.0766680 -0.0069321
vn 1.5741435 -3.6889586 4.2256837
v 0.0131387 -0.0940629 0.0646832
vn -0.6171898 -5.2789507 2.4445572
v -0.0093239 -0.0999826 0.0584892
vn -1.8699222 5.5946274 -0.6680987
v -0.0190668 0.0976971 0.0246275
vn -0.3002128 5.5419712 1.8692110
v -0.0044944 0.1004259 0.0581191
vn -1.5507939 5.0977387 1.6711687
v -0.0146231 0.1001682 0.0557349
vn 3.3663654 -4.2276788 1.4086168
v 0.0158049 -0.0994163 0.0549703
vn 2.3395839 4.9614868 -1.3393638
v 0.0213426 0.0943331 0.0089420
vn 0.0019982 5.0757527 -3.5888729
v -0.0001734 0.0909950 0.0005768
vn 1.9395448 4.7772903 -2.6027951
v 0.0214829 0.0917947 0.0026841
vn 4.2328014 1.9055338 -3.4537210
v 0.0245152 0.0817026 -0.0050514
vn 5.1401515 2.1337490 -1.6522549
v 0.0247294 0.0857401 -0.0012317
vn -1.8468397 5.3688459 -1.4262273
v -0.0206576 0.0946679 0.0095380
vn 0.0920405 -5.4850969 2.2450535
v 0.0011906 -0.1003015 0.0586231
vn 0.0162239 -4.3661699 4.4237528
v 0.0004696 -0.0966559 0.0630784
vn 3.2223966 2.8044410 3.7039597
v 0.0153969 0.0929056 0.0645563
vn -0.9187921 -0.4058456 -5.8992100
v -0.0008678 -0.0825485 -0.0258702
vn -4.4629421 3.1140723 -1.0735456
v -0.0235558 0.0911663 0.0046079
vn -2.6626949 -3.3029103 3.7777452
v -0.0146170 -0.0934417 0.0645000
vn -4.9218993 3.0444169 -0.3250041
v -0.0230261 0.0928969 0.0098769
vn -4.8480473 3.0774570 -0.0573287
v -0.0218221 0.0954417 0.0217564
vn -2.6974304 4.7705851 -0.0506141
v -0.0181926 0.0995179 0.0438142
vn -3.7221107 2.8691316 3.2669320
v -0.0160455 0.0932093 0.0636169
vn -3.7018933 4.0578046 1.4279833
v -0.0169948 0.0993629 0.0541148
# 102 vertices, 0 vertices normals

f 1//1 2//2 3//3
f 4//4 5//5 6//6
f 7//7 6//6 8//8
f 9//9 10//10 11//11
f 10//10 3//3 11//11
f 12//12 1//1 3//3
f 13//13 6//6 14//14
f 8//8 6//6 5//5
f 4//4 6//6 13//13
f 15//15 16//16 17//17
f 18//18 19//19 13//13
f 20//20 7//7 8//8
f 21//21 6//6 7//7
f 22//22 23//23 24//24
f 25//25 26//26 27//27
f 28//28 10//10 9//9
f 2//2 29//29 3//3
f 29//29 11//11 3//3
f 30//30 16//16 15//15
f 31//31 32//32 33//33
f 34//34 35//35 36//36
f 37//37 3//3 38//38
f 6//6 39//39 40//40
f 25//25 8//8 5//5
f 41//41 42//42 16//16
f 18//18 14//14 43//43
f 22//22 24//24 44//44
f 44//44 45//45 22//22
f 46//46 22//22 45//45
f 45//45 47//47 46//46
f 20//20 8//8 48//48
f 9//9 11//11 15//15
f 36//36 10//10 49//49
f 50//50 28//28 9//9
f 10//10 36//36 35//35
f 12//12 37//37 32//32
f 37//37 12//12 3//3
f 37//37 38//38 51//51
f 37//37 52//52 32//32
f 52//52 37//37 51//51
f 10//10 35//35 53//53
f 10//10 53//53 38//38
f 10//10 38//38 3//3
f 54//54 35//35 34//34
f 55//55 56//56 57//57
f 56//56 55//55 58//58
f 57//57 54//54 34//34
f 39//39 6//6 21//21
f 59//59 18//18 43//43
f 40//40 39//39 43//43
f 14//14 40//40 43//43
f 14//14 6//6 40//40
f 60//60 25//25 5//5
f 59//59 61//61 17//17
f 42//42 60//60 5//5
f 16//16 42//42 17//17
f 62//62 22//22 46//46
f 22//22 62//62 23//23
f 1//1 46//46 63//63
f 47//47 63//63 46//46
f 25//25 64//64 8//8
f 64//64 25//25 27//27
f 64//64 48//48 8//8
f 65//65 59//59 43//43
f 66//66 36//36 49//49
f 63//63 2//2 1//1
f 33//33 32//32 67//67
f 68//68 62//62 46//46
f 32//32 69//69 12//12
f 70//70 71//71 67//67
f 53//53 35//35 54//54
f 72//72 73//73 74//74
f 75//75 76//76 77//77
f 78//78 55//55 34//34
f 55//55 79//79 58//58
f 4//4 42//42 5//5
f 50//50 15//15 17//17
f 59//59 17//17 18//18
f 7//7 20//20 77//77
f 24//24 26//26 44//44
f 27//27 26//26 24//24
f 45//45 80//80 47//47
f 41//41 16//16 81//81
f 82//82 71//71 70//70
f 62//62 83//83 23//23
f 33//33 84//84 83//83
f 49//49 28//28 61//61
f 61//61 28//28 50//50
f 61//61 50//50 17//17
f 63//63 85//85 29//29
f 85//85 30//30 15//15
f 80//80 85//85 63//63
f 85//85 80//80 30//30
f 9//9 15//15 50//50
f 85//85 15//15 11//11
f 11//11 29//29 85//85
f 83//83 62//62 68//68
f 34//34 36//36 78//78
f 70//70 67//67 86//86
f 71//71 33//33 67//67
f 58//58 76//76 72//72
f 73//73 87//87 88//88
f 72//72 74//74 56//56
f 56//56 74//74 57//57
f 34//34 55//55 57//57
f 21//21 79//79 55//55
f 21//21 7//7 79//79
f 89//89 73//73 90//90
f 39//39 21//21 55//55
f 91//91 82//82 70//70
f 84//84 23//23 83//83
f 28//28 49//49 10//10
f 92//92 80//80 93//93
f 31//31 33//33 68//68
f 68//68 33//33 83//83
f 51//51 86//86 52//52
f 69//69 32//32 31//31
f 46//46 94//94 68//68
f 94//94 31//31 68//68
f 94//94 12//12 69//69
f 76//76 75//75 72//72
f 90//90 53//53 89//89
f 86//86 51//51 88//88
f 75//75 70//70 87//87
f 87//87 70//70 88//88
f 95//95 55//55 78//78
f 39//39 55//55 95//95
f 14//14 18//18 13//13
f 42//42 41//41 60//60
f 19//19 17//17 42//42
f 19//19 4//4 13//13
f 45//45 93//93 80//80
f 92//92 93//93 81//81
f 16//16 30//30 92//92
f 92//92 81//81 16//16
f 96//96 77//77 20//20
f 66//66 59//59 65//65
f 65//65 78//78 66//66
f 59//59 66//66 61//61
f 49//49 61//61 66//66
f 2//2 63//63 29//29
f 80//80 63//63 47//47
f 80//80 92//92 30//30
f 78//78 36//36 66//66
f 94//94 69//69 31//31
f 94//94 46//46 1//1
f 12//12 94//94 1//1
f 70//70 86//86 88//88
f 67//67 52//52 86//86
f 52//52 67//67 32//32
f 57//57 89//89 54//54
f 53//53 90//90 38//38
f 90//90 51//51 38//38
f 75//75 87//87 72//72
f 72//72 87//87 73//73
f 56//56 58//58 72//72
f 42//42 4//4 19//19
f 19//19 18//18 17//17
f 97//97 81//81 44//44
f 81//81 93//93 44//44
f 41//41 97//97 60//60
f 26//26 97//97 44//44
f 98//98 99//99 91//91
f 100//100 33//33 71//71
f 84//84 33//33 100//100
f 96//96 75//75 77//77
f 95//95 78//78 65//65
f 73//73 89//89 74//74
f 53//53 54//54 89//89
f 73//73 88//88 51//51
f 90//90 73//73 51//51
f 41//41 81//81 97//97
f 44//44 93//93 45//45
f 25//25 97//97 26//26
f 101//101 48//48 64//64
f 64//64 27//27 101//101
f 102//102 48//48 101//101
f 96//96 98//98 91//91
f 48//48 99//99 20//20
f 99//99 98//98 20//20
f 98//98 96//96 20//20
f 96//96 91//91 75//75
f 84//84 101//101 23//23
f 27//27 24//24 101//101
f 89//89 57//57 74//74
f 77//77 76//76 79//79
f 79//79 76//76 58//58
f 79//79 7//7 77//77
f 102//102 84//84 100//100
f 91//91 99//99 82//82
f 48//48 100//100 99//99
f 100//100 48//48 102//102
f 75//75 91//91 70//70
f 84//84 102//102 101//101
f 24//24 23//23 101//101
f 43//43 95//95 65//65
f 25//25 60//60 97//97
f 82//82 100//100 71//71
f 43//43 39//39 95//95
f 100//100 82//82 99//99
# 200 faces, 0 coords texture

# End of File
