####
#
# OBJ File Generated by Meshlab
#
####
# Object hand_0.obj
#
# Vertices: 110
# Faces: 42
#
####
mtllib ./hand_0.obj.mtl

vn 1.0000000 -0.0000000 -0.0000000
v 0.0152550 -0.0684630 0.0264380
vn 1.0000000 0.0001000 0.0000000
v 0.0152550 -0.0684630 0.0264380
vn 1.0000000 -0.0001000 0.0001000
v 0.0152550 -0.0684630 0.0264380
vn 1.0000000 -0.0000000 -0.0000000
v 0.0152550 -0.0696270 0.0261360
vn 1.0000000 0.0002000 0.0001000
v 0.0152560 0.0684560 0.0264410
vn 1.0000000 -0.0002000 -0.0002000
v 0.0152560 0.0684560 0.0264410
vn 1.0000000 0.0003000 -0.0001000
v 0.0152560 0.0684560 0.0264410
vn 1.0000000 -0.0000000 -0.0000000
v 0.0152560 0.0684560 0.0264410
vn 1.0000000 0.0007000 -0.0006000
v 0.0152540 0.0693850 0.0133900
vn 1.0000000 -0.0020000 0.0019000
v 0.0152540 0.0693850 0.0133900
vn 1.0000000 0.0003000 -0.0001000
v 0.0152540 0.0693850 0.0133900
vn 1.0000000 -0.0002000 -0.0002000
v 0.0152540 0.0709340 0.0182080
vn 1.0000000 0.0003000 -0.0001000
v 0.0152540 0.0709340 0.0182080
vn 1.0000000 0.0002000 0.0001000
v 0.0152550 0.0719620 0.0221360
vn 1.0000000 -0.0000000 -0.0001000
v 0.0152550 0.0719620 0.0221360
vn 1.0000000 -0.0002000 -0.0002000
v 0.0152550 0.0719620 0.0221360
vn 1.0000000 -0.0000000 -0.0000000
v 0.0152550 0.0718920 0.0232340
vn 1.0000000 0.0002000 0.0001000
v 0.0152550 0.0718920 0.0232340
vn 1.0000000 -0.0000000 -0.0001000
v 0.0152550 0.0718920 0.0232340
vn 1.0000000 0.0002000 0.0001000
v 0.0152550 0.0715520 0.0242910
vn 1.0000000 -0.0000000 -0.0000000
v 0.0152550 0.0708770 0.0252240
vn 1.0000000 0.0002000 0.0001000
v 0.0152550 0.0708770 0.0252240
vn 1.0000000 -0.0000000 -0.0000000
v 0.0152550 0.0701600 0.0258270
vn 1.0000000 -0.0001000 0.0001000
v 0.0152550 -0.0707890 0.0253230
vn 1.0000000 0.0001000 0.0000000
v 0.0152550 -0.0707890 0.0253230
vn 1.0000000 -0.0004000 0.0003000
v 0.0152550 -0.0707890 0.0253230
vn 1.0000000 -0.0000000 -0.0000000
v 0.0152550 -0.0707890 0.0253230
vn 1.0000000 -0.0004000 0.0003000
v 0.0152550 -0.0715900 0.0242340
vn 1.0000000 0.0002000 0.0001000
v 0.0152550 0.0693190 0.0262350
vn 1.0000000 -0.0000000 -0.0001000
v 0.0152550 0.0693190 0.0262350
vn 1.0000000 -0.0000000 -0.0000000
v 0.0152550 0.0693190 0.0262350
vn 1.0000000 0.0007000 0.0006000
v 0.0152550 -0.0663860 0.0110700
vn 1.0000000 -0.0000000 -0.0000000
v 0.0152550 -0.0663860 0.0110700
vn 1.0000000 0.0001000 0.0000000
v 0.0152550 -0.0663860 0.0110700
vn 1.0000000 0.0004000 0.0002000
v 0.0152550 -0.0663860 0.0110700
vn 1.0000000 0.0007000 -0.0006000
v 0.0152550 0.0663070 0.0110610
vn 1.0000000 -0.0000000 -0.0000000
v 0.0152550 0.0663070 0.0110610
vn 1.0000000 0.0003000 -0.0001000
v 0.0152550 0.0663070 0.0110610
vn 1.0000000 -0.0004000 0.0003000
v 0.0152550 -0.0719730 0.0226890
vn 1.0000000 0.0001000 0.0000000
v 0.0152550 -0.0719730 0.0226890
vn 1.0000000 -0.0001000 0.0001000
v 0.0152550 -0.0718560 0.0215860
vn 1.0000000 -0.0000000 -0.0000000
v 0.0152550 -0.0718560 0.0215860
vn 1.0000000 0.0001000 0.0000000
v 0.0152550 -0.0718560 0.0215860
vn 1.0000000 0.0007000 -0.0006000
v 0.0152540 0.0675480 0.0114630
vn 1.0000000 -0.0020000 0.0019000
v 0.0152540 0.0675480 0.0114630
vn 1.0000000 -0.0020000 0.0019000
v 0.0152550 0.0686230 0.0122450
vn 1.0000000 0.0004000 0.0002000
v 0.0152550 -0.0693070 0.0132060
vn 1.0000000 0.0007000 0.0006000
v 0.0152550 -0.0693070 0.0132060
vn 1.0000000 -0.0006000 -0.0007000
v 0.0152550 -0.0693070 0.0132060
vn 1.0000000 -0.0006000 -0.0007000
v 0.0152550 -0.0684720 0.0121090
vn 1.0000000 -0.0006000 -0.0007000
v 0.0152550 -0.0675870 0.0114880
vn 1.0000000 0.0007000 0.0006000
v 0.0152550 -0.0675870 0.0114880
vn 1.0000000 -0.0000000 -0.0000000
v 0.0152550 -0.0707530 0.0176180
vn 1.0000000 0.0001000 0.0000000
v 0.0152550 -0.0707530 0.0176180
vn 1.0000000 0.0004000 0.0002000
v 0.0152550 -0.0707530 0.0176180
vn -1.0000000 0.0001000 0.0000000
v -0.0152550 -0.0684630 0.0264380
vn -1.0000000 -0.0001000 0.0001000
v -0.0152550 -0.0684630 0.0264380
vn -1.0000000 -0.0000000 -0.0000000
v -0.0152550 -0.0684630 0.0264380
vn -1.0000000 -0.0000000 -0.0000000
v -0.0152550 -0.0696270 0.0261360
vn -1.0000000 -0.0000000 -0.0000000
v -0.0152560 0.0684560 0.0264410
vn -1.0000000 0.0003000 0.0002000
v -0.0152560 0.0684560 0.0264410
vn -1.0000000 -0.0002000 -0.0002000
v -0.0152560 0.0684560 0.0264410
vn -1.0000000 0.0000000 -0.0001000
v -0.0152560 0.0684560 0.0264410
vn -1.0000000 0.0003000 -0.0001000
v -0.0152560 0.0684560 0.0264410
vn -1.0000000 -0.0020000 0.0019000
v -0.0152540 0.0693850 0.0133900
vn -1.0000000 0.0007000 -0.0006000
v -0.0152540 0.0693850 0.0133900
vn -1.0000000 0.0003000 -0.0001000
v -0.0152540 0.0693850 0.0133900
vn -1.0000000 0.0003000 -0.0001000
v -0.0152540 0.0709340 0.0182080
vn -1.0000000 -0.0002000 -0.0002000
v -0.0152540 0.0709340 0.0182080
vn -1.0000000 -0.0002000 -0.0002000
v -0.0152550 0.0719620 0.0221360
vn -1.0000000 0.0000000 -0.0001000
v -0.0152550 0.0719620 0.0221360
vn -1.0000000 0.0003000 0.0002000
v -0.0152550 0.0718920 0.0232340
vn -1.0000000 -0.0000000 -0.0000000
v -0.0152550 0.0718920 0.0232340
vn -1.0000000 0.0002000 0.0001000
v -0.0152550 0.0718920 0.0232340
vn -1.0000000 0.0000000 -0.0001000
v -0.0152550 0.0718920 0.0232340
vn -1.0000000 0.0002000 0.0001000
v -0.0152550 0.0715520 0.0242910
vn -1.0000000 0.0002000 0.0001000
v -0.0152550 0.0708770 0.0252240
vn -1.0000000 -0.0000000 -0.0000000
v -0.0152550 0.0708770 0.0252240
vn -1.0000000 -0.0000000 -0.0000000
v -0.0152550 0.0701600 0.0258270
vn -1.0000000 -0.0001000 0.0001000
v -0.0152550 -0.0707890 0.0253230
vn -1.0000000 -0.0004000 0.0003000
v -0.0152550 -0.0707890 0.0253230
vn -1.0000000 0.0001000 0.0000000
v -0.0152550 -0.0707890 0.0253230
vn -1.0000000 -0.0000000 -0.0000000
v -0.0152550 -0.0707890 0.0253230
vn -1.0000000 -0.0004000 0.0003000
v -0.0152550 -0.0715900 0.0242340
vn -1.0000000 -0.0000000 -0.0000000
v -0.0152550 0.0693190 0.0262350
vn -1.0000000 0.0003000 0.0002000
v -0.0152550 0.0693190 0.0262350
vn -1.0000000 0.0007000 0.0006000
v -0.0152550 -0.0663860 0.0110700
vn -1.0000000 0.0001000 0.0000000
v -0.0152550 -0.0663860 0.0110700
vn -1.0000000 0.0004000 0.0002000
v -0.0152550 -0.0663860 0.0110700
vn -1.0000000 -0.0000000 -0.0000000
v -0.0152550 -0.0663860 0.0110700
vn -1.0000000 0.0003000 -0.0001000
v -0.0152550 0.0663070 0.0110610
vn -1.0000000 -0.0000000 -0.0000000
v -0.0152550 0.0663070 0.0110610
vn -1.0000000 0.0007000 -0.0006000
v -0.0152550 0.0663070 0.0110610
vn -1.0000000 0.0001000 0.0000000
v -0.0152550 -0.0719730 0.0226890
vn -1.0000000 -0.0004000 0.0003000
v -0.0152550 -0.0719730 0.0226890
vn -1.0000000 0.0001000 0.0000000
v -0.0152550 -0.0718560 0.0215860
vn -1.0000000 -0.0000000 -0.0000000
v -0.0152550 -0.0718560 0.0215860
vn -1.0000000 -0.0001000 0.0001000
v -0.0152550 -0.0718560 0.0215860
vn -1.0000000 -0.0020000 0.0019000
v -0.0152540 0.0675480 0.0114630
vn -1.0000000 0.0007000 -0.0006000
v -0.0152540 0.0675480 0.0114630
vn -1.0000000 -0.0020000 0.0019000
v -0.0152550 0.0686230 0.0122450
vn -1.0000000 -0.0006000 -0.0007000
v -0.0152550 -0.0693070 0.0132060
vn -1.0000000 0.0007000 0.0006000
v -0.0152550 -0.0693070 0.0132060
vn -1.0000000 0.0004000 0.0002000
v -0.0152550 -0.0693070 0.0132060
vn -1.0000000 -0.0006000 -0.0007000
v -0.0152550 -0.0684720 0.0121090
vn -1.0000000 -0.0006000 -0.0007000
v -0.0152550 -0.0675870 0.0114880
vn -1.0000000 0.0007000 0.0006000
v -0.0152550 -0.0675870 0.0114880
vn -1.0000000 0.0004000 0.0002000
v -0.0152550 -0.0707530 0.0176180
vn -1.0000000 -0.0000000 -0.0000000
v -0.0152550 -0.0707530 0.0176180
vn -1.0000000 0.0001000 0.0000000
v -0.0152550 -0.0707530 0.0176180
# 110 vertices, 0 vertices normals


usemtl material_0
f 37//37 8//8 1//1
f 60//60 92//92 58//58
f 29//29 5//5 14//14
f 1//1 4//4 27//27
f 26//26 28//28 39//39
f 40//40 43//43 25//25
f 55//55 47//47 35//35
f 50//50 51//51 49//49
f 33//33 37//37 1//1
f 45//45 46//46 10//10
f 9//9 36//36 44//44
f 15//15 19//19 30//30
f 20//20 22//22 18//18
f 23//23 31//31 21//21
f 3//3 24//24 41//41
f 42//42 53//53 1//1
f 52//52 32//32 48//48
f 11//11 13//13 38//38
f 17//17 21//21 31//31
f 7//7 38//38 13//13
f 54//54 34//34 2//2
f 12//12 16//16 6//6
f 106//106 105//105 102//102
f 104//104 108//108 89//89
f 96//96 94//94 82//82
f 84//84 81//81 95//95
f 59//59 58//58 83//83
f 61//61 86//86 72//72
f 79//79 78//78 85//85
f 76//76 74//74 77//77
f 71//71 63//63 75//75
f 65//65 101//101 99//99
f 100//100 93//93 66//66
f 87//87 107//107 103//103
f 109//109 97//97 58//58
f 80//80 57//57 98//98
f 85//85 78//78 73//73
f 70//70 69//69 62//62
f 67//67 91//91 68//68
f 88//88 110//110 56//56
f 58//58 92//92 90//90
f 68//68 91//91 64//64
# 42 faces, 0 coords texture

# End of File
