# Blender 3.6.0
# www.blender.org
o wall|2|0.00|4.96|4.96|4.96
v 0.000000 0.000000 4.965000
v 4.965000 0.000000 4.965000
v 0.000000 3.814400 4.965000
v 4.965000 3.814400 4.965000
v 0.000000 0.000000 4.960000
v 4.965000 0.000000 4.960000
v 0.000000 3.814400 4.960000
v 4.965000 3.814400 4.960000
v 2.572490 1.042800 4.965000
v 3.786480 1.042800 4.965000
v 2.572490 1.954470 4.965000
v 3.786480 1.954470 4.965000
v 2.572490 1.042800 4.960000
v 3.786480 1.042800 4.960000
v 2.572490 1.954470 4.960000
v 3.786480 1.954470 4.960000
vn -0.0000 -0.0000 1.0000
vn -0.0000 -0.0000 -1.0000
vn -0.0000 -1.0000 -0.0000
vn 1.0000 -0.0000 -0.0000
vn -0.0000 1.0000 -0.0000
vn -1.0000 -0.0000 -0.0000
vt -1.982500 -1.407200
vt 2.982500 -1.407200
vt 0.589990 -0.364400
vt 1.803980 -0.364400
vt 2.982500 2.407200
vt 1.803980 0.547270
vt -1.982500 2.407200
vt 0.589990 0.547270
vt -1.982500 0.497499
vt -1.982500 0.502500
vt 2.982500 0.502500
vt 2.982500 0.497499
vt 0.497499 -1.407200
vt 0.502500 -1.407200
vt 0.502500 2.407200
vt 0.497500 2.407200
vt 2.982500 0.497500
vt 2.982500 0.502500
vt -1.982500 0.502500
vt -1.982500 0.497500
vt 1.803980 0.502500
vt 0.589990 0.502500
vt 0.589990 0.497499
vt 1.803980 0.497499
vt 0.502500 0.547270
vt 0.502500 -0.364400
vt 0.497499 -0.364400
vt 0.497499 0.547270
s 0
f 1/1/1 2/2/1 9/3/1
f 2/2/1 10/4/1 9/3/1
f 2/2/1 4/5/1 10/4/1
f 4/5/1 12/6/1 10/4/1
f 4/5/1 3/7/1 12/6/1
f 3/7/1 11/8/1 12/6/1
f 3/7/1 1/1/1 11/8/1
f 1/1/1 9/3/1 11/8/1
f 13/3/2 6/2/2 5/1/2
f 13/3/2 14/4/2 6/2/2
f 14/4/2 8/5/2 6/2/2
f 14/4/2 16/6/2 8/5/2
f 16/6/2 7/7/2 8/5/2
f 16/6/2 15/8/2 7/7/2
f 15/8/2 5/1/2 7/7/2
f 15/8/2 13/3/2 5/1/2
f 1/9/3 5/10/3 6/11/3
f 1/9/3 6/11/3 2/12/3
f 2/13/4 6/14/4 8/15/4
f 2/13/4 8/15/4 4/16/4
f 4/17/5 8/18/5 7/19/5
f 4/17/5 7/19/5 3/20/5
f 3/16/6 7/15/6 5/14/6
f 3/16/6 5/14/6 1/13/6
f 14/21/5 13/22/5 9/23/5
f 10/24/5 14/21/5 9/23/5
f 16/25/6 14/26/6 10/27/6
f 12/28/6 16/25/6 10/27/6
f 15/22/3 16/21/3 12/24/3
f 11/23/3 15/22/3 12/24/3
f 13/26/4 15/25/4 11/28/4
f 9/27/4 13/26/4 11/28/4
