mtllib material.mtl
usemtl material_0
v 0.00000000 -0.04677069 -0.02142746
v -0.00742877 -0.02840674 -0.02142745
v -0.00742877 -0.04677069 -0.02142745
v 0.00000000 -0.02840674 -0.02142746
v -0.00742877 0.02852285 -0.02142745
v -0.01319051 -0.02840674 -0.02142745
v -0.01319051 0.02852285 -0.02142745
v 0.00000000 0.02852285 -0.02142746
v -0.00742877 0.04688680 -0.02142745
v 0.00000000 0.04688680 -0.02142746
v 0.00000000 0.04688680 -0.02142746
v 0.00000000 0.05306077 -0.00096481
v -0.00742877 0.05306077 -0.00096481
v -0.00742877 0.04688680 -0.02142745
v 0.00000000 -0.03405488 -0.00096481
v 0.00000000 -0.05294478 -0.00096481
v -0.00742877 -0.05294478 -0.00096481
v -0.00742877 -0.03405488 -0.00096481
v 0.00000000 0.03417087 -0.00096481
v -0.00742877 0.03417087 -0.00096481
v 0.00000000 0.05306077 -0.00096481
v -0.00742877 0.05306077 -0.00096481
v -0.01319045 0.03417087 -0.00096480
v -0.01319045 -0.03405488 -0.00096480
v 0.00000000 -0.05294478 -0.00096481
v 0.00000000 -0.04677069 -0.02142746
v -0.00742877 -0.04677069 -0.02142745
v -0.00742877 -0.05294478 -0.00096481
v -0.00742877 -0.04677069 -0.02142745
v -0.00742877 -0.02840674 -0.02142745
v -0.00742877 -0.03405488 -0.00096481
v -0.00742877 -0.05294478 -0.00096481
v -0.00742877 0.02852285 -0.02142745
v -0.00742877 0.04688680 -0.02142745
v -0.00742877 0.05306077 -0.00096481
v -0.00742877 0.03417087 -0.00096481
v -0.01319051 -0.02840674 -0.02142745
v -0.01319051 0.02852285 -0.02142745
v -0.01319045 0.03417087 -0.00096480
v -0.01319045 -0.03405488 -0.00096480
v -0.00742877 -0.02840674 -0.02142745
v -0.01319051 -0.02840674 -0.02142745
v -0.01319045 -0.03405488 -0.00096480
v -0.00742877 -0.03405488 -0.00096481
v -0.00742877 0.03417087 -0.00096481
v -0.01319045 0.03417087 -0.00096480
v -0.01319051 0.02852285 -0.02142745
v -0.00742877 0.02852285 -0.02142745
v -0.01987582 0.00913751 -0.00538435
v -0.01319045 0.00530004 -0.00154692
v -0.01987582 0.00530004 -0.00154691
v -0.01319045 0.00913751 -0.00538435
v -0.01987582 0.01054204 -0.01062635
v -0.01319045 0.01054204 -0.01062636
v -0.01987582 0.00913751 -0.01586835
v -0.01319045 0.00913751 -0.01586836
v -0.01987582 0.00530004 -0.01970579
v -0.01319051 0.00530004 -0.01970579
v -0.01987582 0.00530004 -0.00154691
v -0.01319045 0.00530004 -0.00154692
v -0.01319045 0.00005805 -0.00014235
v -0.01987576 0.00005805 -0.00014234
v -0.01319045 -0.00518393 -0.00172850
v -0.01987582 -0.00518393 -0.00172849
v -0.02071184 -0.04665208 -0.00602735
v -0.01652879 -0.04665208 -0.00602736
v -0.02095962 -0.06011820 -0.00722089
v -0.01652879 -0.06011820 -0.00722090
v -0.01942366 -0.08223093 -0.00832655
v -0.01652879 -0.08223093 -0.00832655
v -0.00611466 -0.07969308 -0.00832656
v -0.00611466 -0.06255186 -0.00722091
v -0.01652879 -0.08223093 -0.00832655
v -0.01942366 -0.08223093 -0.01062635
v -0.01942366 -0.08223093 -0.00832655
v -0.01652879 -0.08223093 -0.01062635
v -0.01942366 -0.08223093 -0.01292600
v -0.01652879 -0.08223093 -0.01292601
v -0.00611466 -0.07969308 -0.01292602
v -0.00611466 -0.07969320 -0.01062637
v -0.00611466 -0.07969308 -0.00832656
v -0.01987582 0.00005805 -0.02111036
v -0.01319051 0.00530004 -0.01970579
v -0.01987582 0.00530004 -0.01970579
v -0.01319051 0.00005805 -0.02111037
v -0.01987582 -0.00518393 -0.01952406
v -0.01319051 -0.00518393 -0.01952406
v -0.01652879 -0.04665208 -0.01522520
v -0.02071184 -0.04665208 -0.01522520
v -0.01652879 -0.06011820 -0.01403166
v -0.02095962 -0.06011820 -0.01403165
v -0.01652879 -0.08223093 -0.01292601
v -0.01942366 -0.08223093 -0.01292600
v -0.00611466 -0.06255186 -0.01403167
v -0.00611466 -0.07969308 -0.01292602
v -0.01319045 -0.00518393 -0.01062636
v -0.01652879 -0.04665208 -0.00602736
v -0.01319045 -0.00518393 -0.00172850
v -0.01652879 -0.04665220 -0.01062635
v -0.01652879 -0.06011820 -0.00722090
v -0.01652879 -0.06011820 -0.01062635
v -0.01652879 -0.04665208 -0.01522520
v -0.01319051 -0.00518393 -0.01952406
v -0.01652879 -0.06011820 -0.01403166
v -0.02095962 -0.06011820 -0.00722089
v -0.01942366 -0.08223093 -0.00832655
v -0.01942366 -0.08223093 -0.01062635
v -0.02095962 -0.06011820 -0.01062635
v -0.01942366 -0.08223093 -0.01292600
v -0.02095962 -0.06011820 -0.01403165
v -0.00611466 -0.06255186 -0.01062637
v -0.00611466 -0.07969308 -0.00832656
v -0.00611466 -0.06255186 -0.00722091
v -0.00611466 -0.07969320 -0.01062637
v -0.00611466 -0.06255186 -0.01403167
v -0.00611466 -0.07969308 -0.01292602
v -0.01652879 -0.06011820 -0.01062635
v -0.00611466 -0.06255186 -0.00722091
v -0.01652879 -0.06011820 -0.00722090
v -0.00611466 -0.06255186 -0.01062637
v -0.01652879 -0.06011820 -0.01403166
v -0.00611466 -0.06255186 -0.01403167
v -0.02095962 -0.06011820 -0.01062635
v -0.02095962 -0.06011820 -0.01403165
v -0.02071184 -0.04665208 -0.01522520
v -0.02071184 -0.04665220 -0.01062635
v -0.02095962 -0.06011820 -0.00722089
v -0.02071184 -0.04665208 -0.00602735
v -0.01987582 -0.00518393 -0.00172849
v -0.01987582 -0.00518393 -0.01062635
v -0.01987582 -0.00518393 -0.01952406
v -0.01987576 0.00005805 -0.00014234
v -0.01987582 0.00005805 -0.01062635
v -0.01987582 0.00005805 -0.02111036
v -0.01987582 0.00530004 -0.00154691
v -0.01987582 0.00530004 -0.01970579
v -0.01987582 0.00913751 -0.00538435
v -0.01987582 0.00913751 -0.01586835
v -0.01987582 0.01054204 -0.01062635
v -0.01319045 0.00005805 -0.01062636
v -0.01319045 -0.00518393 -0.01062636
v -0.01319045 -0.00518393 -0.00172850
v -0.01319045 0.00005805 -0.00014235
v -0.01319051 -0.00518393 -0.01952406
v -0.01319045 0.00530004 -0.00154692
v -0.01319051 0.00005805 -0.02111037
v -0.01319045 0.00913751 -0.00538435
v -0.01319051 0.00530004 -0.01970579
v -0.01319045 0.01054204 -0.01062636
v -0.01319045 0.00913751 -0.01586836
vn -0.00000067 0.00000000 -0.57735030
vn -0.00000067 0.00000000 -0.57735030
vn -0.00000067 0.00000000 -0.57735030
vn -0.00000067 0.00000000 -0.57735030
vn -0.00000067 0.00000000 -0.57735030
vn -0.00000067 0.00000000 -0.57735030
vn -0.00000067 0.00000000 -0.57735030
vn -0.00000067 0.00000000 -0.57735030
vn -0.00000067 0.00000000 -0.57735030
vn -0.00000067 0.00000000 -0.57735030
vn -0.00000019 0.55273810 -0.16677520
vn -0.00000019 0.55273810 -0.16677520
vn -0.00000019 0.55273810 -0.16677520
vn -0.00000019 0.55273810 -0.16677520
vn 0.00000067 0.00000000 0.57735030
vn 0.00000067 0.00000000 0.57735030
vn 0.00000067 0.00000000 0.57735030
vn 0.00000067 0.00000000 0.57735030
vn 0.00000067 0.00000000 0.57735030
vn 0.00000067 0.00000000 0.57735030
vn 0.00000067 0.00000000 0.57735030
vn 0.00000067 0.00000000 0.57735030
vn 0.00000067 0.00000000 0.57735030
vn 0.00000067 0.00000000 0.57735030
vn -0.00000019 -0.55273880 -0.16677260
vn -0.00000019 -0.55273880 -0.16677260
vn -0.00000019 -0.55273880 -0.16677260
vn -0.00000019 -0.55273880 -0.16677260
vn -0.57735030 0.00000000 0.00000067
vn -0.57735030 0.00000000 0.00000067
vn -0.57735030 0.00000000 0.00000067
vn -0.57735030 0.00000000 0.00000067
vn -0.57735030 0.00000000 0.00000067
vn -0.57735030 0.00000000 0.00000067
vn -0.57735030 0.00000000 0.00000067
vn -0.57735030 0.00000000 0.00000067
vn -0.57735030 0.00000000 0.00000067
vn -0.57735030 0.00000000 0.00000067
vn -0.57735030 0.00000000 0.00000067
vn -0.57735030 0.00000000 0.00000067
vn -0.00000018 -0.55653980 -0.15361240
vn -0.00000018 -0.55653980 -0.15361240
vn -0.00000018 -0.55653980 -0.15361240
vn -0.00000018 -0.55653980 -0.15361240
vn -0.00000018 0.55653980 -0.15361240
vn -0.00000018 0.55653980 -0.15361240
vn -0.00000018 0.55653980 -0.15361240
vn -0.00000018 0.55653980 -0.15361240
vn 0.00000034 0.50000270 0.28867050
vn 0.00000058 0.28867550 0.49999970
vn 0.00000058 0.28867550 0.49999970
vn 0.00000034 0.50000270 0.28867050
vn 0.00000000 0.57735030 0.00000000
vn 0.00000000 0.57735030 0.00000000
vn -0.00000034 0.50000270 -0.28867050
vn -0.00000034 0.50000270 -0.28867050
vn -0.00000058 0.28867550 -0.49999970
vn -0.00000058 0.28867550 -0.49999970
vn 0.00000058 0.28867550 0.49999970
vn 0.00000058 0.28867550 0.49999970
vn 0.00000067 -0.01000038 0.57726360
vn 0.00000067 -0.01000038 0.57726360
vn 0.00000067 -0.07537079 0.57240940
vn 0.00000067 -0.07451231 0.57252170
vn 0.00000067 -0.05775045 0.57445470
vn 0.00000067 -0.05785277 0.57444440
vn 0.00000067 -0.02883217 0.57662990
vn 0.00010870 -0.03131920 0.57650010
vn 0.00000067 -0.02883217 0.57662990
vn 0.00010846 -0.03131362 0.57650050
vn 0.00015881 -0.03247255 0.57643630
vn 0.00015881 -0.03247255 0.57643630
vn 0.10814350 -0.56713160 -0.00000013
vn 0.00000000 -0.57735030 0.00000000
vn 0.00000000 -0.57735030 0.00000000
vn 0.10814000 -0.56713240 -0.00000013
vn 0.00000000 -0.57735030 0.00000000
vn 0.10813640 -0.56713300 -0.00000013
vn 0.13668700 -0.56093670 -0.00000016
vn 0.13669030 -0.56093590 -0.00000016
vn 0.13669360 -0.56093510 -0.00000016
vn -0.00000067 -0.01000667 -0.57726350
vn -0.00000058 0.28867550 -0.49999970
vn -0.00000058 0.28867550 -0.49999970
vn -0.00000067 -0.01000667 -0.57726350
vn -0.00000067 -0.07451395 -0.57252160
vn -0.00000067 -0.07537253 -0.57240920
vn -0.00000067 -0.05785281 -0.57444440
vn -0.00000067 -0.05775049 -0.57445470
vn 0.00010369 -0.03131920 -0.57650010
vn -0.00000067 -0.02883217 -0.57662990
vn 0.00010346 -0.03131362 -0.57650050
vn -0.00000067 -0.02883217 -0.57662990
vn 0.00015209 -0.03247255 -0.57643630
vn 0.00015209 -0.03247255 -0.57643630
vn 0.57548860 -0.04632621 -0.00000067
vn 0.57598980 -0.03961138 -0.00000067
vn 0.57548860 -0.04632621 -0.00000067
vn 0.57603940 -0.03888297 -0.00000067
vn 0.57735030 -0.00000409 -0.00000067
vn 0.57735030 -0.00000409 -0.00000067
vn 0.57598970 -0.03961337 -0.00000067
vn 0.57548840 -0.04632946 -0.00000067
vn 0.57735030 0.00000000 -0.00000067
vn -0.57596250 -0.04000495 0.00000067
vn -0.57596250 -0.04000494 0.00000067
vn -0.57596250 -0.04000495 0.00000067
vn -0.57596250 -0.04000495 0.00000067
vn -0.57596270 -0.04000361 0.00000067
vn -0.57596270 -0.04000360 0.00000067
vn 0.57735030 0.00000000 -0.00000067
vn 0.57735030 0.00000000 -0.00000067
vn 0.57735030 0.00000000 -0.00000067
vn 0.57735030 0.00000000 -0.00000067
vn 0.57735030 -0.00000225 -0.00000067
vn 0.57735030 -0.00000225 -0.00000067
vn 0.13137440 0.56220470 -0.00000015
vn 0.13137460 0.56220460 -0.00000015
vn 0.13137460 0.56220460 -0.00000015
vn 0.13137440 0.56220470 -0.00000015
vn 0.13137420 0.56220470 -0.00000015
vn 0.13137420 0.56220470 -0.00000015
vn -0.57725270 0.01061571 0.00000067
vn -0.57725270 0.01061571 0.00000067
vn -0.57723600 0.01148909 0.00000067
vn -0.57723620 0.01147251 0.00000067
vn -0.57725270 0.01061571 0.00000067
vn -0.57723600 0.01148866 0.00000067
vn -0.57723300 0.01163751 0.00000067
vn -0.57735030 0.00000000 0.00000067
vn -0.57735030 0.00000000 0.00000067
vn -0.57735030 0.00000316 0.00000067
vn -0.57735030 0.00000104 0.00000067
vn -0.57735030 0.00000000 0.00000067
vn -0.57735030 0.00000601 0.00000067
vn -0.57735030 0.00000000 0.00000067
vn -0.57735030 0.00000301 0.00000067
vn -0.57735030 0.00000000 0.00000067
vn -0.57735030 0.00000000 0.00000067
vn 0.57735030 0.00000000 -0.00000067
vn 0.57735030 0.00000000 -0.00000067
vn 0.57735030 0.00000000 -0.00000067
vn 0.57735030 0.00000000 -0.00000067
vn 0.57735030 0.00000000 -0.00000067
vn 0.57735030 0.00000000 -0.00000067
vn 0.57735030 0.00000000 -0.00000067
vn 0.57735030 0.00000000 -0.00000067
vn 0.57735030 0.00000000 -0.00000067
vn 0.57735030 0.00000000 -0.00000067
vn 0.57735030 0.00000000 -0.00000067
vt -28.75923000 2.48121000
vt -28.75343000 2.49555700
vt -28.75343000 2.48121000
vt -28.75923000 2.49555700
vt -28.75343000 2.54003200
vt -28.74893000 2.49555700
vt -28.74893000 2.54003200
vt -28.75923000 2.54003200
vt -28.75343000 2.55437900
vt -28.75923000 2.55437900
vt -29.34883000 2.67860000
vt -29.34883000 2.69493800
vt -29.34290000 2.69493800
vt -29.34290000 2.67860000
vt -28.69343000 2.55511200
vt -28.69343000 2.56987000
vt -28.68762000 2.56987000
vt -28.68762000 2.55511200
vt -28.69343000 2.50181000
vt -28.68762000 2.50181000
vt -28.69343000 2.48705100
vt -28.68762000 2.48705100
vt -28.68312000 2.50181000
vt -28.68312000 2.55511200
vt -29.40468000 2.67860000
vt -29.40468000 2.69493900
vt -29.39875000 2.69493900
vt -29.39875000 2.67860000
vt -29.20837000 2.68552800
vt -29.20837000 2.69987400
vt -29.19238000 2.69546200
vt -29.19238000 2.68070400
vt -29.28674000 2.68070500
vt -29.28674000 2.69505100
vt -29.27076000 2.69987400
vt -29.27076000 2.68511700
vt -29.13000000 2.70578800
vt -29.13000000 2.75026500
vt -29.11401000 2.75467800
vt -29.11401000 2.70137500
vt -29.45843000 2.69491100
vt -29.45384000 2.69491100
vt -29.45384000 2.67862800
vt -29.45843000 2.67862800
vt -29.51140000 2.69491000
vt -29.50682000 2.69491000
vt -29.50682000 2.67862800
vt -29.51140000 2.67862800
vt -29.56003000 2.68925600
vt -29.56574000 2.69253400
vt -29.56003000 2.69253400
vt -29.56574000 2.68925600
vt -29.56003000 2.68477900
vt -29.56574000 2.68477900
vt -29.56003000 2.68030200
vt -29.56574000 2.68030200
vt -29.56003000 2.67702400
vt -29.56574000 2.67702400
vt -28.89560000 2.47818900
vt -28.90084000 2.47818900
vt -28.90084000 2.48229900
vt -28.89560000 2.48229900
vt -28.90084000 2.48640900
vt -28.89560000 2.48640900
vt -28.89494000 2.51892100
vt -28.89822000 2.51892100
vt -28.89475000 2.52947900
vt -28.89822000 2.52947900
vt -28.89595000 2.54681700
vt -28.89822000 2.54681700
vt -28.90639000 2.54482700
vt -28.90639000 2.53138800
vt -29.67226000 2.67761900
vt -29.67044000 2.67533200
vt -29.67226000 2.67533200
vt -29.67044000 2.67761900
vt -29.66863000 2.67533200
vt -29.66863000 2.67761900
vt -29.66863000 2.68584700
vt -29.67044000 2.68584700
vt -29.67226000 2.68584700
vt -28.96427000 2.66842600
vt -28.96951000 2.67253700
vt -28.96427000 2.67253700
vt -28.96951000 2.66842600
vt -28.96427000 2.66431600
vt -28.96951000 2.66431600
vt -28.96689000 2.63179800
vt -28.96361000 2.63179800
vt -28.96689000 2.62123900
vt -28.96342000 2.62123900
vt -28.96689000 2.60389900
vt -28.96462000 2.60389900
vt -28.97506000 2.61933000
vt -28.97506000 2.60588900
vt -29.04319000 2.74546000
vt -29.04679000 2.71303000
vt -29.05015000 2.74546000
vt -29.04319000 2.71303000
vt -29.04585000 2.70249900
vt -29.04319000 2.70249900
vt -29.03959000 2.71303000
vt -29.03624000 2.74546000
vt -29.04053000 2.70249900
vt -28.82395000 2.49806400
vt -28.82481000 2.48078400
vt -28.82661000 2.48078400
vt -28.82661000 2.49806400
vt -28.82841000 2.48078400
vt -28.82927000 2.49806400
vt -29.61757000 2.69059700
vt -29.61936000 2.67720400
vt -29.62023000 2.69059700
vt -29.61757000 2.67720400
vt -29.61491000 2.69059700
vt -29.61577000 2.67720400
vt -29.72332000 2.67576900
vt -29.72063000 2.68401300
vt -29.72063000 2.67576900
vt -29.72332000 2.68401300
vt -29.72602000 2.67576900
vt -29.72602000 2.68401300
vt -28.82661000 2.49806400
vt -28.82927000 2.49806400
vt -28.83020000 2.50858600
vt -28.82661000 2.50858600
vt -28.82395000 2.49806400
vt -28.82302000 2.50858600
vt -28.81966000 2.54098900
vt -28.82661000 2.54098900
vt -28.83356000 2.54098900
vt -28.81842000 2.54508500
vt -28.82661000 2.54508500
vt -28.83480000 2.54508500
vt -28.81952000 2.54918100
vt -28.83370000 2.54918100
vt -28.82251000 2.55218000
vt -28.83071000 2.55218000
vt -28.82661000 2.55327700
vt -29.04319000 2.74956000
vt -29.04319000 2.74546000
vt -29.05015000 2.74546000
vt -29.05139000 2.74956000
vt -29.03624000 2.74546000
vt -29.05029000 2.75365900
vt -29.03499000 2.74956000
vt -29.04729000 2.75666000
vt -29.03609000 2.75365900
vt -29.04319000 2.75775900
vt -29.03909000 2.75666000
f 3/3/3 2/2/2 1/1/1
f 2/2/2 4/4/4 1/1/1
f 2/2/2 5/5/5 4/4/4
f 2/2/2 6/6/6 5/5/5
f 6/6/6 7/7/7 5/5/5
f 5/5/5 8/8/8 4/4/4
f 5/5/5 9/9/9 8/8/8
f 9/9/9 10/10/10 8/8/8
f 13/13/13 12/12/12 11/11/11
f 14/14/14 13/13/13 11/11/11
f 17/17/17 16/16/16 15/15/15
f 18/18/18 17/17/17 15/15/15
f 18/18/18 15/15/15 19/19/19
f 20/20/20 18/18/18 19/19/19
f 20/20/20 19/19/19 21/21/21
f 22/22/22 20/20/20 21/21/21
f 20/20/20 23/23/23 18/18/18
f 23/23/23 24/24/24 18/18/18
f 27/27/27 26/26/26 25/25/25
f 28/28/28 27/27/27 25/25/25
f 31/31/31 30/30/30 29/29/29
f 32/32/32 31/31/31 29/29/29
f 35/35/35 34/34/34 33/33/33
f 36/36/36 35/35/35 33/33/33
f 39/39/39 38/38/38 37/37/37
f 40/40/40 39/39/39 37/37/37
f 43/43/43 42/42/42 41/41/41
f 44/44/44 43/43/43 41/41/41
f 47/47/47 46/46/46 45/45/45
f 48/48/48 47/47/47 45/45/45
f 51/51/51 50/50/50 49/49/49
f 50/50/50 52/52/52 49/49/49
f 49/49/49 52/52/52 53/53/53
f 52/52/52 54/54/54 53/53/53
f 53/53/53 54/54/54 55/55/55
f 54/54/54 56/56/56 55/55/55
f 55/55/55 56/56/56 57/57/57
f 56/56/56 58/58/58 57/57/57
f 61/61/61 60/60/60 59/59/59
f 62/62/62 61/61/61 59/59/59
f 63/63/63 61/61/61 62/62/62
f 64/64/64 63/63/63 62/62/62
f 64/64/64 65/65/65 63/63/63
f 65/65/65 66/66/66 63/63/63
f 65/65/65 67/67/67 66/66/66
f 67/67/67 68/68/68 66/66/66
f 67/67/67 69/69/69 68/68/68
f 69/69/69 70/70/70 68/68/68
f 70/70/70 71/71/71 68/68/68
f 71/71/71 72/72/72 68/68/68
f 75/75/75 74/74/74 73/73/73
f 74/74/74 76/76/76 73/73/73
f 74/74/74 77/77/77 76/76/76
f 77/77/77 78/78/78 76/76/76
f 78/78/78 79/79/79 76/76/76
f 79/79/79 80/80/80 76/76/76
f 76/76/76 80/80/80 73/73/73
f 80/80/80 81/81/81 73/73/73
f 84/84/84 83/83/83 82/82/82
f 83/83/83 85/85/85 82/82/82
f 82/82/82 85/85/85 86/86/86
f 85/85/85 87/87/87 86/86/86
f 87/87/87 88/88/88 86/86/86
f 88/88/88 89/89/89 86/86/86
f 88/88/88 90/90/90 89/89/89
f 90/90/90 91/91/91 89/89/89
f 90/90/90 92/92/92 91/91/91
f 92/92/92 93/93/93 91/91/91
f 90/90/90 94/94/94 92/92/92
f 94/94/94 95/95/95 92/92/92
f 98/98/98 97/97/97 96/96/96
f 97/97/97 99/99/99 96/96/96
f 99/99/99 97/97/97 100/100/100
f 101/101/101 99/99/99 100/100/100
f 96/96/96 99/99/99 102/102/102
f 102/102/102 99/99/99 101/101/101
f 103/103/103 96/96/96 102/102/102
f 104/104/104 102/102/102 101/101/101
f 107/107/107 106/106/106 105/105/105
f 108/108/108 107/107/107 105/105/105
f 109/109/109 107/107/107 108/108/108
f 110/110/110 109/109/109 108/108/108
f 113/113/113 112/112/112 111/111/111
f 112/112/112 114/114/114 111/111/111
f 111/111/111 114/114/114 115/115/115
f 114/114/114 116/116/116 115/115/115
f 119/119/119 118/118/118 117/117/117
f 118/118/118 120/120/120 117/117/117
f 117/117/117 120/120/120 121/121/121
f 120/120/120 122/122/122 121/121/121
f 125/125/125 124/124/124 123/123/123
f 126/126/126 125/125/125 123/123/123
f 126/126/126 123/123/123 127/127/127
f 128/128/128 126/126/126 127/127/127
f 126/126/126 128/128/128 129/129/129
f 125/125/125 126/126/126 130/130/130
f 130/130/130 126/126/126 129/129/129
f 131/131/131 125/125/125 130/130/130
f 129/129/129 132/132/132 130/130/130
f 132/132/132 133/133/133 130/130/130
f 134/134/134 131/131/131 130/130/130
f 133/133/133 134/134/134 130/130/130
f 133/133/133 132/132/132 135/135/135
f 134/134/134 133/133/133 136/136/136
f 137/137/137 133/133/133 135/135/135
f 133/133/133 138/138/138 136/136/136
f 133/133/133 137/137/137 139/139/139
f 138/138/138 133/133/133 139/139/139
f 142/142/142 141/141/141 140/140/140
f 143/143/143 142/142/142 140/140/140
f 141/141/141 144/144/144 140/140/140
f 145/145/145 143/143/143 140/140/140
f 144/144/144 146/146/146 140/140/140
f 147/147/147 145/145/145 140/140/140
f 146/146/146 148/148/148 140/140/140
f 149/149/149 147/147/147 140/140/140
f 148/148/148 150/150/150 140/140/140
f 150/150/150 149/149/149 140/140/140
